<svg width="15" height="15" viewBox="0 0 15 15" fill="none" xmlns="http://www.w3.org/2000/svg">
<g clip-path="url(#clip0_744_73486)">
<path d="M14.4076 7.28341L13.2706 4.72662C12.6686 3.37249 11.3256 2.49972 9.84375 2.49972H9L8.5875 0.848515C8.43662 0.247917 7.82754 -0.116836 7.22695 0.0340456C6.82617 0.134829 6.51299 0.447725 6.4125 0.848515L6 2.49972H3.1251C1.4001 2.50148 0.00205078 3.89955 0 5.62458V10.6248C0.00263672 11.4337 0.525 12.1491 1.29434 12.3984C1.26592 12.5347 1.25127 12.6733 1.2501 12.8121C1.2501 14.0204 2.22949 14.9998 3.4377 14.9998C4.6459 14.9998 5.62529 14.0204 5.62529 12.8121C5.62441 12.7075 5.61562 12.6029 5.5998 12.4995H9.40107C9.38496 12.6029 9.37646 12.7072 9.37559 12.8121C9.37559 14.0204 10.355 14.9998 11.5632 14.9998C12.7714 14.9998 13.7508 14.0204 13.7508 12.8121C13.7496 12.673 13.7347 12.5344 13.7065 12.3984C14.4759 12.1491 14.9982 11.4337 15.0009 10.6248V10.076C15.0023 9.11391 14.8002 8.16233 14.4085 7.28341H14.4076ZM12.1286 5.23464L12.8581 6.87471H10.6251C10.28 6.87471 10.0002 6.59492 10.0002 6.24979V3.76097C10.9286 3.81781 11.7489 4.3856 12.1289 5.23464H12.1286ZM4.3749 12.8121C4.3749 13.3298 3.95508 13.7496 3.4374 13.7496C2.91973 13.7496 2.4999 13.3298 2.4999 12.8121C2.5002 12.7052 2.52012 12.5994 2.55791 12.4995H4.3166C4.35469 12.5994 4.37432 12.7052 4.37461 12.8121H4.3749ZM11.5626 13.7496C11.0449 13.7496 10.6251 13.3298 10.6251 12.8121C10.6254 12.7052 10.6453 12.5994 10.6831 12.4995H12.4418C12.4799 12.5994 12.4995 12.7052 12.4998 12.8121C12.4998 13.3298 12.08 13.7496 11.5623 13.7496H11.5626ZM13.7499 10.6248C13.7499 10.9699 13.4701 11.2497 13.125 11.2497H1.875C1.52988 11.2497 1.2501 10.9699 1.2501 10.6248V5.62458C1.2501 4.58892 2.08945 3.74955 3.1251 3.74955H8.7501V6.2495C8.7501 7.28516 9.58945 8.12454 10.6251 8.12454H13.3934C13.628 8.74828 13.749 9.40923 13.7502 10.0757V10.6245L13.7499 10.6248ZM6.8751 7.49962C6.8751 7.84475 6.59531 8.12454 6.2502 8.12454H5.62529V8.74945C5.62529 9.09457 5.34551 9.37436 5.00039 9.37436C4.65527 9.37436 4.37549 9.09457 4.37549 8.74945V8.12454H3.75059C3.40547 8.12454 3.12568 7.84475 3.12568 7.49962C3.12568 7.1545 3.40547 6.87471 3.75059 6.87471H4.37549V6.24979C4.37549 5.90467 4.65527 5.62488 5.00039 5.62488C5.34551 5.62488 5.62529 5.90467 5.62529 6.24979V6.87471H6.2502C6.59531 6.87471 6.8751 7.1545 6.8751 7.49962Z" fill="#414B61"/>
</g>
<defs>
<clipPath id="clip0_744_73486">
<rect width="15" height="15" fill="white"/>
</clipPath>
</defs>
</svg>
