<svg width="15" height="15" viewBox="0 0 15 15" fill="none" xmlns="http://www.w3.org/2000/svg">
<g clip-path="url(#clip0_744_73484)">
<path d="M7.5 1.86467H4.375V1.23915C4.375 0.895112 4.09375 0.613627 3.75 0.613627C3.40625 0.613627 3.125 0.895112 3.125 1.23915V1.89595C2.13125 1.98352 1.175 2.29002 0.312498 2.79044C0.0124982 2.96559 -0.0875018 3.34716 0.0812482 3.64741C0.199998 3.84757 0.406248 3.96017 0.624998 3.96017C0.731248 3.96017 0.837498 3.93515 0.937498 3.87885C1.60625 3.49103 2.35625 3.24707 3.125 3.1595V4.42931C1.35625 4.71705 -1.78642e-06 6.26208 -1.78642e-06 8.11988V12.1858C-1.78642e-06 13.7371 1.2625 15.0006 2.8125 15.0006H4.6875C6.2375 15.0006 7.5 13.7371 7.5 12.1858V8.11988C7.5 6.26208 6.14375 4.71705 4.375 4.4168V3.11571H7.5C7.84375 3.11571 8.125 2.83423 8.125 2.49019C8.125 2.14615 7.84375 1.86467 7.5 1.86467ZM6.25 8.11988V12.1858C6.25 13.049 5.55 13.7496 4.6875 13.7496H2.8125C2.05625 13.7496 1.425 13.2116 1.28125 12.4985H4.375C4.71875 12.4985 5 12.217 5 11.873C5 11.529 4.71875 11.2475 4.375 11.2475H1.25V8.11988C1.25 6.73748 2.36875 5.6178 3.75 5.6178C5.13125 5.6178 6.25 6.73748 6.25 8.11988ZM14.4937 0.275846C14.175 0.0256375 13.7625 -0.0619354 13.3375 0.0444032L10.5812 0.851326C9.85625 1.07651 9.375 1.73331 9.375 2.49019C9.375 3.24707 9.8625 3.90387 10.5937 4.12906L13.3625 4.95475C13.4687 4.97977 13.575 4.99228 13.6875 4.99228C13.975 4.99228 14.2625 4.89845 14.4937 4.71079C14.8125 4.46058 15 4.07902 15 3.67243V1.31421C15 0.907622 14.8125 0.526055 14.4937 0.275846ZM13.75 3.67243L13.6937 3.74749L10.95 2.93431C10.7562 2.87801 10.625 2.69661 10.625 2.49645C10.625 2.29628 10.7562 2.11488 10.9437 2.05858L13.725 1.27042C13.725 1.27042 13.75 1.31421 13.75 1.32672V3.68494V3.67243Z" fill="#414B61"/>
</g>
<defs>
<clipPath id="clip0_744_73484">
<rect width="15" height="15" fill="white"/>
</clipPath>
</defs>
</svg>
