<svg width="16" height="15" viewBox="0 0 16 15" fill="none" xmlns="http://www.w3.org/2000/svg">
<path d="M0.231769 8.5505C0.296954 8.22055 0.542938 7.93752 0.863332 7.86189C1.0758 7.80924 1.29749 7.82296 1.51396 7.8185C2.09202 7.81562 2.66977 7.81116 3.24783 7.81754C3.67615 7.80477 4.06911 8.03452 4.18134 8.47966C4.22131 8.62995 4.22593 8.78918 4.22808 8.94458C4.23208 9.42897 4.23177 9.91335 4.233 10.3971C4.23023 10.6 4.21609 10.8362 4.47929 10.84C4.74864 10.8352 5.02722 10.8738 5.29104 10.8055C5.48844 10.7465 5.65109 10.5905 5.81375 10.4542C5.98194 10.3106 6.15106 10.1693 6.31863 10.0241C6.38197 9.95483 6.75433 9.70817 6.51142 9.68201C6.25837 9.66861 6.00224 9.68616 5.74703 9.68297C5.52257 9.67978 5.2363 9.68999 5.09794 9.47332C4.98356 9.28633 5.00139 9.00234 4.99801 8.78312C4.99678 8.60092 4.99278 8.41903 4.97187 8.23842C4.88424 7.38644 4.30495 6.50925 3.4314 6.44192C3.05259 6.39916 2.83335 6.15984 2.99078 5.76129C3.48275 4.75008 4.08018 3.79407 4.58783 2.79148C4.67946 2.59555 4.55401 2.41622 4.41595 2.28795C4.13922 2.00651 3.86587 1.72379 3.59283 1.43884C3.50458 1.34758 3.41018 1.25536 3.29334 1.20781C3.18511 1.16186 3.06335 1.15676 2.94681 1.15708C2.56431 1.15963 2.18334 1.16027 1.80053 1.15931C1.60774 1.15612 1.39312 1.15676 1.23569 1.02625C0.947581 0.758527 1.12838 0.319133 1.51427 0.283714C2.07388 0.240317 2.63718 0.276694 3.19833 0.26042C3.55132 0.243827 3.77424 0.336684 4.01407 0.604723C4.40457 1.00646 4.79077 1.41044 5.18373 1.80962C5.3473 1.98672 5.57761 2.02757 5.80545 2.01608C7.29672 2.00427 8.788 2.00363 10.279 1.98576C10.4985 1.98768 10.6876 1.87312 10.8337 1.71007C11.2177 1.31598 11.5965 0.916478 11.9772 0.518248C12.1614 0.309241 12.388 0.205536 12.665 0.216704C13.1831 0.212875 13.7006 0.208407 14.2187 0.209046C14.4035 0.210003 14.6175 0.230744 14.7417 0.386462C14.8398 0.506442 14.8638 0.692474 14.7983 0.836386C14.6996 1.06167 14.4425 1.10028 14.2288 1.10123C13.8239 1.10602 13.4183 1.10283 13.0137 1.10953C12.8984 1.11176 12.7788 1.1191 12.6705 1.16154C12.5482 1.20781 12.447 1.29875 12.3532 1.39097C12.0479 1.69475 11.7447 2.00236 11.4428 2.31028C11.2076 2.53365 11.337 2.7334 11.472 2.9657C11.9701 3.88757 12.518 4.78359 12.9879 5.72109C13.0952 5.96679 13.0263 6.23738 12.7643 6.3363C12.6364 6.38927 12.4873 6.40235 12.3514 6.43331C11.4477 6.63434 11.0049 7.64204 11.0003 8.5205C10.9733 8.85715 11.0962 9.36291 10.7725 9.56969C10.627 9.65297 10.4502 9.65489 10.2873 9.65776C10.0665 9.65935 9.84265 9.6584 9.61543 9.65808C9.19818 9.64723 9.44232 9.81667 9.61604 9.96058C9.82974 10.1351 10.0434 10.31 10.2584 10.4829C10.4675 10.6639 10.6956 10.8205 10.9742 10.8122C11.0919 10.8164 11.2094 10.8151 11.3275 10.8154C11.4689 10.8097 11.6097 10.8365 11.7094 10.7417C11.8111 10.6294 11.7619 10.3958 11.7721 10.2267C11.7696 9.80422 11.7666 9.38493 11.7656 8.96213C11.7361 8.06643 12.1561 7.73872 12.9811 7.77127C13.5312 7.76776 14.0785 7.76297 14.6295 7.76138C14.9345 7.75468 15.3029 7.79361 15.5178 8.02974C15.7029 8.21226 15.7727 8.51891 15.7767 8.7879C15.7924 10.3735 15.7915 11.9562 15.7985 13.5421C15.8139 13.9563 15.7281 14.419 15.3379 14.6146C15.1461 14.718 14.9127 14.7346 14.6974 14.7368C14.1363 14.7432 13.5785 14.7464 13.0186 14.748C12.7594 14.7499 12.4639 14.7486 12.2333 14.6197C11.8757 14.4397 11.7693 13.9891 11.7804 13.596C11.7773 13.0912 11.7776 12.5867 11.7761 12.0822C11.7828 11.8838 11.7361 11.736 11.5153 11.7354C9.18403 11.7306 6.86256 11.7347 4.52849 11.7341C4.40888 11.7373 4.29234 11.7574 4.25329 11.8825C4.22347 11.9808 4.23515 12.1023 4.23361 12.207C4.23577 12.6378 4.23823 13.0689 4.24038 13.5003C4.24099 13.7508 4.24222 14.0214 4.14598 14.254C4.01776 14.5855 3.69768 14.7547 3.36345 14.7767C2.70575 14.806 2.04897 14.7843 1.39097 14.7929C1.08779 14.799 0.73665 14.7719 0.511268 14.545C0.313866 14.3628 0.235766 14.059 0.227464 13.7833C0.215165 13.4716 0.208093 13.1652 0.206556 12.8551C0.226542 11.4236 0.165661 9.98483 0.230539 8.55624L0.231769 8.55018V8.5505ZM10.1068 8.69537C10.1624 8.63378 10.1683 8.5304 10.1738 8.44552C10.2442 7.27731 10.6701 6.3213 11.7161 5.73576C11.801 5.6879 11.9194 5.62663 11.928 5.52261C11.9344 5.46166 11.896 5.38476 11.8625 5.32668C11.4551 4.61 11.0474 3.89395 10.6418 3.17471C10.5096 2.92454 10.3543 2.86838 10.0868 2.87859C8.62257 2.89391 7.15897 2.88689 5.69506 2.9038C5.51119 2.90891 5.38574 3.03559 5.30549 3.19545C4.89469 3.94596 4.46699 4.68626 4.06235 5.43964C3.98548 5.59983 4.11493 5.69492 4.24499 5.76161C5.33255 6.35481 5.75564 7.35517 5.82205 8.55209C5.83374 8.629 5.86049 8.68803 5.91122 8.72058C5.96349 8.75663 6.05051 8.7611 6.12 8.76046C7.37144 8.76046 8.61673 8.76046 9.87186 8.76046C9.95119 8.76174 10.0533 8.75472 10.1037 8.69888L10.1068 8.69537ZM1.14929 8.78025C1.11331 8.81854 1.09732 8.87757 1.09271 8.94937C1.08595 10.4916 1.09271 12.0245 1.09025 13.5526C1.08133 13.7974 1.16405 13.8858 1.40173 13.8768C2.00008 13.8711 2.58737 13.8883 3.17158 13.8701C3.33301 13.8558 3.3656 13.7052 3.35976 13.5561C3.35976 12.0436 3.35976 10.5445 3.35976 9.04031C3.36037 8.96181 3.35607 8.86066 3.31671 8.80418C3.26198 8.71834 3.1396 8.71483 3.0449 8.71515C2.48006 8.71515 1.92014 8.71451 1.36022 8.71547C1.28735 8.71579 1.20094 8.726 1.15236 8.77706L1.14929 8.78025ZM12.7065 8.73845C12.6524 8.79301 12.6469 8.9082 12.6478 8.99468C12.6478 10.5094 12.6478 12.0085 12.6478 13.508C12.6389 13.7527 12.7216 13.8408 12.9596 13.8318C13.5567 13.8261 14.1431 13.8433 14.7242 13.8251C14.8853 13.8108 14.9173 13.6602 14.9118 13.5111C14.9118 11.9986 14.9118 10.4967 14.9118 8.99755C14.9124 8.91937 14.9078 8.81854 14.8684 8.76238C14.8146 8.67846 14.6941 8.67335 14.6006 8.67367C14.0321 8.67367 13.4734 8.67303 12.9165 8.67399C12.844 8.67431 12.7582 8.68452 12.7096 8.73557L12.7065 8.73876V8.73845ZM9.22278 10.7969C9.24184 10.7548 9.18126 10.7002 9.14621 10.6674C8.84242 10.415 8.53279 10.1699 8.22347 9.91718C8.06635 9.77837 7.93474 9.77327 7.77762 9.91527C7.47291 10.1661 7.16635 10.4178 6.85549 10.6747C6.81982 10.705 6.76417 10.7526 6.75925 10.7899C6.76386 10.8531 6.90561 10.8352 6.95911 10.84C7.67246 10.84 8.36583 10.8403 9.05551 10.8397C9.10778 10.8387 9.19787 10.8352 9.22155 10.7992L9.22278 10.7969Z" fill="#414B61"/>
<path d="M1.31813 15.0007C1.00696 15.0007 0.63645 14.9567 0.3754 14.6969C0.0882139 14.4295 0.034405 14.0141 0.0279479 13.7894C0.0153413 13.4713 0.00826926 13.1653 0.00673186 12.8558V12.8516C0.0144188 12.2938 0.00980665 11.7246 0.00550194 11.1741C-0.00157008 10.3126 -0.00864211 9.42166 0.0310227 8.54607L0.0316377 8.53043L0.0359424 8.50809C0.118039 8.09136 0.432898 7.74993 0.818785 7.65898C1.00635 7.6124 1.19329 7.61208 1.37409 7.61144C1.4196 7.61144 1.46511 7.61144 1.51 7.61016L1.69787 7.60921C2.2049 7.60633 2.72946 7.60378 3.24603 7.60921C3.80195 7.59389 4.24564 7.9149 4.37448 8.42641C4.41937 8.59617 4.42552 8.7739 4.42767 8.94079C4.43075 9.30647 4.43136 9.67662 4.43198 10.0343L4.43259 10.3971V10.423C4.43136 10.483 4.42952 10.5927 4.44581 10.6269C4.45073 10.6285 4.46088 10.6307 4.47902 10.631C4.55989 10.6298 4.64106 10.632 4.71947 10.6342C4.90396 10.6396 5.0783 10.6444 5.23849 10.6039C5.36856 10.5637 5.49124 10.459 5.621 10.348C5.64314 10.3288 5.66528 10.31 5.68772 10.2915C5.74553 10.2424 5.80456 10.1923 5.8636 10.1422C5.96292 10.0579 6.06561 9.97114 6.16585 9.88435C6.13049 9.88499 6.09482 9.88563 6.05854 9.88626C5.95584 9.88818 5.85007 9.89041 5.74399 9.88914H5.70586C5.47249 9.88627 5.11981 9.88276 4.93071 9.58696L4.92855 9.58313C4.79941 9.37156 4.7988 9.0981 4.79818 8.87825C4.79818 8.84634 4.79818 8.81538 4.79757 8.78539C4.79634 8.58755 4.79173 8.42417 4.77297 8.26175C4.69672 7.52241 4.19552 6.70744 3.41637 6.64714L3.40961 6.6465C3.13533 6.61555 2.92502 6.49557 2.81771 6.30794C2.7476 6.18541 2.68857 5.97736 2.80602 5.68092L2.81248 5.66624C3.08122 5.11357 3.38501 4.57079 3.67865 4.0462C3.92463 3.60648 4.17892 3.15177 4.40953 2.69674C4.42183 2.66962 4.44858 2.59495 4.28285 2.44115L4.27639 2.43477C4.02241 2.1763 3.75275 1.89805 3.45142 1.58374C3.37578 1.50556 3.30076 1.43217 3.22051 1.39931C3.14179 1.36612 3.04186 1.36293 2.95331 1.36293H2.94747C2.58033 1.36548 2.2049 1.36612 1.80057 1.36516H1.7812C1.57488 1.36165 1.31813 1.35782 1.11151 1.18711L1.1029 1.17945C0.918408 1.0081 0.850148 0.757287 0.924558 0.524986C1.0042 0.276731 1.22896 0.100271 1.49739 0.0757011C1.84607 0.048578 2.19476 0.0514499 2.53206 0.0543217C2.74883 0.0562363 2.97299 0.0581509 3.1916 0.051769C3.60147 0.0329424 3.8819 0.151007 4.15832 0.459253C4.29699 0.602207 4.43536 0.745162 4.57372 0.888435C4.81878 1.14212 5.07245 1.40441 5.32397 1.66001L5.32859 1.66479C5.42729 1.77201 5.58041 1.8186 5.79626 1.80743H5.80456C6.38877 1.80264 6.98282 1.79945 7.5572 1.7969C8.44889 1.79243 9.37102 1.78796 10.2772 1.77679H10.2793H10.2815C10.2827 1.77679 10.2839 1.77679 10.2852 1.77679C10.4626 1.77679 10.6022 1.6632 10.688 1.56747L10.6938 1.56141C10.9948 1.2522 11.2983 0.934385 11.5916 0.626778L11.8333 0.373735C12.0593 0.119417 12.3407 -0.00375349 12.6687 0.00773391L12.8274 0.00645754C13.2834 0.0029475 13.7548 -0.000562546 14.2197 7.56435e-05C14.4423 0.00103293 14.7196 0.0307087 14.8964 0.252799C15.0449 0.434363 15.0791 0.703998 14.9801 0.92194C14.8681 1.17562 14.616 1.30517 14.2304 1.30709C14.0484 1.30932 13.8624 1.30996 13.6825 1.31028C13.4642 1.31092 13.2385 1.31155 13.0174 1.31538C12.9061 1.31762 12.8163 1.32496 12.7422 1.35399C12.6583 1.3859 12.5817 1.45132 12.4919 1.53971C12.1666 1.86327 11.8502 2.18492 11.5836 2.45679L11.5784 2.46189C11.4852 2.55028 11.4819 2.57964 11.6301 2.83396L11.647 2.86299C11.8392 3.21846 12.0424 3.57681 12.2389 3.92334C12.5519 4.47506 12.8754 5.04528 13.1656 5.62444L13.1702 5.63465C13.252 5.82164 13.2588 6.01852 13.1899 6.1886C13.1263 6.34527 13.0008 6.46621 12.836 6.52939C12.7302 6.57279 12.622 6.59225 12.5175 6.61108C12.4741 6.61906 12.4332 6.62639 12.3945 6.63501C11.9369 6.7368 11.6611 7.06866 11.5105 7.32904C11.3158 7.66505 11.203 8.09934 11.2005 8.52086L11.1999 8.53681C11.1941 8.60893 11.1965 8.69668 11.199 8.78922C11.2076 9.10065 11.219 9.52728 10.8774 9.74523L10.8691 9.75033C10.6827 9.85691 10.4792 9.86074 10.2996 9.86393H10.2913C10.1357 9.8652 9.97767 9.8652 9.82332 9.86489C9.99828 10.0078 10.1904 10.1645 10.3811 10.318L10.3866 10.3228C10.5597 10.4728 10.7494 10.6106 10.969 10.6039H10.9751H10.9813C11.0708 10.6071 11.1593 10.6071 11.2528 10.6071H11.3244C11.3573 10.6061 11.3887 10.6061 11.4188 10.6065C11.4776 10.6068 11.5378 10.6074 11.5655 10.5943C11.5796 10.5554 11.576 10.4466 11.5738 10.3863C11.572 10.3317 11.5701 10.2756 11.5729 10.2207L11.5707 9.87191C11.5689 9.56972 11.567 9.26818 11.5664 8.96504C11.551 8.48416 11.655 8.13539 11.8844 7.89862C12.1214 7.65356 12.4818 7.54411 12.9848 7.56326L13.4568 7.56007C13.8399 7.55751 14.236 7.55464 14.6274 7.55336C15.1077 7.54283 15.4456 7.65069 15.6599 7.88235C15.8561 8.07827 15.9717 8.40662 15.9772 8.78411C15.9877 9.84989 15.9907 10.9313 15.9938 11.9773C15.9954 12.4971 15.9966 13.0169 15.999 13.5373C16.0273 14.3271 15.7051 14.6596 15.4284 14.7997C15.199 14.9222 14.9318 14.9414 14.7006 14.9439C14.1926 14.9497 13.6428 14.9532 13.0202 14.9551C12.769 14.957 12.4243 14.9596 12.1433 14.8038C11.7709 14.614 11.5661 14.173 11.5815 13.5932C11.5796 13.2709 11.579 12.9435 11.5784 12.627C11.5781 12.4454 11.5778 12.2638 11.5772 12.0823V12.074C11.5803 11.9878 11.5692 11.9566 11.5652 11.9483C11.559 11.9457 11.5434 11.9419 11.5157 11.9419C9.9789 11.9387 8.41906 11.9393 6.91087 11.9403C6.11881 11.9403 5.32613 11.9409 4.53191 11.9409C4.4784 11.9425 4.4535 11.9483 4.44274 11.9518C4.43198 11.9948 4.4329 12.0615 4.43382 12.126C4.43413 12.1538 4.43444 12.1809 4.43413 12.207L4.44089 13.5067C4.44151 13.7681 4.44212 14.0639 4.33143 14.3328C4.18445 14.7107 3.82778 14.9535 3.37671 14.9828H3.37271C2.95423 15.0017 2.53145 15.0001 2.1225 14.9982C1.88359 14.9972 1.63637 14.9962 1.39408 14.9994C1.36948 15.0001 1.34427 15.0001 1.31875 15.0001L1.31813 15.0007ZM0.406455 12.8558C0.407993 13.1595 0.414757 13.4601 0.427364 13.7744C0.435358 14.0466 0.51438 14.2697 0.644137 14.3896L0.650594 14.3957C0.827394 14.5731 1.13703 14.5904 1.38731 14.5853C1.63453 14.5821 1.88297 14.583 2.12373 14.584C2.52745 14.5856 2.9447 14.5872 3.35334 14.5693C3.64637 14.5495 3.87359 14.403 3.96092 14.1765L3.96276 14.1717C4.04178 13.9809 4.04117 13.7403 4.04086 13.5077V13.5003L4.0341 12.2058V12.2035C4.0344 12.1806 4.0341 12.1569 4.03379 12.1327C4.03225 12.0363 4.03071 11.9269 4.063 11.82C4.15186 11.5366 4.43167 11.529 4.5236 11.5264H4.52883C5.32397 11.5264 6.11727 11.5264 6.91026 11.5258C8.41875 11.5251 9.9786 11.5245 11.5163 11.5274C11.6584 11.5277 11.7715 11.5724 11.8527 11.6601C11.9711 11.7878 11.9806 11.9629 11.9766 12.0851C11.9772 12.2658 11.9775 12.446 11.9778 12.6263C11.9784 12.9435 11.9791 13.2715 11.9809 13.5945V13.5983V13.6021C11.9766 13.7546 11.9886 14.2655 12.3213 14.433L12.329 14.4372C12.5205 14.5444 12.796 14.5425 13.0177 14.5406C13.6404 14.5387 14.1889 14.5352 14.6959 14.5294C14.881 14.5275 15.0911 14.5141 15.2463 14.4305L15.2516 14.4279C15.4994 14.3038 15.6162 14.0083 15.5993 13.5501V13.5431C15.5969 13.0214 15.5953 12.5003 15.5938 11.9792C15.5907 10.9342 15.5879 9.8534 15.5772 8.79018C15.5735 8.52596 15.5 8.29749 15.3807 8.18007L15.373 8.17209C15.2426 8.02913 14.9939 7.96053 14.6341 7.96883H14.6305C14.239 7.9701 13.8427 7.97297 13.4593 7.97553L12.9784 7.97872H12.9741C12.5851 7.96308 12.321 8.03328 12.1663 8.19315C12.0196 8.34472 11.9542 8.59393 11.9658 8.95483V8.96153C11.9668 9.26531 11.9686 9.56749 11.9704 9.86999L11.9726 10.2325V10.2395C11.9698 10.2765 11.9717 10.3231 11.9732 10.3722C11.9788 10.5359 11.9858 10.7395 11.8555 10.8838L11.845 10.8946C11.7085 11.0245 11.5394 11.0232 11.4158 11.0219C11.3878 11.0219 11.361 11.0216 11.3358 11.0226H11.3275H11.2528C11.1618 11.0226 11.068 11.0226 10.9739 11.0194C10.6271 11.0273 10.354 10.8349 10.1336 10.6444C9.91218 10.4664 9.68926 10.2842 9.49278 10.1234C9.47833 10.1112 9.46418 10.1001 9.45035 10.0886C9.30153 9.96764 9.13303 9.83042 9.19975 9.63769C9.2674 9.4424 9.50293 9.44751 9.61854 9.45038H9.77382C9.95062 9.45102 10.1179 9.45134 10.2864 9.45006H10.2928C10.4306 9.44751 10.5726 9.44464 10.6723 9.39007C10.8033 9.30264 10.8079 9.0997 10.7996 8.80166C10.7968 8.70466 10.794 8.60414 10.8011 8.51129C10.8051 8.01286 10.9352 7.51731 11.1682 7.11589C11.4431 6.64171 11.8379 6.33538 12.3102 6.2304C12.3563 6.21987 12.4037 6.21125 12.4492 6.20296C12.5384 6.18668 12.6229 6.17137 12.6912 6.14329L12.6967 6.14105C12.7588 6.11744 12.801 6.07979 12.8219 6.02809C12.8465 5.96778 12.8415 5.88865 12.8086 5.81079C12.5239 5.24344 12.2041 4.6796 11.8948 4.13427C11.6977 3.78677 11.4939 3.42747 11.3001 3.06945L11.2885 3.04934C11.1584 2.8263 10.9619 2.48933 11.306 2.15939C11.5729 1.8872 11.8896 1.56523 12.2161 1.24072C12.3256 1.13254 12.4477 1.02501 12.6029 0.966294C12.7364 0.913963 12.8781 0.904071 13.011 0.901518C13.2351 0.897689 13.462 0.897051 13.6816 0.896412C13.8605 0.895774 14.0456 0.895136 14.2273 0.893221C14.5551 0.891626 14.6019 0.784729 14.6172 0.749948L14.6185 0.746757C14.6501 0.677514 14.6375 0.577956 14.5902 0.519881C14.5173 0.42862 14.3537 0.416494 14.219 0.415856C13.7566 0.415218 13.2862 0.419047 12.8308 0.422238L12.6632 0.423514H12.6586C12.4434 0.415218 12.2742 0.489248 12.1257 0.65773L12.1202 0.663792L11.8761 0.919387C11.5827 1.22668 11.2799 1.54449 10.9779 1.85402C10.778 2.07547 10.5388 2.19257 10.2858 2.19257C10.2839 2.19257 10.2821 2.19257 10.2802 2.19257C9.37317 2.20342 8.45104 2.20821 7.55935 2.21236C6.98652 2.21523 6.39431 2.2181 5.81194 2.22289C5.48171 2.23884 5.22281 2.14886 5.04263 1.95517C4.7905 1.69894 4.53713 1.43664 4.29177 1.18296C4.15278 1.03905 4.0138 0.895136 3.87421 0.751544L3.86837 0.745162C3.67035 0.523391 3.5037 0.45319 3.20852 0.466911H3.20513C2.97883 0.473612 2.75037 0.471697 2.5296 0.469783C2.20029 0.46723 1.85991 0.464358 1.5306 0.489886C1.40023 0.501692 1.32797 0.584019 1.3046 0.656772C1.28062 0.731441 1.30245 0.80579 1.36579 0.867056C1.46572 0.945872 1.62961 0.948425 1.78765 0.950978H1.80456C2.2049 0.951935 2.57941 0.951297 2.94654 0.948744H2.95177C3.08891 0.948744 3.23342 0.95704 3.36994 1.01512C3.51876 1.07574 3.63222 1.18487 3.73523 1.29145C4.03471 1.60385 4.30222 1.88018 4.55404 2.13641C4.89473 2.45551 4.83508 2.74014 4.76867 2.88182L4.7659 2.88788C4.53098 3.35153 4.27393 3.81134 4.02518 4.25584C3.73584 4.77309 3.43667 5.3079 3.17408 5.84717C3.14517 5.92279 3.12088 6.02522 3.16239 6.09765C3.20329 6.16881 3.30814 6.21891 3.45081 6.2355C3.91357 6.2722 4.32866 6.50673 4.65152 6.91422C4.93747 7.2748 5.12196 7.73748 5.17146 8.21644C5.1936 8.40598 5.1976 8.60063 5.19883 8.78188C5.19944 8.81155 5.19944 8.84442 5.19944 8.87825C5.19975 9.05247 5.20037 9.24967 5.26647 9.36008C5.33412 9.46283 5.50077 9.47272 5.7114 9.47495H5.75045C5.84976 9.47655 5.95277 9.47463 6.05208 9.4724C6.20552 9.46921 6.36387 9.46602 6.52222 9.47431L6.53268 9.47527C6.71009 9.49442 6.76605 9.60163 6.78389 9.66418C6.838 9.85595 6.66059 10.0031 6.51792 10.1211C6.49793 10.1377 6.47087 10.1604 6.46288 10.168L6.4472 10.183C6.33743 10.2778 6.22581 10.3726 6.11758 10.4641C6.05885 10.5139 5.99981 10.5637 5.94108 10.6138C5.91864 10.6326 5.89742 10.6508 5.87621 10.669C5.72708 10.7963 5.55797 10.9409 5.34703 11.0041L5.33996 11.006C5.12596 11.0615 4.9141 11.0554 4.70963 11.0497C4.63091 11.0475 4.55681 11.0452 4.48332 11.0465H4.48025H4.47718C4.34496 11.0446 4.23826 11.0015 4.16047 10.9185C4.02764 10.7765 4.03071 10.5771 4.03317 10.4169V10.3952V10.0356C4.03256 9.67853 4.03225 9.30902 4.02918 8.94589C4.02733 8.80102 4.02272 8.65935 3.98982 8.53426C3.92525 8.27803 3.69771 8.01095 3.25464 8.02467H3.25064H3.24664C2.73192 8.01924 2.20767 8.02211 1.70094 8.02467L1.51584 8.02562C1.47126 8.02658 1.4236 8.02658 1.37594 8.0269C1.21082 8.02722 1.05493 8.02786 0.910414 8.0636C0.6755 8.11912 0.484555 8.32685 0.430438 8.58244C0.392004 9.44113 0.399076 10.3206 0.406148 11.1713C0.41076 11.7236 0.415372 12.2945 0.407378 12.8561L0.406455 12.8558ZM2.51853 14.0856C2.37832 14.0856 2.23903 14.0849 2.10128 14.084C1.87405 14.0827 1.63914 14.0814 1.40607 14.0836C1.29261 14.0878 1.12965 14.0782 1.01219 13.9563C0.895347 13.8347 0.886431 13.6659 0.890428 13.5482C0.89135 12.94 0.890735 12.3203 0.890428 11.7207C0.889505 10.8136 0.88889 9.87542 0.892888 8.94781V8.93504C0.901805 8.80485 0.938702 8.70657 1.00635 8.63478L1.01034 8.63063C1.12688 8.50905 1.30184 8.5081 1.35933 8.50778C1.71263 8.50714 2.065 8.50746 2.4186 8.50746C2.62676 8.50746 2.83554 8.50746 3.04494 8.50746C3.14794 8.50682 3.3641 8.50618 3.48156 8.68615C3.55258 8.79145 3.56089 8.93121 3.55996 9.04162V13.5517C3.57565 14.0061 3.28016 14.068 3.18914 14.0763L3.17807 14.0769C2.95946 14.0836 2.73838 14.0856 2.51884 14.0856H2.51853ZM1.67788 13.6675C1.82117 13.6675 1.96353 13.6682 2.10313 13.6691C2.44843 13.671 2.8051 13.673 3.15225 13.6624C3.15624 13.6487 3.16209 13.619 3.15993 13.5638V13.5555V9.03971C3.16055 8.97748 3.15624 8.94494 3.15317 8.92898C3.13349 8.92419 3.09752 8.92228 3.04555 8.92196C2.83554 8.92196 2.62676 8.92196 2.41829 8.92196C2.065 8.92196 1.71263 8.92196 1.36026 8.92228C1.32797 8.92228 1.30768 8.92515 1.29599 8.9277C1.29476 8.93441 1.29323 8.94366 1.2923 8.95642C1.28831 9.88052 1.28892 10.8155 1.28984 11.7198C1.29046 12.3206 1.29077 12.9419 1.28984 13.552V13.5597C1.28738 13.6206 1.29323 13.6497 1.29661 13.6612C1.30798 13.6647 1.33597 13.6707 1.39439 13.6685H1.39992C1.49278 13.6675 1.58564 13.6672 1.67788 13.6672V13.6675ZM14.0745 14.0406C13.9346 14.0406 13.7956 14.0399 13.6582 14.039C13.4313 14.0377 13.1967 14.0364 12.9642 14.0386C12.8505 14.0428 12.6875 14.0332 12.57 13.911C12.4532 13.7894 12.4443 13.6213 12.4483 13.5035V8.99408C12.4467 8.86516 12.4587 8.70019 12.5657 8.59074L12.5676 8.58883C12.6835 8.46725 12.8578 8.46629 12.9153 8.46597C13.2711 8.46534 13.6265 8.46566 13.9851 8.46566C14.1892 8.46566 14.3943 8.46566 14.6009 8.46566C14.6947 8.46502 14.9152 8.46438 15.0329 8.64339C15.1049 8.74869 15.1132 8.88846 15.1123 8.99886V13.5067C15.1276 13.9608 14.8331 14.023 14.7421 14.0313L14.7307 14.0319C14.5136 14.0386 14.2935 14.0406 14.0748 14.0406H14.0745ZM13.2354 13.6229C13.3787 13.6229 13.5208 13.6235 13.6604 13.6245C14.0201 13.6264 14.3602 13.6283 14.7046 13.6181C14.7086 13.6044 14.7144 13.5744 14.7122 13.5192V13.5109V8.99727C14.7129 8.936 14.7089 8.90377 14.7055 8.88814C14.6904 8.88431 14.6609 8.88112 14.6019 8.8808C14.3946 8.8808 14.1895 8.8808 13.9851 8.8808C13.6271 8.8808 13.2717 8.8808 12.9172 8.88112C12.8861 8.88112 12.8661 8.88399 12.8545 8.88654C12.8511 8.90345 12.8474 8.93536 12.8483 8.99216V13.5156C12.8458 13.5763 12.8514 13.6053 12.8548 13.6171C12.8661 13.6206 12.8938 13.6267 12.9528 13.6245H12.9581C13.0506 13.6235 13.1432 13.6232 13.2357 13.6232L13.2354 13.6229ZM8.21766 11.0471C7.92217 11.0471 7.62484 11.0471 7.32443 11.0471C7.20298 11.0471 7.08122 11.0471 6.95884 11.0471L6.94224 11.0465C6.93517 11.0462 6.92563 11.0465 6.91487 11.0465H6.91241C6.69041 11.0465 6.57172 10.9654 6.56004 10.8059L6.5585 10.7842L6.56127 10.7625C6.57634 10.6448 6.66735 10.5669 6.72762 10.5155L6.731 10.5126C6.93271 10.3461 7.13226 10.1817 7.33089 10.0184L7.65006 9.75576C7.87636 9.55345 8.11804 9.55377 8.34988 9.75671C8.46887 9.85372 8.58787 9.94977 8.70655 10.0455C8.89227 10.1955 9.08445 10.3502 9.27139 10.5056L9.28369 10.5168C9.3335 10.5634 9.48509 10.7054 9.40423 10.885L9.3867 10.9169C9.30368 11.0427 9.14471 11.0459 9.05954 11.0475H9.05585C8.77758 11.0478 8.4987 11.0478 8.21797 11.0478L8.21766 11.0471ZM7.32474 10.6323C7.62515 10.6323 7.92248 10.6323 8.21766 10.6323C8.40646 10.6323 8.59432 10.6323 8.78189 10.6323C8.67458 10.5449 8.56665 10.4578 8.46088 10.3726C8.34065 10.2756 8.22012 10.1782 8.09959 10.08L8.09344 10.0749C8.00489 9.99667 7.98459 10.0027 7.90834 10.0717L7.90127 10.0777L7.57841 10.3435C7.46188 10.4396 7.34473 10.5356 7.22727 10.6326H7.32413L7.32474 10.6323ZM9.88758 8.96759C9.88143 8.96759 9.87528 8.96759 9.86944 8.96759H6.12035C6.02564 8.96855 5.90173 8.96089 5.80395 8.89484C5.70709 8.83134 5.64683 8.72699 5.6253 8.58372L5.62315 8.5633C5.55335 7.30383 5.07276 6.4477 4.15463 5.94577C4.05101 5.89248 3.90895 5.80377 3.85822 5.64709C3.83639 5.58008 3.82317 5.47319 3.88405 5.34682L3.88835 5.33821C4.12081 4.90552 4.36464 4.47059 4.60017 4.04971C4.77512 3.73731 4.95592 3.41439 5.13057 3.09529C5.25787 2.84417 5.4565 2.70217 5.69018 2.69579H5.69326C6.44843 2.68717 7.21589 2.68462 7.95815 2.68238C8.65459 2.68015 9.3744 2.67792 10.0825 2.67058C10.3476 2.66101 10.62 2.70345 10.8159 3.07168C11.1732 3.70572 11.5384 4.34774 11.8914 4.9687L12.0347 5.22078C12.0836 5.30566 12.1389 5.42022 12.127 5.54211C12.1085 5.75048 11.9308 5.85036 11.8244 5.91035L11.8118 5.91737C10.9167 6.41866 10.4463 7.24959 10.3734 8.458C10.3666 8.56489 10.3568 8.72189 10.2529 8.83708L10.2476 8.84251C10.1474 8.95164 9.99797 8.96759 9.88758 8.96759ZM9.8719 8.55245C9.92018 8.55309 9.94723 8.54958 9.96138 8.54671C9.96906 8.51894 9.97245 8.46502 9.97429 8.43407C10.0567 7.06898 10.5954 6.12701 11.6212 5.55264L11.6341 5.5453C11.658 5.5319 11.6977 5.50956 11.7214 5.49137C11.7159 5.47829 11.7066 5.45947 11.691 5.43234L11.547 5.1793C11.1934 4.55707 10.8275 3.91377 10.4693 3.27845L10.4666 3.27367C10.3811 3.11189 10.3116 3.07679 10.0939 3.08476H10.0887C9.3784 3.09242 8.65674 3.09466 7.95876 3.09689C7.21805 3.09912 6.45212 3.10168 5.69879 3.11029C5.66528 3.11125 5.56965 3.11667 5.48233 3.29058L5.47894 3.29696C5.30276 3.61893 5.12073 3.94377 4.94485 4.25776C4.71363 4.67066 4.47441 5.09729 4.24657 5.52073C4.26009 5.53222 4.28562 5.55009 4.33297 5.57434L4.33758 5.57689C5.38885 6.15062 5.93955 7.11557 6.02072 8.52724C6.02226 8.53522 6.0238 8.54128 6.02503 8.54575C6.03825 8.54862 6.06561 8.55277 6.11819 8.55213H9.87159L9.8719 8.55245Z" fill="#414B61"/>
<path d="M9.76659 5.8508C9.75029 6.87477 8.93762 7.69963 7.96138 7.68336C6.99435 7.6674 6.18845 6.8218 6.19983 5.83484C6.21151 4.78885 7.02233 3.96176 8.01488 3.98282C8.99666 4.00356 9.78258 4.84182 9.76659 5.85048V5.8508ZM8.89919 5.82463C8.89673 5.29653 8.49116 4.87756 7.9829 4.87883C7.47494 4.88011 7.06538 5.30163 7.06354 5.82495C7.06138 6.35082 7.48816 6.79149 7.99151 6.78351C8.49885 6.77553 8.90165 6.34986 8.89919 5.82463Z" fill="#414B61"/>
<path d="M7.98964 7.89087C7.97919 7.89087 7.96843 7.89087 7.95797 7.89087C6.88395 7.873 5.98734 6.9304 5.99964 5.83271C6.00609 5.26568 6.22287 4.73917 6.60998 4.3502C6.98972 3.96856 7.48907 3.76466 8.01885 3.77583C9.11041 3.79912 9.98396 4.73151 9.96612 5.85441C9.94829 6.98432 9.06459 7.89119 7.98964 7.89119V7.89087ZM7.97765 4.19001C7.5684 4.19001 7.18282 4.35179 6.88794 4.64791C6.57801 4.95935 6.40459 5.38183 6.39936 5.83718C6.38952 6.71118 7.10626 7.46137 7.96443 7.47573C7.97273 7.47573 7.98134 7.47573 7.98964 7.47573C8.8472 7.47573 9.55225 6.75043 9.5664 5.84675C9.58054 4.95169 8.88256 4.20852 8.01055 4.19001C7.99948 4.19001 7.98841 4.18969 7.97765 4.18969V4.19001ZM7.97704 6.99102C7.68678 6.99102 7.41127 6.87168 7.19911 6.65406C6.98449 6.43357 6.86181 6.13106 6.86304 5.82409C6.8655 5.19005 7.36761 4.67312 7.98196 4.67152H7.98503C8.60676 4.67152 9.09565 5.17697 9.09872 5.82346C9.10149 6.4575 8.60614 6.98113 7.99395 6.99071C7.98841 6.99071 7.98257 6.99071 7.97704 6.99071V6.99102ZM7.98503 5.08635H7.98319C7.58777 5.08731 7.26461 5.41916 7.26307 5.82601C7.26215 6.02544 7.33932 6.21467 7.48046 6.35922C7.61698 6.4993 7.79316 6.5762 7.97765 6.5762C7.98134 6.5762 7.98472 6.5762 7.98841 6.5762C8.38906 6.56982 8.70115 6.23988 8.69931 5.82537C8.69746 5.41055 8.38383 5.08603 7.98534 5.08603L7.98503 5.08635Z" fill="#414B61"/>
</svg>
