<svg width="20" height="14" viewBox="0 0 20 14" fill="none" xmlns="http://www.w3.org/2000/svg">
<g clip-path="url(#clip0_744_73482)">
<path d="M15.8624 6.22234C15.6949 6.22234 15.5278 6.23182 15.3615 6.25042L14.8547 4.83474C15.268 4.76693 15.7047 4.71662 16.1012 4.68927C16.5027 5.48589 18.2912 5.86688 18.3671 4.66667V3.11099C18.2837 1.88672 16.4526 2.30745 16.0738 3.13104C15.5079 3.16677 14.9447 3.23386 14.3874 3.33266L14.3213 3.34505L13.8853 2.12698C13.4325 0.856043 12.1556 -0.0010927 10.7181 1.04554e-06H9.18365C8.72224 1.04554e-06 8.3485 0.348178 8.3485 0.777657C8.3485 1.20714 8.72224 1.55531 9.18325 1.55531H10.7177C11.4374 1.55458 12.0765 1.98333 12.3039 2.61917L12.7657 3.90943C12.39 4.1187 12.0452 4.37318 11.7403 4.6663H7.36738C7.01399 3.73479 6.06927 3.11172 5.00871 3.11063H2.50406C2.04305 3.11063 1.66931 3.4588 1.66931 3.88828C1.66931 4.31776 2.04305 4.66594 2.50406 4.66594H5.00871C5.3261 4.66266 5.61726 4.83 5.7558 5.09615C5.80707 5.19203 5.83681 5.29667 5.84346 5.40349C5.8282 5.58177 5.77106 5.75495 5.67636 5.91063L5.30888 6.36635C3.07504 5.79287 0.765289 7.01495 0.149694 9.09599C0.0518558 9.42667 0.00137154 9.76792 -0.000976562 10.1106C0.0941218 14.9042 7.4844 15.3708 8.3035 10.6754C8.88465 10.465 9.39145 10.1081 9.76715 9.64396L12.6483 6.0663C12.8557 5.84682 13.0768 5.63901 13.3112 5.44396L13.7746 6.74297C11.785 7.84037 11.1267 10.2328 12.3051 12.0867C13.0506 13.2595 14.3988 13.9847 15.8617 13.9996C21.3785 13.8363 21.377 6.38458 15.8617 6.22198L15.8624 6.22234ZM4.17435 12.4443C2.79092 12.4443 1.6697 11.3998 1.6697 10.111C1.6697 8.82219 2.79092 7.77766 4.17435 7.77766L3.67342 8.4C3.12005 9.08724 3.26955 10.0621 4.00724 10.5777C4.29645 10.7796 4.64788 10.8886 5.0091 10.8886H6.53537C6.18159 11.8209 5.23569 12.444 4.17435 12.4443ZM8.43225 8.71099C8.11604 9.10182 7.62176 9.33188 7.09657 9.33333H5.00949L7.01321 6.84432C7.16623 6.65511 7.28755 6.44511 7.37286 6.22198H10.436L8.43225 8.71099ZM15.8624 12.4443C14.4731 12.4268 13.3625 11.3633 13.3813 10.0694C13.3915 9.36906 13.7374 8.70953 14.3244 8.27167L15.0707 10.3567C15.2163 10.7647 15.6899 10.9856 16.1278 10.85C16.5657 10.7144 16.8029 10.2732 16.6573 9.86526L15.9074 7.77766C17.2909 7.78932 18.4019 8.84333 18.3894 10.1321C18.3769 11.4209 17.2455 12.456 15.8621 12.4443H15.8624Z" fill="#414B61"/>
</g>
<defs>
<clipPath id="clip0_744_73482">
<rect width="20" height="14" fill="white"/>
</clipPath>
</defs>
</svg>
