<svg width="23" height="23" viewBox="0 0 23 23" fill="none" xmlns="http://www.w3.org/2000/svg">
<g clip-path="url(#clip0_744_62693)">
<mask id="mask0_744_62693" style="mask-type:luminance" maskUnits="userSpaceOnUse" x="0" y="0" width="23" height="23">
<path d="M23 0H0V23H23V0Z" fill="white"/>
</mask>
<g mask="url(#mask0_744_62693)">
<path d="M17.2501 0H7.66683C6.73556 0.00122511 5.82482 0.273801 5.04599 0.784395C4.26717 1.29499 3.65401 2.02147 3.2815 2.875H1.91683C1.66267 2.875 1.41891 2.97597 1.23919 3.15569C1.05947 3.33541 0.958496 3.57916 0.958496 3.83333C0.958496 4.0875 1.05947 4.33125 1.23919 4.51098C1.41891 4.6907 1.66267 4.79167 1.91683 4.79167H2.87516V6.70833H1.91683C1.66267 6.70833 1.41891 6.8093 1.23919 6.98902C1.05947 7.16875 0.958496 7.4125 0.958496 7.66667C0.958496 7.92084 1.05947 8.16459 1.23919 8.34431C1.41891 8.52403 1.66267 8.625 1.91683 8.625H2.87516V10.5417H1.91683C1.66267 10.5417 1.41891 10.6427 1.23919 10.8224C1.05947 11.002 0.958496 11.2458 0.958496 11.5C0.958496 11.7541 1.05947 11.9979 1.23919 12.1776C1.41891 12.3573 1.66267 12.4583 1.91683 12.4583H2.87516V14.375H1.91683C1.66267 14.375 1.41891 14.476 1.23919 14.6557C1.05947 14.8354 0.958496 15.0792 0.958496 15.3333C0.958496 15.5875 1.05947 15.8313 1.23919 16.011C1.41891 16.1907 1.66267 16.2917 1.91683 16.2917H2.87516V18.2083H1.91683C1.66267 18.2083 1.41891 18.3093 1.23919 18.489C1.05947 18.6687 0.958496 18.9125 0.958496 19.1667C0.958496 19.4208 1.05947 19.6646 1.23919 19.8443C1.41891 20.024 1.66267 20.125 1.91683 20.125H3.2815C3.65401 20.9785 4.26717 21.705 5.04599 22.2156C5.82482 22.7262 6.73556 22.9988 7.66683 23H17.2501C18.5205 22.9985 19.7385 22.4931 20.6367 21.5949C21.5349 20.6966 22.0403 19.4787 22.0418 18.2083V4.79167C22.0403 3.52131 21.5349 2.30341 20.6367 1.40513C19.7385 0.506845 18.5205 0.0015217 17.2501 0ZM20.1251 18.2083C20.1251 18.9708 19.8223 19.7021 19.2831 20.2412C18.7439 20.7804 18.0127 21.0833 17.2501 21.0833H7.66683C6.90433 21.0833 6.17307 20.7804 5.6339 20.2412C5.09473 19.7021 4.79183 18.9708 4.79183 18.2083V4.79167C4.79183 4.02917 5.09473 3.2979 5.6339 2.75873C6.17307 2.21957 6.90433 1.91667 7.66683 1.91667H17.2501C18.0127 1.91667 18.7439 2.21957 19.2831 2.75873C19.8223 3.2979 20.1251 4.02917 20.1251 4.79167V18.2083ZM12.4585 11.5C13.221 11.5 13.9522 11.1971 14.4914 10.6579C15.0306 10.1188 15.3335 9.3875 15.3335 8.625C15.3335 7.8625 15.0306 7.13124 14.4914 6.59207C13.9522 6.0529 13.221 5.75 12.4585 5.75C11.696 5.75 10.9647 6.0529 10.4256 6.59207C9.88641 7.13124 9.58348 7.8625 9.58348 8.625C9.58348 9.3875 9.88641 10.1188 10.4256 10.6579C10.9647 11.1971 11.696 11.5 12.4585 11.5ZM17.2501 17.25C17.2501 17.5042 17.1492 17.7479 16.9694 17.9276C16.7898 18.1073 16.546 18.2083 16.2918 18.2083C16.0377 18.2083 15.794 18.1073 15.6142 17.9276C15.4345 17.7479 15.3335 17.5042 15.3335 17.25C15.3335 16.4875 15.0306 15.7562 14.4914 15.2171C13.9522 14.6779 13.221 14.375 12.4585 14.375C11.696 14.375 10.9647 14.6779 10.4256 15.2171C9.88641 15.7562 9.58348 16.4875 9.58348 17.25C9.58348 17.5042 9.48253 17.7479 9.30281 17.9276C9.12308 18.1073 8.87933 18.2083 8.62516 18.2083C8.371 18.2083 8.12724 18.1073 7.94753 17.9276C7.7678 17.7479 7.66683 17.5042 7.66683 17.25C7.86904 10.9173 17.0499 10.9192 17.2501 17.25Z" fill="#414B61"/>
</g>
</g>
<defs>
<clipPath id="clip0_744_62693">
<rect width="23" height="23" fill="white"/>
</clipPath>
</defs>
</svg>
