<svg width="20" height="20" viewBox="0 0 20 20" fill="none" xmlns="http://www.w3.org/2000/svg">
<g clip-path="url(#clip0_744_71646)">
<mask id="mask0_744_71646" style="mask-type:luminance" maskUnits="userSpaceOnUse" x="0" y="0" width="20" height="20">
<path d="M20 0H0V20H20V0Z" fill="white"/>
</mask>
<g mask="url(#mask0_744_71646)">
<path d="M17.4999 3.33333H14.9165C14.7231 2.39284 14.2114 1.54779 13.4675 0.9406C12.7238 0.333408 11.7934 0.0012121 10.8332 0H9.16652C8.20633 0.0012121 7.27594 0.333408 6.53213 0.9406C5.78832 1.54779 5.27658 2.39284 5.08317 3.33333H2.49984C2.27882 3.33333 2.06686 3.42113 1.91058 3.57741C1.7543 3.73369 1.6665 3.94565 1.6665 4.16667C1.6665 4.38768 1.7543 4.59964 1.91058 4.75592C2.06686 4.9122 2.27882 5 2.49984 5H3.33317V15.8333C3.3345 16.938 3.7739 17.997 4.55502 18.7782C5.33614 19.5592 6.39517 19.9987 7.49984 20H12.4999C13.6045 19.9987 14.6635 19.5592 15.4447 18.7782C16.2258 17.997 16.6652 16.938 16.6665 15.8333V5H17.4999C17.7209 5 17.9328 4.9122 18.0891 4.75592C18.2454 4.59964 18.3332 4.38768 18.3332 4.16667C18.3332 3.94565 18.2454 3.73369 18.0891 3.57741C17.9328 3.42113 17.7209 3.33333 17.4999 3.33333ZM9.16652 1.66667H10.8332C11.3501 1.6673 11.8541 1.82782 12.2762 2.1262C12.6983 2.42459 13.0177 2.84624 13.1907 3.33333H6.809C6.98199 2.84624 7.30142 2.42459 7.72349 2.1262C8.14556 1.82782 8.6496 1.6673 9.16652 1.66667ZM14.9999 15.8333C14.9999 16.4963 14.7364 17.1322 14.2676 17.6011C13.7988 18.0699 13.1629 18.3333 12.4999 18.3333H7.49984C6.8368 18.3333 6.20091 18.0699 5.73207 17.6011C5.26323 17.1322 4.99984 16.4963 4.99984 15.8333V5H14.9999V15.8333Z" fill="#374957"/>
<path d="M8.33333 14.9997C8.55433 14.9997 8.76633 14.9118 8.92258 14.7556C9.07883 14.5993 9.16667 14.3873 9.16667 14.1663V9.16635C9.16667 8.94535 9.07883 8.73335 8.92258 8.5771C8.76633 8.42077 8.55433 8.33301 8.33333 8.33301C8.11232 8.33301 7.90036 8.42077 7.74407 8.5771C7.5878 8.73335 7.5 8.94535 7.5 9.16635V14.1663C7.5 14.3873 7.5878 14.5993 7.74407 14.7556C7.90036 14.9118 8.11232 14.9997 8.33333 14.9997Z" fill="#374957"/>
<path d="M11.6663 14.9997C11.8873 14.9997 12.0993 14.9118 12.2556 14.7556C12.4118 14.5993 12.4997 14.3873 12.4997 14.1663V9.16635C12.4997 8.94535 12.4118 8.73335 12.2556 8.5771C12.0993 8.42077 11.8873 8.33301 11.6663 8.33301C11.4453 8.33301 11.2333 8.42077 11.0771 8.5771C10.9208 8.73335 10.833 8.94535 10.833 9.16635V14.1663C10.833 14.3873 10.9208 14.5993 11.0771 14.7556C11.2333 14.9118 11.4453 14.9997 11.6663 14.9997Z" fill="#374957"/>
</g>
</g>
<defs>
<clipPath id="clip0_744_71646">
<rect width="20" height="20" fill="white"/>
</clipPath>
</defs>
</svg>
