<svg width="22" height="22" viewBox="0 0 22 22" fill="none" xmlns="http://www.w3.org/2000/svg">
<g clip-path="url(#clip0_744_62681)">
<mask id="mask0_744_62681" style="mask-type:luminance" maskUnits="userSpaceOnUse" x="0" y="0" width="22" height="22">
<path d="M22 0H0V22H22V0Z" fill="white"/>
</mask>
<g mask="url(#mask0_744_62681)">
<path d="M11 22C8.82441 22 6.69767 21.3549 4.88873 20.1461C3.07979 18.9375 1.66989 17.2195 0.83733 15.2095C0.00476631 13.1995 -0.213071 10.9878 0.211367 8.85401C0.635805 6.72022 1.68345 4.7602 3.22183 3.22183C4.7602 1.68345 6.72022 0.635805 8.85401 0.211367C10.9878 -0.213071 13.1995 0.00476631 15.2095 0.83733C17.2195 1.66989 18.9375 3.07979 20.1461 4.88873C21.3549 6.69767 22 8.82441 22 11C21.9969 13.9164 20.8369 16.7125 18.7747 18.7747C16.7125 20.8369 13.9164 21.9969 11 22ZM11 1.83334C9.18702 1.83334 7.41472 2.37096 5.90728 3.3782C4.39983 4.38544 3.22492 5.81708 2.53111 7.49207C1.8373 9.16703 1.65578 11.0102 2.00947 12.7883C2.36317 14.5665 3.23621 16.1998 4.5182 17.4818C5.80017 18.7638 7.43352 19.6368 9.21167 19.9906C10.9898 20.3442 12.833 20.1627 14.5079 19.4689C16.1829 18.7751 17.6146 17.6002 18.6218 16.0927C19.629 14.5853 20.1667 12.813 20.1667 11C20.164 8.56967 19.1974 6.23965 17.4789 4.52114C15.7603 2.80263 13.4304 1.83601 11 1.83334ZM14.6758 16.5C14.8176 16.4968 14.9567 16.4614 15.0827 16.3965C15.2088 16.3317 15.3185 16.239 15.4035 16.1256C15.4886 16.0121 15.5467 15.8809 15.5735 15.7417C15.6004 15.6025 15.5953 15.459 15.5586 15.3221C15.2338 14.3603 14.6247 13.5198 13.8119 12.9117C12.9991 12.3037 12.0207 11.9566 11.0064 11.9167C9.99313 11.9606 9.01669 12.309 8.20458 12.9166C7.39247 13.5241 6.78246 14.3624 6.45426 15.3221C6.41357 15.4589 6.40541 15.6033 6.43041 15.7439C6.45541 15.8845 6.51289 16.0172 6.59827 16.1316C6.68365 16.246 6.79456 16.3389 6.92218 16.4028C7.0498 16.4668 7.19059 16.5001 7.33334 16.5H14.6758ZM5.50001 9.16667C5.50001 10.0833 6.32043 10.0833 7.33334 10.0833C8.34626 10.0833 9.16667 10.0833 9.16667 9.16667C9.16667 8.68044 8.97352 8.21413 8.6297 7.87031C8.28589 7.52649 7.81957 7.33334 7.33334 7.33334C6.84711 7.33334 6.38079 7.52649 6.03697 7.87031C5.69316 8.21413 5.50001 8.68044 5.50001 9.16667ZM12.8333 9.16667C12.8333 10.0833 13.6538 10.0833 14.6667 10.0833C15.6796 10.0833 16.5 10.0833 16.5 9.16667C16.5 8.68044 16.3069 8.21413 15.963 7.87031C15.6192 7.52649 15.1529 7.33334 14.6667 7.33334C14.1805 7.33334 13.7142 7.52649 13.3703 7.87031C13.0265 8.21413 12.8333 8.68044 12.8333 9.16667Z" fill="#414B61"/>
</g>
</g>
<defs>
<clipPath id="clip0_744_62681">
<rect width="22" height="22" fill="white"/>
</clipPath>
</defs>
</svg>
