<svg width="15" height="15" viewBox="0 0 15 15" fill="none" xmlns="http://www.w3.org/2000/svg">
<g clip-path="url(#clip0_744_92165)">
<path d="M13.4123 2.5837C13.1513 1.08868 11.8526 -0.00204702 10.3347 3.76591e-06H4.65682C3.13781 -0.00233998 1.83793 1.08955 1.57807 2.58633L0.0473381 11.3361C-0.250312 13.0362 0.886677 14.6555 2.58674 14.9531C2.76428 14.9842 2.94445 15 3.12491 15H11.8748C13.6007 15 14.9999 13.6014 15.0002 11.8755C15.0002 11.6939 14.9844 11.5128 14.953 11.3338L13.4123 2.5837ZM13.3121 13.0808C12.9556 13.5056 12.4291 13.7505 11.8745 13.7502H3.12491C2.08929 13.7502 1.24995 12.9108 1.24995 11.8752C1.24995 11.7668 1.25933 11.6584 1.27808 11.5515L2.80881 2.80137C2.96613 1.90401 3.7457 1.24952 4.65682 1.2501H10.3347C11.2447 1.2501 12.0231 1.90401 12.181 2.8002L13.7202 11.5503C13.8169 12.0958 13.6675 12.656 13.3121 13.0811V13.0808ZM8.12491 3.1251V4.3752C8.12491 4.72032 7.84513 5.0001 7.50002 5.0001C7.15491 5.0001 6.87513 4.72032 6.87513 4.3752V3.1251C6.87513 2.77998 7.15491 2.5002 7.50002 2.5002C7.84513 2.5002 8.12491 2.77998 8.12491 3.1251ZM8.12491 6.8751V8.1252C8.12491 8.47032 7.84513 8.7501 7.50002 8.7501C7.15491 8.7501 6.87513 8.47032 6.87513 8.1252V6.8751C6.87513 6.52998 7.15491 6.2502 7.50002 6.2502C7.84513 6.2502 8.12491 6.52998 8.12491 6.8751ZM8.12491 10.6251V11.8752C8.12491 12.2203 7.84513 12.5001 7.50002 12.5001C7.15491 12.5001 6.87513 12.2203 6.87513 11.8752V10.6251C6.87513 10.28 7.15491 10.0002 7.50002 10.0002C7.84513 10.0002 8.12491 10.28 8.12491 10.6251Z" fill="#414B61"/>
</g>
<defs>
<clipPath id="clip0_744_92165">
<rect width="15" height="15" fill="white"/>
</clipPath>
</defs>
</svg>
