<svg width="15" height="11" viewBox="0 0 15 11" fill="none" xmlns="http://www.w3.org/2000/svg">
<g clip-path="url(#clip0_744_92138)">
<path d="M14.3145 1.74422C13.892 1.51185 13.3939 1.56052 13.0163 1.87346C12.992 1.89344 12.9688 1.916 12.9475 1.93953L11.8494 3.15842C11.7176 1.39518 10.3863 2.01988e-07 8.7501 2.01988e-07H3.1251C1.40186 -0.000644373 0 1.5415 0 3.4372V7.56248C0 9.45818 1.40186 11.0003 3.1251 11.0003H8.7501C10.3934 11.0003 11.7302 9.59289 11.8515 7.81902L12.9489 9.02502C12.9703 9.04758 12.992 9.06821 13.0157 9.08819C13.2357 9.26964 13.4956 9.36181 13.7581 9.36181C13.9474 9.36181 14.1369 9.31444 14.3145 9.21678C14.7375 8.98441 15 8.51613 15 7.99692V2.96537C15 2.44487 14.7375 1.97724 14.3145 1.74487V1.74422ZM8.7501 9.62512H3.1251C2.09121 9.62512 1.2501 8.69983 1.2501 7.56248V3.4372C1.2501 2.29985 2.09121 1.37456 3.1251 1.37456H8.7501C9.78399 1.37456 10.6251 2.29985 10.6251 3.4372V7.56248C10.6251 8.69983 9.78399 9.62512 8.7501 9.62512ZM11.8749 5.90044V5.0828L13.7499 3.00082L13.7654 7.97726L11.8749 5.89948V5.90012V5.90044Z" fill="#414B61"/>
</g>
<defs>
<clipPath id="clip0_744_92138">
<rect width="15" height="11" fill="white"/>
</clipPath>
</defs>
</svg>
