<svg width="15" height="15" viewBox="0 0 15 15" fill="none" xmlns="http://www.w3.org/2000/svg">
<g clip-path="url(#clip0_744_78983)">
<mask id="mask0_744_78983" style="mask-type:luminance" maskUnits="userSpaceOnUse" x="0" y="0" width="15" height="15">
<path d="M15 0H0V15H15V0Z" fill="white"/>
</mask>
<g mask="url(#mask0_744_78983)">
<path d="M11.875 1.875H7.795C7.69831 1.87564 7.60281 1.85427 7.51562 1.8125L5.54313 0.8225C5.28274 0.692844 4.99587 0.625244 4.705 0.625H3.125C2.29651 0.625994 1.50223 0.955556 0.916387 1.54139C0.330551 2.12723 0.000992413 2.92151 0 3.75V11.25C0.000992413 12.0785 0.330551 12.8728 0.916387 13.4586C1.50223 14.0445 2.29651 14.374 3.125 14.375H11.875C12.7035 14.374 13.4978 14.0445 14.0836 13.4586C14.6694 12.8728 14.999 12.0785 15 11.25V5C14.999 4.17151 14.6694 3.37723 14.0836 2.79139C13.4978 2.20556 12.7035 1.87599 11.875 1.875ZM3.125 1.875H4.705C4.80166 1.87436 4.8972 1.89574 4.98438 1.9375L6.95687 2.92438C7.217 3.05512 7.50388 3.12379 7.795 3.125H11.875C12.2487 3.12561 12.6138 3.23792 12.9233 3.44751C13.2328 3.6571 13.4726 3.9544 13.6119 4.30125L1.25 4.37125V3.75C1.25 3.25272 1.44754 2.77581 1.79918 2.42418C2.15081 2.07254 2.62772 1.875 3.125 1.875ZM11.875 13.125H3.125C2.62772 13.125 2.15081 12.9275 1.79918 12.5758C1.44754 12.2242 1.25 11.7473 1.25 11.25V5.62125L13.75 5.55062V11.25C13.75 11.7473 13.5524 12.2242 13.2008 12.5758C12.8492 12.9275 12.3722 13.125 11.875 13.125Z" fill="#414B61"/>
</g>
</g>
<defs>
<clipPath id="clip0_744_78983">
<rect width="15" height="15" fill="white"/>
</clipPath>
</defs>
</svg>
