<svg width="19" height="19" viewBox="0 0 19 19" fill="none" xmlns="http://www.w3.org/2000/svg">
<g clip-path="url(#clip0_745_102847)">
<path d="M9.50016 6.33398C8.87386 6.33398 8.26161 6.51971 7.74086 6.86766C7.2201 7.21562 6.81422 7.71019 6.57455 8.28882C6.33487 8.86745 6.27216 9.50416 6.39434 10.1184C6.51653 10.7327 6.81813 11.297 7.26099 11.7398C7.70386 12.1827 8.26811 12.4843 8.88238 12.6065C9.49665 12.7287 10.1334 12.6659 10.712 12.4263C11.2906 12.1866 11.7852 11.7807 12.1332 11.26C12.4811 10.7392 12.6668 10.127 12.6668 9.50065C12.6668 8.6608 12.3332 7.85534 11.7393 7.26148C11.1455 6.66761 10.34 6.33398 9.50016 6.33398ZM9.50016 11.084C9.18701 11.084 8.88089 10.9911 8.62051 10.8171C8.36013 10.6432 8.15719 10.3959 8.03736 10.1066C7.91752 9.81725 7.88616 9.49889 7.94725 9.19176C8.00835 8.88462 8.15915 8.6025 8.38058 8.38107C8.60201 8.15963 8.88414 8.00883 9.19127 7.94774C9.49841 7.88665 9.81676 7.918 10.1061 8.03784C10.3954 8.15768 10.6427 8.36062 10.8167 8.621C10.9906 8.88138 11.0835 9.1875 11.0835 9.50065C11.0835 9.92058 10.9167 10.3233 10.6198 10.6202C10.3228 10.9172 9.92009 11.084 9.50016 11.084Z" fill="#414B61"/>
<path d="M16.8578 11.0042L16.5063 10.8015C16.6645 9.94052 16.6645 9.0579 16.5063 8.19692L16.8578 7.99425C17.1281 7.8383 17.365 7.63065 17.5551 7.38313C17.7451 7.13562 17.8845 6.85309 17.9654 6.55169C18.0463 6.25029 18.067 5.93591 18.0263 5.6265C17.9857 5.31709 17.8845 5.01872 17.7286 4.74842C17.5726 4.47811 17.365 4.24117 17.1175 4.05112C16.87 3.86107 16.5874 3.72163 16.286 3.64077C15.9846 3.5599 15.6702 3.5392 15.3608 3.57983C15.0514 3.62046 14.7531 3.72164 14.4828 3.87758L14.1305 4.08104C13.4651 3.51256 12.7004 3.07186 11.875 2.78113V2.375C11.875 1.74511 11.6248 1.14102 11.1794 0.695621C10.734 0.250222 10.1299 0 9.5 0C8.87011 0 8.26602 0.250222 7.82062 0.695621C7.37523 1.14102 7.125 1.74511 7.125 2.375V2.78113C6.2996 3.07291 5.53522 3.51468 4.87034 4.08421L4.51646 3.87917C3.97056 3.56422 3.3219 3.47904 2.71319 3.64235C2.10448 3.80566 1.58557 4.2041 1.27063 4.75C0.955684 5.2959 0.870498 5.94456 1.03381 6.55327C1.19712 7.16198 1.59556 7.68089 2.14146 7.99583L2.49296 8.1985C2.33472 9.05948 2.33472 9.9421 2.49296 10.8031L2.14146 11.0058C1.59556 11.3207 1.19712 11.8396 1.03381 12.4483C0.870498 13.057 0.955684 13.7057 1.27063 14.2516C1.58557 14.7975 2.10448 15.1959 2.71319 15.3592C3.3219 15.5225 3.97056 15.4374 4.51646 15.1224L4.86875 14.919C5.53436 15.4875 6.29928 15.9282 7.125 16.2189V16.625C7.125 17.2549 7.37523 17.859 7.82062 18.3044C8.26602 18.7498 8.87011 19 9.5 19C10.1299 19 10.734 18.7498 11.1794 18.3044C11.6248 17.859 11.875 17.2549 11.875 16.625V16.2189C12.7004 15.9271 13.4648 15.4853 14.1297 14.9158L14.4835 15.12C15.0295 15.435 15.6781 15.5202 16.2868 15.3569C16.8955 15.1935 17.4144 14.7951 17.7294 14.2492C18.0443 13.7033 18.1295 13.0546 17.9662 12.4459C17.8029 11.8372 17.4044 11.3183 16.8585 11.0034L16.8578 11.0042ZM14.8406 8.01483C15.1087 8.98626 15.1087 10.0122 14.8406 10.9836C14.7938 11.1527 14.8045 11.3325 14.8709 11.4948C14.9374 11.6572 15.056 11.7929 15.2079 11.8805L16.0661 12.3761C16.248 12.4811 16.3808 12.6541 16.4352 12.8569C16.4896 13.0598 16.4612 13.276 16.3562 13.4579C16.2513 13.6399 16.0783 13.7726 15.8754 13.8271C15.6725 13.8815 15.4564 13.8531 15.2744 13.7481L14.4147 13.2509C14.2626 13.1628 14.0855 13.1279 13.9114 13.1515C13.7372 13.1752 13.5759 13.2561 13.4528 13.3815C12.7481 14.1009 11.8604 14.6142 10.8854 14.8659C10.7152 14.9097 10.5644 15.0088 10.4568 15.1477C10.3492 15.2866 10.2908 15.4573 10.2909 15.633V16.625C10.2909 16.835 10.2075 17.0363 10.059 17.1848C9.91054 17.3333 9.70918 17.4167 9.49921 17.4167C9.28925 17.4167 9.08788 17.3333 8.93942 17.1848C8.79095 17.0363 8.70754 16.835 8.70754 16.625V15.6338C8.70763 15.4581 8.64926 15.2874 8.54162 15.1485C8.43397 15.0096 8.28319 14.9105 8.113 14.8667C7.13795 14.6139 6.25047 14.0996 5.54642 13.3792C5.42334 13.2537 5.262 13.1728 5.08785 13.1491C4.9137 13.1255 4.73663 13.1605 4.58455 13.2485L3.72638 13.7449C3.63631 13.7977 3.53669 13.8322 3.43324 13.8463C3.3298 13.8605 3.22458 13.854 3.12365 13.8273C3.02271 13.8006 2.92805 13.7543 2.84511 13.6908C2.76218 13.6274 2.6926 13.5482 2.6404 13.4578C2.5882 13.3674 2.55439 13.2675 2.54093 13.164C2.52748 13.0605 2.53463 12.9553 2.56199 12.8545C2.58934 12.7538 2.63636 12.6594 2.70033 12.5769C2.76429 12.4944 2.84395 12.4254 2.93471 12.3738L3.79288 11.8782C3.94484 11.7905 4.06337 11.6548 4.12986 11.4925C4.19635 11.3301 4.20702 11.1503 4.16021 10.9812C3.89212 10.0098 3.89212 8.98388 4.16021 8.01246C4.20618 7.84374 4.19499 7.66455 4.1284 7.50286C4.0618 7.34116 3.94355 7.20607 3.79209 7.11867L2.93392 6.62308C2.75199 6.5181 2.61921 6.34515 2.5648 6.14227C2.51038 5.93939 2.53879 5.7232 2.64377 5.54127C2.74876 5.35934 2.92171 5.22656 3.12459 5.17215C3.32747 5.11773 3.54365 5.14614 3.72559 5.25112L4.58534 5.74829C4.737 5.83657 4.9137 5.87196 5.08767 5.84889C5.26164 5.82582 5.42301 5.7456 5.54642 5.62083C6.25107 4.90148 7.1388 4.38822 8.11379 4.13646C8.2845 4.09257 8.43568 3.99297 8.54338 3.85344C8.65108 3.71391 8.70913 3.54242 8.70834 3.36617V2.375C8.70834 2.16504 8.79174 1.96367 8.94021 1.81521C9.08868 1.66674 9.29004 1.58333 9.5 1.58333C9.70997 1.58333 9.91133 1.66674 10.0598 1.81521C10.2083 1.96367 10.2917 2.16504 10.2917 2.375V3.36617C10.2916 3.54188 10.35 3.71264 10.4576 3.85152C10.5652 3.99041 10.716 4.08954 10.8862 4.13329C11.8616 4.38595 12.7493 4.90032 13.4536 5.62083C13.5767 5.74629 13.738 5.82721 13.9122 5.85087C14.0863 5.87452 14.2634 5.83954 14.4155 5.75146L15.2736 5.25508C15.3637 5.20228 15.4633 5.16782 15.5668 5.15367C15.6702 5.13953 15.7754 5.14599 15.8764 5.17267C15.9773 5.19936 16.072 5.24575 16.1549 5.30917C16.2378 5.37258 16.3074 5.45178 16.3596 5.5422C16.4118 5.63262 16.4456 5.73247 16.4591 5.836C16.4725 5.93953 16.4654 6.04471 16.438 6.14546C16.4107 6.24622 16.3637 6.34057 16.2997 6.42309C16.2357 6.5056 16.1561 6.57465 16.0653 6.62625L15.2071 7.12183C15.056 7.20948 14.938 7.34467 14.8717 7.50634C14.8054 7.66801 14.7945 7.84708 14.8406 8.01562V8.01483Z" fill="#414B61"/>
</g>
<defs>
<clipPath id="clip0_745_102847">
<rect width="19" height="19" fill="white"/>
</clipPath>
</defs>
</svg>
