<svg width="31" height="19" viewBox="0 0 31 19" fill="none" xmlns="http://www.w3.org/2000/svg">
<g clip-path="url(#clip0_744_62644)">
<path d="M14.8634 18.4708L12.247 15.9165C12.0698 15.7435 11.976 15.5196 11.976 15.2753C11.976 15.0311 12.0698 14.8072 12.247 14.6342C12.4242 14.4612 12.6535 14.3696 12.9037 14.3696C13.1539 14.3696 13.3832 14.4612 13.5604 14.6342L15.2386 16.2727L15.2595 9.51529C15.2595 9.28123 15.3637 9.05734 15.5409 8.88433C15.7181 8.72151 15.9475 8.62992 16.1872 8.62992C16.427 8.62992 16.6667 8.72151 16.8335 8.89451C17.0107 9.05734 17.1045 9.2914 17.1045 9.52547L17.0837 16.3032L18.7932 14.6342C18.9704 14.4612 19.1997 14.3696 19.4499 14.3696C19.7001 14.3696 19.9294 14.4612 20.1066 14.6342C20.2838 14.8072 20.3776 15.0311 20.3776 15.2753C20.3776 15.5196 20.2838 15.7435 20.1066 15.9165L17.4902 18.4708C17.1462 18.8067 16.6771 19 16.1768 19C15.6869 19 15.2178 18.8067 14.8634 18.4708ZM3.99124 13.2196C3.13648 13.2196 2.31299 12.8838 1.70841 12.2935C1.10382 11.7033 0.770255 10.9095 0.770255 10.075L0.666016 8.66045C0.926613 -2.86982 30.3012 -2.88 30.666 8.58921L30.5513 10.1361C30.5409 10.9604 30.1969 11.744 29.5924 12.3241C28.9878 12.9042 28.1747 13.2298 27.3304 13.2196C27.2887 13.2196 24.1406 12.8227 24.1406 12.8227C23.3067 12.8024 22.5145 12.4666 21.9308 11.8967C21.347 11.3268 21.0031 10.5533 20.9926 9.73918L20.7737 7.85648C19.158 7.19499 17.4172 6.85916 15.666 6.85916C13.9148 6.85916 12.174 7.19499 10.5479 7.84631L10.329 9.73918C10.3081 10.5533 9.97456 11.3268 9.39082 11.8967C8.80709 12.4666 8.01487 12.8024 7.18096 12.8227C7.18096 12.8227 4.04336 13.2196 3.99124 13.2196ZM3.9287 11.1843C3.9287 11.1843 7.04545 10.7874 7.09756 10.7874C7.39986 10.7874 7.69173 10.6653 7.90021 10.4617C8.10868 10.2582 8.23377 9.97325 8.23377 9.67812C8.23377 9.63741 8.53606 7.03217 8.53606 7.03217C8.55691 6.85916 8.61945 6.68616 8.73412 6.54368C8.83836 6.40121 8.98429 6.28926 9.15107 6.21802C11.1942 5.30212 13.404 4.83399 15.6452 4.83399C17.8863 4.83399 20.1066 5.30212 22.1497 6.20785C22.3165 6.27909 22.4624 6.39103 22.5771 6.5335C22.6917 6.67598 22.7543 6.84898 22.7751 7.02199C22.7751 7.02199 23.0774 9.62724 23.0774 9.66794C23.0774 9.96307 23.2025 10.248 23.411 10.4516C23.6195 10.6551 23.9113 10.7772 24.2136 10.7772C24.2553 10.7772 27.3825 11.1741 27.3825 11.1741C27.6744 11.1538 27.9454 11.0316 28.1539 10.8281C28.3519 10.6246 28.4666 10.3498 28.4666 10.0648L28.5812 8.51797C27.7473 -0.41722 2.99055 0.274799 2.7508 8.58921L2.85504 10.0038C2.84461 10.2989 2.94885 10.594 3.1469 10.8077C3.34496 11.0316 3.63683 11.1639 3.93912 11.1843H3.9287Z" fill="#414B61"/>
</g>
<defs>
<clipPath id="clip0_744_62644">
<rect width="30" height="19" fill="white" transform="translate(0.666016)"/>
</clipPath>
</defs>
</svg>
