<svg width="13" height="17" viewBox="0 0 13 17" fill="none" xmlns="http://www.w3.org/2000/svg">
<g clip-path="url(#clip0_744_81639)">
<path d="M6.32753 4.85755C6.38384 4.8853 6.44015 4.90612 6.50349 4.90612C6.55276 4.90612 6.60907 4.89224 6.65834 4.87143C7.03138 4.69102 7.89711 4.17755 7.89711 3.25469V2.24857C7.89711 2.09592 7.79857 1.96408 7.65076 1.91551L6.60203 1.59632C6.53165 1.57551 6.46126 1.57551 6.39088 1.59632L5.30696 1.9502C5.15915 1.99877 5.06061 2.13755 5.06765 2.2902L5.09581 3.24775C5.09581 4.03877 5.87707 4.59387 6.34161 4.85061L6.32753 4.85755ZM6.49646 2.2902L7.19326 2.49836V3.24775C7.19326 3.68489 6.79911 3.9902 6.51757 4.14979C6.23603 3.96938 5.78557 3.62245 5.78557 3.23387L5.76446 2.52612L6.49646 2.28326V2.2902ZM12.4721 16.8269C12.2891 16.8269 12.1342 16.6882 12.1202 16.5008C12.0357 15.0784 11.3671 13.0384 10.2831 12.0739C10.1213 11.9351 9.88195 11.9351 9.73414 12.0878L6.75688 15.6612C6.68649 15.7375 6.58795 15.7861 6.48238 15.7861C6.3768 15.7861 6.27826 15.7375 6.20788 15.6612L3.22358 12.0669C3.09689 11.942 2.85054 11.9351 2.6957 12.0808C1.62585 13.0522 0.957202 15.0784 0.87274 16.5008C0.858664 16.6951 0.724933 16.8547 0.499703 16.8269C0.302627 16.8131 0.154819 16.6535 0.168896 16.4592C0.260396 14.8633 0.999432 12.6706 2.21708 11.5673C2.65347 11.1718 3.32212 11.1857 3.73739 11.602L6.47534 14.891L9.19922 11.6159C9.64264 11.1788 10.3113 11.1649 10.7406 11.5604C11.9724 12.6637 12.7114 14.8633 12.8029 16.4592C12.817 16.6535 12.6692 16.8131 12.4721 16.8269ZM1.71735 4.05959L2.27339 4.33714V6.41877C2.27339 8.71551 4.16673 10.582 6.49646 10.582C8.82618 10.582 10.7195 8.71551 10.7195 6.41877V4.33714L11.2756 4.05959C11.8034 3.80285 12.1272 3.28245 12.1272 2.70653C12.1272 2.03347 11.6697 1.42979 11.0081 1.24938L7.67187 0.31265C6.90468 0.125303 6.08119 0.125303 5.28584 0.326528L1.98481 1.24938C1.33024 1.43673 0.865702 2.03347 0.865702 2.70653C0.865702 3.28245 1.18947 3.80285 1.71735 4.05959ZM6.50349 9.88816C4.56088 9.88816 2.98427 8.33387 2.98427 6.41877V5.42653C3.92039 6.05796 5.18027 6.41877 6.50349 6.41877C8.18568 6.41877 9.33999 5.88449 10.0227 5.41265V6.41877C10.0227 8.33387 8.4461 9.88816 6.50349 9.88816ZM2.17485 1.91551L5.4618 0.99265C6.13749 0.826119 6.84134 0.826119 7.48888 0.978773L10.8181 1.90857C11.177 2.01265 11.4234 2.33183 11.4234 2.69959C11.4234 3.01183 11.2474 3.29632 10.9588 3.4351L10.2057 3.80285C10.2057 3.80285 10.0086 3.87224 10.0086 4.1151V4.51755C9.60041 4.8853 8.45314 5.71796 6.48942 5.71796C4.52569 5.71796 3.39954 4.91306 2.9702 4.53836C2.9702 4.53836 2.9702 4.16367 2.9702 4.14979C2.98427 4.01102 2.91389 3.87224 2.78016 3.80285L2.02704 3.4351C1.74551 3.29632 1.56955 3.01183 1.56955 2.69959C1.56955 2.33183 1.81589 2.01265 2.17485 1.90857V1.91551Z" fill="#414B61"/>
<path d="M0.556681 17.0003C0.556681 17.0003 0.514451 17.0003 0.486297 17.0003C0.204759 16.9864 -0.0134322 16.7366 0.000644638 16.4521C0.0991828 14.8215 0.852296 12.5803 2.11218 11.4423C2.61894 10.9843 3.39317 10.9982 3.87883 11.477L6.49009 14.6133L9.08023 11.5048C9.59404 10.9913 10.3612 10.9635 10.8821 11.4284C12.149 12.5594 12.9091 14.8076 13.0006 16.4452C13.0077 16.5839 12.9655 16.7158 12.8669 16.8199C12.8106 16.8823 12.7473 16.9309 12.6698 16.9586V16.9933H12.4728C12.1912 16.9933 11.966 16.7782 11.9449 16.5076C11.8604 15.1199 11.2129 13.1354 10.1712 12.1986C10.0797 12.1223 9.94596 12.1223 9.8615 12.1986L6.89832 15.7582C6.6942 16.0011 6.27893 16.0011 6.08186 15.7582L3.09052 12.1639C3.04125 12.1223 2.90752 12.1154 2.81602 12.1986C1.77433 13.1354 1.1268 15.1129 1.04937 16.5007C1.04233 16.6533 0.971949 16.7921 0.859334 16.8823C0.774873 16.9517 0.662258 16.9933 0.542605 16.9933L0.556681 17.0003ZM2.97791 11.4562C2.75268 11.4562 2.52744 11.5394 2.34445 11.699C1.15495 12.7676 0.444066 14.9117 0.352567 16.4729C0.352567 16.5701 0.422951 16.6533 0.521489 16.6533C0.577797 16.6533 0.620027 16.6533 0.648181 16.6256C0.683373 16.5978 0.704489 16.5492 0.711527 16.4868C0.795988 15.0366 1.48576 12.948 2.59079 11.9488C2.80898 11.7476 3.1609 11.7407 3.35798 11.9419L6.35636 15.5501C6.42674 15.6333 6.56047 15.6333 6.63086 15.5501L9.60108 11.9766C9.83335 11.7476 10.1782 11.7407 10.4035 11.9488C11.5155 12.948 12.2123 15.0366 12.2968 16.4937C12.2968 16.5839 12.3742 16.6533 12.4657 16.6603H12.4868C12.5361 16.6603 12.5783 16.6394 12.6065 16.6048C12.6346 16.5701 12.6558 16.5284 12.6487 16.4799C12.5572 14.9117 11.8393 12.7676 10.6428 11.699C10.2697 11.366 9.71369 11.3868 9.34066 11.7545L6.49009 15.1823L3.6184 11.7268C3.44244 11.5533 3.21721 11.4701 2.98494 11.4701L2.97791 11.4562ZM6.50416 10.7554C4.0759 10.7554 2.10514 8.81251 2.10514 6.41863V4.44108L1.64764 4.2121C1.06345 3.92761 0.69745 3.34475 0.69745 2.69945C0.69745 1.95006 1.21126 1.28394 1.94325 1.07577L5.23724 0.159855C6.06074 -0.0483081 6.91943 -0.0483081 7.71478 0.145978L11.0651 1.08271C11.7971 1.29088 12.3109 1.957 12.3109 2.70639C12.3109 3.35169 11.9449 3.92761 11.3607 4.21904L10.9032 4.44802V6.42557C10.9032 8.81945 8.93243 10.7623 6.50416 10.7623V10.7554ZM6.5112 0.347202C6.11705 0.347202 5.71586 0.395774 5.32874 0.492916L2.03475 1.41577C1.45056 1.5823 1.04937 2.10965 1.04937 2.70639C1.04937 3.21986 1.33795 3.67781 1.80249 3.90679L2.45706 4.22598V6.41169C2.45706 8.61128 4.27298 10.4015 6.50416 10.4015C8.73535 10.4015 10.5513 8.61128 10.5513 6.41169V4.22598L11.2058 3.89986C11.6704 3.67088 11.959 3.21292 11.959 2.69945C11.959 2.10271 11.5507 1.56843 10.9665 1.40883L7.62328 0.4721C7.26432 0.381896 6.89128 0.340263 6.5112 0.340263V0.347202ZM6.50416 10.0615C4.46302 10.0615 2.80898 8.43088 2.80898 6.41863V5.10026L3.08348 5.28761C4.00552 5.9121 5.21613 6.2521 6.50416 6.2521C8.1582 6.2521 9.27731 5.72475 9.92485 5.27373L10.1993 5.08639V6.42557C10.1993 8.43781 8.54531 10.0684 6.50416 10.0684V10.0615ZM3.1609 5.73863V6.41863C3.1609 8.23659 4.66009 9.71455 6.50416 9.71455C8.34824 9.71455 9.84742 8.23659 9.84742 6.41863V5.73169C9.13654 6.15496 8.03151 6.5921 6.50416 6.5921C5.27244 6.5921 4.09702 6.29373 3.1609 5.73863ZM6.50416 5.89822C4.47005 5.89822 3.28056 5.04475 2.86529 4.67006L2.80898 4.62149V4.54516C2.80898 4.54516 2.80898 4.20516 2.80898 4.16353C2.81602 4.06639 2.78083 3.997 2.71748 3.9623L1.96437 3.59455C1.61949 3.42802 1.40833 3.08108 1.40833 2.70639C1.40833 2.2623 1.71099 1.87373 2.14033 1.74883L5.42728 0.825978C6.13113 0.652508 6.86312 0.645569 7.54585 0.8121L10.8821 1.7419C11.3114 1.86679 11.6141 2.2623 11.6141 2.69945C11.6141 3.08108 11.4029 3.42108 11.058 3.58761L10.3049 3.95537C10.3049 3.95537 10.2064 4.00394 10.2064 4.10802V4.58679L10.1501 4.63537C9.73481 5.01006 8.54531 5.87741 6.5112 5.87741L6.50416 5.89822ZM3.1609 4.4619C3.59025 4.82271 4.68121 5.55128 6.50416 5.55128C8.32712 5.55128 9.41808 4.81577 9.84742 4.44802V4.1219C9.84742 3.83741 10.0445 3.69169 10.1571 3.65006L10.8891 3.28924C11.1143 3.17822 11.2551 2.95618 11.2551 2.70639C11.2551 2.41496 11.058 2.15822 10.7765 2.0819L7.44731 1.1521C6.82793 0.999447 6.15928 1.00639 5.51174 1.16598L2.23183 2.08884C1.95029 2.16516 1.75322 2.4219 1.75322 2.71332C1.75322 2.96312 1.89399 3.18516 2.11218 3.29618L2.86529 3.66394C3.06237 3.76108 3.17498 3.96924 3.15387 4.17741C3.15387 4.17741 3.15387 4.35781 3.15387 4.46883L3.1609 4.4619ZM6.50416 5.07251C6.41266 5.07251 6.32116 5.05169 6.24374 5.00312L6.22263 4.98924C5.7229 4.70475 4.90644 4.10802 4.90644 3.24761L4.87828 2.29006C4.87828 2.06108 5.01905 1.85292 5.24428 1.78353L6.3282 1.42965C6.43378 1.39496 6.54639 1.39496 6.64493 1.42965L7.7007 1.74883C7.92593 1.81822 8.07374 2.01945 8.07374 2.24843V3.25455C8.07374 4.27455 7.13762 4.83659 6.73643 5.02394C6.66605 5.05863 6.58159 5.07945 6.50416 5.07945V5.07251ZM6.42674 4.71169C6.47601 4.73251 6.53232 4.73251 6.58159 4.71169C6.91943 4.54516 7.72181 4.07332 7.72181 3.25455V2.24843C7.72181 2.1721 7.67254 2.10271 7.59512 2.0819L6.54639 1.76271C6.54639 1.76271 6.47601 1.75577 6.43378 1.76271L5.34986 2.11659C5.27948 2.13741 5.23021 2.20679 5.23021 2.28312L5.25836 3.24067C5.25836 3.94843 5.98332 4.45496 6.4197 4.69781H6.43378L6.42674 4.71169ZM6.5112 4.35781L6.4197 4.3023C6.04666 4.06639 5.61028 3.69169 5.61028 3.24067L5.58917 2.40802L6.49712 2.10965L7.36989 2.37332V3.24761C7.36989 3.75414 6.95462 4.10108 6.60974 4.3023L6.51824 4.35781H6.5112ZM5.94813 2.65088L5.9622 3.23373C5.9622 3.4419 6.16632 3.69863 6.51824 3.94843C6.76459 3.78884 7.01797 3.55292 7.01797 3.24761V2.62312L6.50416 2.46353L5.94813 2.64394V2.65088Z" fill="#414B61"/>
</g>
<defs>
<clipPath id="clip0_744_81639">
<rect width="13" height="17" fill="white"/>
</clipPath>
</defs>
</svg>
