<svg width="35" height="21" viewBox="0 0 35 21" fill="none" xmlns="http://www.w3.org/2000/svg">
<g clip-path="url(#clip0_744_62641)">
<path d="M10.5 10.5C11.5384 10.5 12.5534 10.1921 13.4167 9.61522C14.2801 9.03834 14.953 8.2184 15.3504 7.25909C15.7477 6.29978 15.8517 5.24418 15.6491 4.22578C15.4466 3.20738 14.9465 2.27192 14.2123 1.53769C13.4781 0.803466 12.5426 0.303452 11.5242 0.10088C10.5058 -0.101693 9.45022 0.00227475 8.49091 0.399635C7.5316 0.796995 6.71166 1.4699 6.13478 2.33326C5.55791 3.19662 5.25 4.21165 5.25 5.25C5.25139 6.64196 5.80496 7.97651 6.78922 8.96078C7.77349 9.94504 9.10804 10.4986 10.5 10.5ZM10.5 1.75C11.1922 1.75 11.8689 1.95527 12.4445 2.33986C13.0201 2.72444 13.4687 3.27107 13.7336 3.91061C13.9985 4.55015 14.0678 5.25388 13.9327 5.93282C13.7977 6.61175 13.4644 7.23539 12.9749 7.72488C12.4854 8.21436 11.8617 8.5477 11.1828 8.68275C10.5039 8.8178 9.80015 8.74849 9.16061 8.48358C8.52107 8.21867 7.97444 7.77007 7.58986 7.1945C7.20527 6.61893 7 5.94224 7 5.25C7 4.32174 7.36875 3.43151 8.02513 2.77513C8.6815 2.11875 9.57174 1.75 10.5 1.75Z" fill="#414B61"/>
<path d="M10.5 12.251C8.41213 12.2533 6.41044 13.0837 4.93409 14.5601C3.45774 16.0364 2.62732 18.0381 2.625 20.126C2.625 20.358 2.71719 20.5806 2.88128 20.7447C3.04538 20.9088 3.26794 21.001 3.5 21.001C3.73206 21.001 3.95462 20.9088 4.11872 20.7447C4.28281 20.5806 4.375 20.358 4.375 20.126C4.375 18.5015 5.02031 16.9436 6.16897 15.7949C7.31763 14.6463 8.87555 14.001 10.5 14.001C12.1245 14.001 13.6824 14.6463 14.831 15.7949C15.9797 16.9436 16.625 18.5015 16.625 20.126C16.625 20.358 16.7172 20.5806 16.8813 20.7447C17.0454 20.9088 17.2679 21.001 17.5 21.001C17.7321 21.001 17.9546 20.9088 18.1187 20.7447C18.2828 20.5806 18.375 20.358 18.375 20.126C18.3727 18.0381 17.5423 16.0364 16.0659 14.5601C14.5896 13.0837 12.5879 12.2533 10.5 12.251Z" fill="#414B61"/>
</g>
<g clip-path="url(#clip1_744_62641)">
<path d="M24.5 10.5C25.5384 10.5 26.5534 10.1921 27.4167 9.61522C28.2801 9.03834 28.953 8.2184 29.3504 7.25909C29.7477 6.29978 29.8517 5.24418 29.6491 4.22578C29.4466 3.20738 28.9465 2.27192 28.2123 1.53769C27.4781 0.803466 26.5426 0.303452 25.5242 0.10088C24.5058 -0.101693 23.4502 0.00227475 22.4909 0.399635C21.5316 0.796995 20.7117 1.4699 20.1348 2.33326C19.5579 3.19662 19.25 4.21165 19.25 5.25C19.2514 6.64196 19.805 7.97651 20.7892 8.96078C21.7735 9.94504 23.108 10.4986 24.5 10.5ZM24.5 1.75C25.1922 1.75 25.8689 1.95527 26.4445 2.33986C27.0201 2.72444 27.4687 3.27107 27.7336 3.91061C27.9985 4.55015 28.0678 5.25388 27.9327 5.93282C27.7977 6.61175 27.4644 7.23539 26.9749 7.72488C26.4854 8.21436 25.8617 8.5477 25.1828 8.68275C24.5039 8.8178 23.8001 8.74849 23.1606 8.48358C22.5211 8.21867 21.9744 7.77007 21.5899 7.1945C21.2053 6.61893 21 5.94224 21 5.25C21 4.32174 21.3687 3.43151 22.0251 2.77513C22.6815 2.11875 23.5717 1.75 24.5 1.75Z" fill="#414B61"/>
<path d="M24.5 12.251C22.4121 12.2533 20.4104 13.0837 18.9341 14.5601C17.4577 16.0364 16.6273 18.0381 16.625 20.126C16.625 20.358 16.7172 20.5806 16.8813 20.7447C17.0454 20.9088 17.2679 21.001 17.5 21.001C17.7321 21.001 17.9546 20.9088 18.1187 20.7447C18.2828 20.5806 18.375 20.358 18.375 20.126C18.375 18.5015 19.0203 16.9436 20.169 15.7949C21.3176 14.6463 22.8755 14.001 24.5 14.001C26.1245 14.001 27.6824 14.6463 28.831 15.7949C29.9797 16.9436 30.625 18.5015 30.625 20.126C30.625 20.358 30.7172 20.5806 30.8813 20.7447C31.0454 20.9088 31.2679 21.001 31.5 21.001C31.7321 21.001 31.9546 20.9088 32.1187 20.7447C32.2828 20.5806 32.375 20.358 32.375 20.126C32.3727 18.0381 31.5423 16.0364 30.0659 14.5601C28.5896 13.0837 26.5879 12.2533 24.5 12.251Z" fill="#414B61"/>
</g>
<defs>
<clipPath id="clip0_744_62641">
<rect width="21" height="21" fill="white"/>
</clipPath>
<clipPath id="clip1_744_62641">
<rect width="21" height="21" fill="white" transform="translate(14)"/>
</clipPath>
</defs>
</svg>
