<svg width="22" height="22" viewBox="0 0 22 22" fill="none" xmlns="http://www.w3.org/2000/svg">
<g clip-path="url(#clip0_744_62621)">
<mask id="mask0_744_62621" style="mask-type:luminance" maskUnits="userSpaceOnUse" x="0" y="0" width="22" height="22">
<path d="M22 0H0V22H22V0Z" fill="white"/>
</mask>
<g mask="url(#mask0_744_62621)">
<path d="M13.732 6.4377V2.77103C13.732 2.52791 13.8285 2.29476 14.0005 2.12285C14.1724 1.95094 14.4056 1.85436 14.6487 1.85436C14.8918 1.85436 15.125 1.95094 15.2969 2.12285C15.4687 2.29476 15.5653 2.52791 15.5653 2.77103V5.16445C16.1428 4.58328 19.8746 0.83228 20.4173 0.289613C20.5018 0.202062 20.603 0.132229 20.7148 0.0841869C20.8266 0.0361453 20.9469 0.010858 21.0686 0.00980023C21.1904 0.00874261 21.311 0.0319358 21.4237 0.0780266C21.5363 0.124118 21.6387 0.192183 21.7248 0.278251C21.8109 0.364319 21.8789 0.466667 21.925 0.579322C21.9711 0.691977 21.9943 0.812683 21.9932 0.934396C21.9922 1.05611 21.9669 1.1764 21.9189 1.28823C21.8708 1.40007 21.801 1.50122 21.7134 1.58578C21.1708 2.12845 17.4583 5.86203 16.8844 6.4377H19.232C19.4751 6.4377 19.7083 6.53428 19.8802 6.70618C20.0521 6.87809 20.1487 7.11125 20.1487 7.35436C20.1487 7.59748 20.0521 7.83064 19.8802 8.00255C19.7083 8.17445 19.4751 8.27103 19.232 8.27103H15.5653C15.0791 8.27103 14.6127 8.07788 14.269 7.73406C13.9252 7.39024 13.732 6.92392 13.732 6.4377ZM21.1524 15.3651C21.6836 15.8978 21.9819 16.6194 21.9819 17.3717C21.9819 18.124 21.6836 18.8456 21.1524 19.3783L20.3164 20.3408C12.808 27.5256 -5.45934 9.26375 1.61641 1.73245L2.67058 0.81578C3.20375 0.29928 3.91883 0.0134572 4.66112 0.0201476C5.40341 0.026838 6.11322 0.325504 6.63699 0.85153C6.66541 0.87903 8.36308 3.08636 8.36308 3.08636C8.86534 3.61669 9.1448 4.31963 9.14378 5.05005C9.14276 5.78047 8.86132 6.48261 8.35758 7.01153L7.29608 8.3462C7.88365 9.77351 8.7474 11.0706 9.83774 12.1631C10.928 13.2557 12.2235 14.122 13.6495 14.7124L14.9924 13.6445C15.5202 13.1394 16.2224 12.8571 16.953 12.8561C17.6836 12.8551 18.3865 13.1355 18.9158 13.639C18.9158 13.639 21.124 15.3376 21.1524 15.3651ZM19.892 16.6979C19.892 16.6979 17.6984 15.0094 17.67 14.9819C17.4812 14.7947 17.226 14.6897 16.9601 14.6897C16.6941 14.6897 16.4389 14.7947 16.2501 14.9819C16.2253 15.0058 14.3764 16.4798 14.3764 16.4798C14.2519 16.5789 14.1035 16.6439 13.9461 16.6684C13.7888 16.6928 13.6278 16.6758 13.479 16.6191C11.6305 15.9314 9.95141 14.8542 8.55566 13.4607C7.15992 12.0671 6.08009 10.3898 5.38941 8.54236C5.32818 8.39153 5.30821 8.22711 5.33158 8.06601C5.35494 7.9049 5.42078 7.75293 5.52233 7.6257C5.52233 7.6257 6.99633 5.77953 7.02108 5.7557C7.20833 5.56685 7.31339 5.31168 7.31339 5.04574C7.31339 4.77979 7.20833 4.52462 7.02108 4.33578C6.99358 4.30828 5.30508 2.11286 5.30508 2.11286C5.1134 1.941 4.86325 1.84895 4.60589 1.8556C4.34853 1.86225 4.10347 1.96708 3.92091 2.14861L2.86674 3.06528C-2.30509 9.283 13.5276 24.2375 18.9753 19.0913L19.8113 18.1279C20.0084 17.9471 20.1271 17.6964 20.1422 17.4293C20.1573 17.1622 20.0675 16.8999 19.892 16.6979Z" fill="#414B61"/>
</g>
</g>
<defs>
<clipPath id="clip0_744_62621">
<rect width="22" height="22" fill="white"/>
</clipPath>
</defs>
</svg>
