<svg width="15" height="15" viewBox="0 0 15 15" fill="none" xmlns="http://www.w3.org/2000/svg">
<g clip-path="url(#clip0_744_92341)">
<path d="M7.50039 4.37461C5.77715 4.37461 4.37529 5.77647 4.37529 7.49971C4.37529 9.22295 5.77715 10.6248 7.50039 10.6248C9.22363 10.6248 10.6255 9.22295 10.6255 7.49971C10.6255 5.77647 9.22363 4.37461 7.50039 4.37461ZM7.50039 9.37471C6.4665 9.37471 5.62539 8.53359 5.62539 7.49971C5.62539 6.46582 6.4665 5.62471 7.50039 5.62471C8.53428 5.62471 9.37539 6.46582 9.37539 7.49971C9.37539 8.53359 8.53428 9.37471 7.50039 9.37471ZM14.3755 6.87481H13.7192C13.4248 3.92666 11.0737 1.57471 8.12559 1.28115V0.624902C8.12559 0.279199 7.84551 0 7.50068 0C7.15586 0 6.87578 0.279492 6.87578 0.624902V1.28115C3.92764 1.575 1.57568 3.92666 1.28213 6.87481H0.625879C0.280762 6.87481 0.000976562 7.1543 0.000976562 7.49971C0.000976562 7.84512 0.281055 8.12461 0.625879 8.12461H1.28213C1.57656 11.0728 3.92764 13.4247 6.87578 13.7183V14.3745C6.87578 14.7202 7.15586 14.9994 7.50068 14.9994C7.84551 14.9994 8.12559 14.7199 8.12559 14.3745V13.7183C11.0737 13.4238 13.4257 11.0728 13.7192 8.12461H14.3755C14.7206 8.12461 15.0004 7.84512 15.0004 7.49971C15.0004 7.1543 14.7203 6.87481 14.3755 6.87481ZM7.50039 12.4998C4.74355 12.4998 2.50029 10.2565 2.50029 7.49971C2.50029 4.74287 4.74355 2.49961 7.50039 2.49961C10.2572 2.49961 12.5005 4.74287 12.5005 7.49971C12.5005 10.2565 10.2572 12.4998 7.50039 12.4998Z" fill="#414B61"/>
</g>
<defs>
<clipPath id="clip0_744_92341">
<rect width="15" height="15" fill="white"/>
</clipPath>
</defs>
</svg>
