<svg width="15" height="15" viewBox="0 0 15 15" fill="none" xmlns="http://www.w3.org/2000/svg">
<g clip-path="url(#clip0_744_92167)">
<path d="M14.375 7.5C14.0312 7.5 13.75 7.78125 13.75 8.125V10H9.94375L6.25 6.30625V1.25H6.875C7.21875 1.25 7.5 0.96875 7.5 0.625C7.5 0.28125 7.21875 0 6.875 0H3.125C1.4 0 0 1.4 0 3.125V11.875C0 13.6 1.4 15 3.125 15H11.875C13.6 15 15 13.6 15 11.875V8.125C15 7.78125 14.7188 7.5 14.375 7.5ZM3.125 1.25H5V6.1875L1.25 8.1875V3.125C1.25 2.09375 2.09375 1.25 3.125 1.25ZM1.25 11.875V9.60625L5.5125 7.33125L8.8625 10.6812L6.5625 13.75H3.125C2.09375 13.75 1.25 12.9062 1.25 11.875ZM11.875 13.75H8.125L10 11.25H13.75V11.875C13.75 12.9062 12.9062 13.75 11.875 13.75ZM10.2812 6.99375C10.6313 7.3375 11.1 7.5125 11.5625 7.5125C12.025 7.5125 12.4875 7.34375 12.8438 6.99375L13.9937 5.86875C14.6437 5.21875 15 4.35625 15 3.4375C15 2.51875 14.6437 1.65625 13.9937 1.00625C13.3438 0.35625 12.4812 0 11.5625 0C10.6438 0 9.78125 0.35625 9.13125 1.00625C8.48125 1.65625 8.125 2.51875 8.125 3.4375C8.125 4.35625 8.48125 5.21875 9.1375 5.875L10.2812 6.99375ZM10.0125 1.89375C10.425 1.48125 10.975 1.25 11.5625 1.25C12.15 1.25 12.6937 1.475 13.1125 1.89375C13.5312 2.3125 13.75 2.85625 13.75 3.4375C13.75 4.01875 13.525 4.56875 13.1125 4.98125L11.9688 6.1C11.7437 6.31875 11.3813 6.31875 11.1562 6.1L10.0188 4.9875C9.60625 4.575 9.38125 4.025 9.38125 3.44375C9.38125 2.8625 9.60625 2.3125 10.0188 1.9L10.0125 1.89375ZM10.625 3.43125C10.625 2.9125 11.0437 2.49375 11.5625 2.49375C12.0813 2.49375 12.5 2.9125 12.5 3.43125C12.5 3.95 12.0813 4.36875 11.5625 4.36875C11.0437 4.36875 10.625 3.95 10.625 3.43125Z" fill="#414B61"/>
</g>
<defs>
<clipPath id="clip0_744_92167">
<rect width="15" height="15" fill="white"/>
</clipPath>
</defs>
</svg>
