<svg width="18" height="18" viewBox="0 0 18 18" fill="none" xmlns="http://www.w3.org/2000/svg">
<g clip-path="url(#clip0_744_79944)">
<mask id="mask0_744_79944" style="mask-type:luminance" maskUnits="userSpaceOnUse" x="0" y="0" width="18" height="18">
<path d="M18 0H0V18H18V0Z" fill="white"/>
</mask>
<g mask="url(#mask0_744_79944)">
<path d="M11.9996 6.00035C11.8589 5.85974 11.6682 5.78076 11.4693 5.78076C11.2705 5.78076 11.0798 5.85974 10.9391 6.00035L8.99956 7.93986L7.06009 6.00035C6.91864 5.86373 6.72919 5.78813 6.53254 5.78984C6.33589 5.79155 6.14779 5.87043 6.00873 6.00949C5.86967 6.14854 5.79079 6.33665 5.78909 6.5333C5.78738 6.72995 5.86297 6.9194 5.99959 7.06085L7.93906 9.00036L5.99959 10.9399C5.86297 11.0813 5.78738 11.2708 5.78909 11.4674C5.79079 11.6641 5.86967 11.8522 6.00873 11.9912C6.14779 12.1303 6.33589 12.2092 6.53254 12.2109C6.72919 12.2125 6.91864 12.1369 7.06009 12.0004L8.99956 10.0609L10.9391 12.0004C11.0805 12.1369 11.27 12.2125 11.4666 12.2109C11.6633 12.2092 11.8514 12.1303 11.9905 11.9912C12.1295 11.8522 12.2084 11.6641 12.2101 11.4674C12.2118 11.2708 12.1362 11.0813 11.9996 10.9399L10.0601 9.00036L11.9996 7.06085C12.1402 6.92021 12.2192 6.72947 12.2192 6.5306C12.2192 6.33173 12.1402 6.14099 11.9996 6.00035Z" fill="#414B61"/>
<path d="M9 0C7.21997 0 5.47991 0.527841 3.99987 1.51677C2.51983 2.50571 1.36628 3.91132 0.685088 5.55585C0.00389971 7.20038 -0.174331 9.00997 0.172937 10.7558C0.520204 12.5017 1.37737 14.1053 2.63604 15.364C3.89471 16.6226 5.49836 17.4798 7.24419 17.827C8.99003 18.1743 10.7996 17.9961 12.4441 17.3149C14.0887 16.6337 15.4943 15.4801 16.4832 14.0001C17.4722 12.5201 18 10.7801 18 9C17.9974 6.61384 17.0484 4.32616 15.3611 2.63889C13.6739 0.951623 11.3861 0.00258081 9 0ZM9 16.5C7.51665 16.5 6.06659 16.0601 4.83323 15.236C3.59986 14.4119 2.63857 13.2406 2.07091 11.8701C1.50325 10.4997 1.35473 8.99168 1.64411 7.53683C1.9335 6.08197 2.64781 4.74559 3.6967 3.6967C4.74559 2.64781 6.08197 1.9335 7.53683 1.64411C8.99168 1.35473 10.4997 1.50325 11.8701 2.0709C13.2406 2.63856 14.4119 3.59986 15.236 4.83323C16.0601 6.06659 16.5 7.51665 16.5 9C16.4978 10.9885 15.707 12.8948 14.3009 14.3009C12.8948 15.707 10.9885 16.4978 9 16.5Z" fill="#414B61"/>
</g>
</g>
<defs>
<clipPath id="clip0_744_79944">
<rect width="18" height="18" fill="white"/>
</clipPath>
</defs>
</svg>
