<svg width="16" height="16" viewBox="0 0 16 16" fill="none" xmlns="http://www.w3.org/2000/svg">
<g clip-path="url(#clip0_744_62569)">
<mask id="mask0_744_62569" style="mask-type:luminance" maskUnits="userSpaceOnUse" x="0" y="0" width="16" height="16">
<path d="M16 0H0V16H16V0Z" fill="white"/>
</mask>
<g mask="url(#mask0_744_62569)">
<path d="M12.4974 13.5558C12.5557 13.6212 12.6007 13.6974 12.6295 13.7802C12.6584 13.863 12.6707 13.9506 12.6657 14.038C12.6607 14.1256 12.6385 14.2112 12.6003 14.2901C12.5622 14.369 12.5089 14.4396 12.4434 14.4978L11.3861 15.4405C11.2049 15.6198 10.9901 15.7616 10.7539 15.8576C10.5177 15.9536 10.2649 16.002 10.0101 15.9998C9.74565 16.0004 9.48379 15.9487 9.23945 15.8478C8.99505 15.7469 8.77305 15.5988 8.58605 15.4118L7.55672 14.4958C7.49132 14.4376 7.43799 14.3671 7.39985 14.2883C7.36172 14.2095 7.33952 14.1239 7.33439 14.0365C7.32419 13.86 7.38445 13.6866 7.50205 13.5545C7.61965 13.4224 7.78485 13.3425 7.96139 13.3322C8.04879 13.3272 8.13632 13.3394 8.21905 13.3681C8.30172 13.3969 8.37799 13.4416 8.44339 13.4998L9.33339 14.2958V9.33317C9.33339 9.15637 9.40359 8.98684 9.52865 8.86177C9.65365 8.73677 9.82325 8.6665 10.0001 8.6665C10.1769 8.6665 10.3465 8.73677 10.4715 8.86177C10.5965 8.98684 10.6667 9.15637 10.6667 9.33317V14.2965L11.5567 13.5018C11.6887 13.3844 11.8619 13.3241 12.0382 13.3342C12.2146 13.3444 12.3797 13.424 12.4974 13.5558ZM12.2374 4.90719C12.1229 4.87165 12.0191 4.80829 11.9351 4.72278C11.8511 4.63727 11.7895 4.53228 11.7561 4.41719C11.4031 3.28392 10.6821 2.30078 9.70732 1.62347C8.73259 0.946149 7.55972 0.613356 6.37451 0.677789C5.18928 0.742215 4.05942 1.20019 3.16383 1.97918C2.26824 2.75817 1.65811 3.81366 1.43004 4.97852C1.19603 6.15654 1.38488 7.3793 1.96337 8.43184C1.28901 8.78004 0.740645 9.3307 0.395318 10.0065C0.0499912 10.6824 -0.0749514 11.4494 0.0380403 12.1998C0.211808 13.0717 0.678585 13.8579 1.36085 14.4279C2.04312 14.9979 2.89983 15.3173 3.78871 15.3332H5.33337C5.51019 15.3332 5.67975 15.263 5.80478 15.1379C5.9298 15.0129 6.00004 14.8434 6.00004 14.6665C6.00004 14.4897 5.9298 14.3202 5.80478 14.1951C5.67975 14.0701 5.51019 13.9998 5.33337 13.9998H3.78871C3.21935 13.9889 2.67017 13.787 2.22937 13.4264C1.78856 13.066 1.48169 12.5678 1.35804 12.0118C1.28565 11.5342 1.36464 11.0459 1.58393 10.6155C1.80321 10.185 2.15178 9.8341 2.58071 9.61184C2.88643 9.4429 3.11333 9.1603 3.21227 8.8253C3.31121 8.4903 3.27425 8.12984 3.10937 7.82184C2.85051 7.32817 2.69771 6.78584 2.66075 6.22958C2.62379 5.67336 2.7035 5.11556 2.89477 4.59195C3.08603 4.06834 3.38463 3.59049 3.77141 3.18906C4.15818 2.78762 4.62459 2.47146 5.14073 2.26085C5.65686 2.05024 6.21131 1.94984 6.76852 1.96609C7.32572 1.98234 7.87339 2.11487 8.37639 2.35519C8.87939 2.59551 9.32658 2.93831 9.68932 3.3616C10.0521 3.7849 10.3223 4.27933 10.4827 4.81319C10.5814 5.135 10.7571 5.42784 10.9947 5.66625C11.2323 5.90466 11.5246 6.08143 11.8461 6.1812C12.7169 6.44619 13.4707 7.00164 13.9816 7.75504C14.4926 8.50837 14.7299 9.4141 14.6541 10.3212C14.6039 11.0266 14.3461 11.7013 13.9134 12.2605C13.8056 12.4008 13.758 12.578 13.7809 12.7534C13.8039 12.9287 13.8955 13.0878 14.0357 13.1955C14.1759 13.3033 14.3532 13.351 14.5285 13.328C14.7039 13.305 14.8629 13.2134 14.9707 13.0732C15.5581 12.3074 15.9101 11.3874 15.9841 10.4252C16.0847 9.21564 15.7677 8.00817 15.0859 7.00404C14.4042 5.99988 13.3987 5.25981 12.2374 4.90719Z" fill="#414B61"/>
</g>
</g>
<defs>
<clipPath id="clip0_744_62569">
<rect width="16" height="16" fill="white"/>
</clipPath>
</defs>
</svg>
