<svg width="15" height="15" viewBox="0 0 15 15" fill="none" xmlns="http://www.w3.org/2000/svg">
<g clip-path="url(#clip0_744_78964)">
<mask id="mask0_744_78964" style="mask-type:luminance" maskUnits="userSpaceOnUse" x="0" y="0" width="15" height="15">
<path d="M15 0H0V15H15V0Z" fill="white"/>
</mask>
<g mask="url(#mask0_744_78964)">
<path d="M11.875 2.5H9.375V1.875C9.375 1.37772 9.17744 0.900806 8.82581 0.549175C8.47419 0.197544 7.99725 0 7.5 0C7.00275 0 6.52581 0.197544 6.17418 0.549175C5.82254 0.900806 5.625 1.37772 5.625 1.875V2.5H3.125C2.29651 2.50099 1.50223 2.83055 0.916387 3.41639C0.330551 4.00222 0.000992413 4.79651 0 5.625V11.875C0.000992413 12.7035 0.330551 13.4978 0.916387 14.0836C1.50223 14.6694 2.29651 14.999 3.125 15H11.875C12.7035 14.999 13.4978 14.6694 14.0836 14.0836C14.6694 13.4978 14.999 12.7035 15 11.875V5.625C14.999 4.79651 14.6694 4.00222 14.0836 3.41639C13.4978 2.83055 12.7035 2.50099 11.875 2.5ZM6.875 1.875C6.875 1.70924 6.94088 1.55027 7.05806 1.43306C7.17525 1.31585 7.33425 1.25 7.5 1.25C7.66575 1.25 7.82475 1.31585 7.94194 1.43306C8.05912 1.55027 8.125 1.70924 8.125 1.875V3.125C8.125 3.29076 8.05912 3.44973 7.94194 3.56694C7.82475 3.68415 7.66575 3.75 7.5 3.75C7.33425 3.75 7.17525 3.68415 7.05806 3.56694C6.94088 3.44973 6.875 3.29076 6.875 3.125V1.875ZM13.75 11.875C13.75 12.3722 13.5524 12.8492 13.2008 13.2008C12.8492 13.5524 12.3722 13.75 11.875 13.75H3.125C2.62772 13.75 2.15081 13.5524 1.79918 13.2008C1.44754 12.8492 1.25 12.3722 1.25 11.875V5.625C1.25 5.12772 1.44754 4.65081 1.79918 4.29918C2.15081 3.94754 2.62772 3.75 3.125 3.75H5.74C5.86728 4.11534 6.1051 4.43202 6.42044 4.65611C6.73581 4.88019 7.11312 5.00059 7.5 5.00059C7.88688 5.00059 8.26419 4.88019 8.57956 4.65611C8.89487 4.43202 9.13275 4.11534 9.26 3.75H11.875C12.3722 3.75 12.8492 3.94754 13.2008 4.29918C13.5524 4.65081 13.75 5.12772 13.75 5.625V11.875ZM6.25 6.25H3.125C2.95924 6.25 2.80027 6.31588 2.68306 6.43306C2.56585 6.55025 2.5 6.70925 2.5 6.875V11.875C2.5 12.0407 2.56585 12.1997 2.68306 12.3169C2.80027 12.4341 2.95924 12.5 3.125 12.5H6.25C6.41575 12.5 6.57475 12.4341 6.69194 12.3169C6.80912 12.1997 6.875 12.0407 6.875 11.875V6.875C6.875 6.70925 6.80912 6.55025 6.69194 6.43306C6.57475 6.31588 6.41575 6.25 6.25 6.25ZM5.625 11.25H3.75V7.5H5.625V11.25ZM12.5 9.375C12.5 9.54075 12.4341 9.69975 12.3169 9.81694C12.1997 9.93412 12.0407 10 11.875 10H8.75C8.58425 10 8.42525 9.93412 8.30806 9.81694C8.19088 9.69975 8.125 9.54075 8.125 9.375C8.125 9.20925 8.19088 9.05025 8.30806 8.93306C8.42525 8.81588 8.58425 8.75 8.75 8.75H11.875C12.0407 8.75 12.1997 8.81588 12.3169 8.93306C12.4341 9.05025 12.5 9.20925 12.5 9.375ZM12.5 6.875C12.5 7.04075 12.4341 7.19975 12.3169 7.31694C12.1997 7.43412 12.0407 7.5 11.875 7.5H8.75C8.58425 7.5 8.42525 7.43412 8.30806 7.31694C8.19088 7.19975 8.125 7.04075 8.125 6.875C8.125 6.70925 8.19088 6.55025 8.30806 6.43306C8.42525 6.31588 8.58425 6.25 8.75 6.25H11.875C12.0407 6.25 12.1997 6.31588 12.3169 6.43306C12.4341 6.55025 12.5 6.70925 12.5 6.875ZM11.25 11.875C11.25 12.0407 11.1841 12.1997 11.0669 12.3169C10.9497 12.4341 10.7907 12.5 10.625 12.5H8.75C8.58425 12.5 8.42525 12.4341 8.30806 12.3169C8.19088 12.1997 8.125 12.0407 8.125 11.875C8.125 11.7093 8.19088 11.5503 8.30806 11.4331C8.42525 11.3159 8.58425 11.25 8.75 11.25H10.625C10.7907 11.25 10.9497 11.3159 11.0669 11.4331C11.1841 11.5503 11.25 11.7093 11.25 11.875Z" fill="#414B61"/>
</g>
</g>
<defs>
<clipPath id="clip0_744_78964">
<rect width="15" height="15" fill="white"/>
</clipPath>
</defs>
</svg>
