<svg width="15" height="15" viewBox="0 0 15 15" fill="none" xmlns="http://www.w3.org/2000/svg">
<g clip-path="url(#clip0_744_72765)">
<mask id="mask0_744_72765" style="mask-type:luminance" maskUnits="userSpaceOnUse" x="0" y="0" width="15" height="15">
<path d="M15 0H0V15H15V0Z" fill="white"/>
</mask>
<g mask="url(#mask0_744_72765)">
<path d="M10.625 8.75C10.625 8.91575 10.5592 9.07475 10.442 9.19194C10.3247 9.30919 10.1658 9.375 10 9.375H5C4.83424 9.375 4.67527 9.30919 4.55806 9.19194C4.44085 9.07475 4.375 8.91575 4.375 8.75C4.375 8.58425 4.44085 8.42531 4.55806 8.30806C4.67527 8.19088 4.83424 8.125 5 8.125H10C10.1658 8.125 10.3247 8.19088 10.442 8.30806C10.5592 8.42531 10.625 8.58425 10.625 8.75ZM8.12503 10.625H5C4.83424 10.625 4.67527 10.6909 4.55806 10.8081C4.44085 10.9253 4.375 11.0843 4.375 11.25C4.375 11.4157 4.44085 11.5747 4.55806 11.6919C4.67527 11.8092 4.83424 11.875 5 11.875H8.12503C8.29078 11.875 8.44972 11.8092 8.56697 11.6919C8.68416 11.5747 8.75003 11.4157 8.75003 11.25C8.75003 11.0843 8.68416 10.9253 8.56697 10.8081C8.44972 10.6909 8.29078 10.625 8.12503 10.625ZM13.75 6.55312V11.875C13.749 12.7035 13.4195 13.4978 12.8336 14.0836C12.2478 14.6694 11.4535 14.999 10.625 15H4.375C3.54651 14.999 2.75223 14.6694 2.16639 14.0836C1.58055 13.4978 1.25099 12.7035 1.25 11.875V3.12501C1.25099 2.29652 1.58055 1.50224 2.16639 0.9164C2.75223 0.330566 3.54651 0.00100682 4.375 1.44054e-05H7.19691C7.77166 -0.00146492 8.34097 0.111007 8.87203 0.330926C9.40303 0.550846 9.88522 0.87385 10.2907 1.28126L12.4682 3.46001C12.8758 3.86516 13.199 4.34717 13.419 4.87812C13.639 5.40907 13.7515 5.97841 13.75 6.55312ZM9.40691 2.16501C9.21016 1.97449 8.98934 1.81059 8.75003 1.67751V4.37501C8.75003 4.54077 8.81584 4.69974 8.93303 4.81696C9.05028 4.93417 9.20922 5.00001 9.37503 5.00001H12.0725C11.9393 4.76076 11.7752 4.54011 11.5844 4.34376L9.40691 2.16501ZM12.5 6.55312C12.5 6.45 12.48 6.35125 12.4707 6.25H9.37503C8.87772 6.25 8.40078 6.05247 8.04916 5.70084C7.69753 5.34921 7.50003 4.87229 7.50003 4.37501V1.27939C7.39878 1.27001 7.29941 1.25001 7.19691 1.25001H4.375C3.87772 1.25001 3.40081 1.44756 3.04918 1.79919C2.69754 2.15082 2.5 2.62773 2.5 3.12501V11.875C2.5 12.3723 2.69754 12.8492 3.04918 13.2008C3.40081 13.5525 3.87772 13.75 4.375 13.75H10.625C11.1223 13.75 11.5992 13.5525 11.9508 13.2008C12.3025 12.8492 12.5 12.3723 12.5 11.875V6.55312Z" fill="#414B61"/>
</g>
</g>
<defs>
<clipPath id="clip0_744_72765">
<rect width="15" height="15" fill="white"/>
</clipPath>
</defs>
</svg>
