<svg width="20" height="20" viewBox="0 0 20 20" fill="none" xmlns="http://www.w3.org/2000/svg">
<g clip-path="url(#clip0_744_71634)">
<mask id="mask0_744_71634" style="mask-type:luminance" maskUnits="userSpaceOnUse" x="0" y="0" width="20" height="20">
<path d="M20 0H0V20H20V0Z" fill="white"/>
</mask>
<g mask="url(#mask0_744_71634)">
<path d="M19.0442 0.956624C18.4776 0.390959 17.7098 0.0732422 16.9092 0.0732422C16.1086 0.0732422 15.3407 0.390959 14.7742 0.956624L1.22084 14.5099C0.832722 14.8959 0.524981 15.3549 0.315427 15.8606C0.105874 16.3663 -0.00133165 16.9084 1.24844e-05 17.4558V19.1666C1.24844e-05 19.3876 0.0878097 19.5996 0.244091 19.7559C0.400371 19.9122 0.612332 19.9999 0.833344 19.9999H2.54418C3.09148 20.0015 3.63365 19.8944 4.13931 19.685C4.64496 19.4756 5.10406 19.168 5.49001 18.7799L19.0442 5.22579C19.6096 4.65929 19.9271 3.8916 19.9271 3.09121C19.9271 2.29082 19.6096 1.52313 19.0442 0.956624ZM4.31168 17.6016C3.84169 18.0685 3.20665 18.3314 2.54418 18.3333H1.66668V17.4558C1.66584 17.1274 1.73014 16.802 1.85588 16.4987C1.98161 16.1953 2.16628 15.9199 2.39918 15.6883L12.6851 5.40246L14.6017 7.31913L4.31168 17.6016ZM17.8651 4.04746L15.7767 6.13662L13.8601 4.22412L15.9492 2.13496C16.0751 2.00938 16.2244 1.90982 16.3887 1.84197C16.5531 1.77412 16.7291 1.73928 16.9069 1.73948C17.0847 1.73967 17.2607 1.77488 17.4249 1.8431C17.5891 1.91131 17.7382 2.01119 17.8638 2.13704C17.9893 2.26289 18.0889 2.41225 18.1567 2.57657C18.2246 2.7409 18.2595 2.91698 18.2592 3.09477C18.2591 3.27256 18.2238 3.44856 18.1556 3.61274C18.0874 3.77692 17.9876 3.92605 17.8617 4.05162L17.8651 4.04746Z" fill="#414B61"/>
</g>
</g>
<defs>
<clipPath id="clip0_744_71634">
<rect width="20" height="20" fill="white"/>
</clipPath>
</defs>
</svg>
