<svg width="22" height="22" viewBox="0 0 22 22" fill="none" xmlns="http://www.w3.org/2000/svg">
<g clip-path="url(#clip0_744_80412)">
<mask id="mask0_744_80412" style="mask-type:luminance" maskUnits="userSpaceOnUse" x="0" y="0" width="22" height="22">
<path d="M22 0H0V22H22V0Z" fill="white"/>
</mask>
<g mask="url(#mask0_744_80412)">
<path d="M17.4167 0.916504H4.58333C3.36821 0.917963 2.20326 1.40131 1.34404 2.26054C0.484809 3.11977 0.00145554 4.28471 0 5.49984V16.4999C0.00145554 17.715 0.484809 18.8799 1.34404 19.7392C2.20326 20.5984 3.36821 21.0817 4.58333 21.0832H17.4167C18.6318 21.0817 19.7967 20.5984 20.656 19.7392C21.5152 18.8799 21.9985 17.715 22 16.4999V5.49984C21.9985 4.28471 21.5152 3.11977 20.656 2.26054C19.7967 1.40131 18.6318 0.917963 17.4167 0.916504ZM4.58333 2.74984H17.4167C17.9656 2.75092 18.5015 2.91622 18.9558 3.22449C19.4099 3.53276 19.7614 3.96987 19.965 4.47959L12.9452 11.5004C12.4285 12.0149 11.7291 12.3037 11 12.3037C10.2709 12.3037 9.57147 12.0149 9.05483 11.5004L2.035 4.47959C2.23864 3.96987 2.59014 3.53276 3.0443 3.22449C3.49844 2.91622 4.03444 2.75092 4.58333 2.74984ZM17.4167 19.2499H4.58333C3.85399 19.2499 3.15452 18.9601 2.63879 18.4444C2.12306 17.9287 1.83333 17.2292 1.83333 16.4999V6.87484L7.75867 12.7965C8.61908 13.6547 9.78477 14.1367 11 14.1367C12.2152 14.1367 13.381 13.6547 14.2413 12.7965L20.1667 6.87484V16.4999C20.1667 17.2292 19.8769 17.9287 19.3612 18.4444C18.8455 18.9601 18.146 19.2499 17.4167 19.2499Z" fill="#6E7894"/>
</g>
</g>
<defs>
<clipPath id="clip0_744_80412">
<rect width="22" height="22" fill="white"/>
</clipPath>
</defs>
</svg>
