<svg width="16" height="16" viewBox="0 0 16 16" fill="none" xmlns="http://www.w3.org/2000/svg">
<g clip-path="url(#clip0_744_81625)">
<mask id="mask0_744_81625" style="mask-type:luminance" maskUnits="userSpaceOnUse" x="0" y="0" width="16" height="16">
<path d="M16 0H0V16H16V0Z" fill="white"/>
</mask>
<g mask="url(#mask0_744_81625)">
<path d="M7.99966 10.0005C7.82286 10.0005 7.65333 9.93027 7.52826 9.80521C7.40326 9.68021 7.333 9.51061 7.333 9.33381V4.00049C7.333 3.82367 7.40326 3.65411 7.52826 3.52908C7.65333 3.40405 7.82286 3.33382 7.99966 3.33382C8.17646 3.33382 8.34606 3.40405 8.47106 3.52908C8.59613 3.65411 8.66633 3.82367 8.66633 4.00049V9.33381C8.66633 9.51061 8.59613 9.68021 8.47106 9.80521C8.34606 9.93027 8.17646 10.0005 7.99966 10.0005ZM8.52833 15.8405C9.96833 15.2618 14.6663 12.9865 14.6663 8.02914V4.58182C14.6671 3.88116 14.4467 3.19813 14.0366 2.63003C13.6265 2.06192 13.0476 1.63771 12.3823 1.41782L8.20966 0.0344841C8.07346 -0.0114947 7.92593 -0.0114947 7.78966 0.0344841L3.61702 1.41782C2.95176 1.63771 2.37284 2.06192 1.96275 2.63003C1.55265 3.19813 1.33228 3.88116 1.33301 4.58182V8.02914C1.33301 12.4038 6.00302 15.0798 7.435 15.7958C7.61613 15.8823 7.80526 15.9508 7.99966 16.0005C8.18046 15.9635 8.3574 15.9099 8.52833 15.8405ZM11.9623 2.68315C12.3614 2.81543 12.7085 3.07007 12.9546 3.41091C13.2007 3.75175 13.3331 4.16145 13.333 4.58182V8.02914C13.333 12.1511 9.275 14.1031 8.031 14.6031C6.77233 13.9738 2.66635 11.6398 2.66635 8.02914V4.58182C2.66629 4.16145 2.7987 3.75175 3.04475 3.41091C3.2908 3.07007 3.638 2.81543 4.03702 2.68315L7.99966 1.36982L11.9623 2.68315ZM7.99966 11.3338C7.8678 11.3338 7.73893 11.3729 7.62933 11.4461C7.51966 11.5194 7.4342 11.6235 7.38373 11.7453C7.33333 11.8672 7.32013 12.0012 7.3458 12.1305C7.37153 12.2599 7.43506 12.3787 7.52826 12.4719C7.62153 12.5651 7.74033 12.6286 7.8696 12.6543C7.99893 12.6801 8.133 12.6669 8.2548 12.6164C8.3766 12.5659 8.48073 12.4805 8.554 12.3709C8.62726 12.2612 8.66633 12.1323 8.66633 12.0005C8.66633 11.8237 8.59613 11.6541 8.47106 11.5291C8.34606 11.4041 8.17646 11.3338 7.99966 11.3338Z" fill="#414B61"/>
</g>
</g>
<defs>
<clipPath id="clip0_744_81625">
<rect width="16" height="16" fill="white"/>
</clipPath>
</defs>
</svg>
