<svg width="20" height="25" viewBox="0 0 20 25" fill="none" xmlns="http://www.w3.org/2000/svg">
<g clip-path="url(#clip0_744_62674)">
<path d="M19.6204 9.977C19.6204 13.0167 18.2211 15.8102 15.7809 17.6395C14.6201 18.5113 13.6547 19.7297 12.9138 21.2612C12.4584 22.2035 11.7843 22.9915 10.911 23.6048C9.94231 24.2848 8.81093 24.621 7.66058 24.621C6.33092 24.621 4.97659 24.1706 3.82196 23.2794C2.37086 22.16 1.56538 20.7568 1.42544 19.1103C1.40219 18.8323 1.60854 18.587 1.887 18.5638C2.13699 18.5335 2.41118 18.7457 2.43348 19.0246C2.54875 20.3785 3.22378 21.541 4.44007 22.4806C6.23652 23.8666 8.60221 23.9888 10.328 22.7784C11.0585 22.2651 11.6211 21.6064 12.0006 20.8217C12.8123 19.1425 13.8777 17.8 15.1704 16.8311C17.3544 15.1936 18.6072 12.6942 18.6072 9.97558C18.6072 7.53397 17.5607 5.19938 15.7353 3.5718C13.8843 1.92006 11.4949 1.16144 9.00543 1.44509C5.18009 1.8746 2.01982 4.94603 1.48948 8.74862C1.41073 9.31735 1.36899 10.371 1.40267 10.9582C1.41879 11.2362 1.20628 11.4753 0.926871 11.4914C0.62517 11.5094 0.408856 11.2944 0.392728 11.0164C0.355252 10.3658 0.399843 9.24158 0.488077 8.60987C1.08057 4.35788 4.61559 0.922296 8.89347 0.442119C11.6776 0.130998 14.344 0.975334 16.4118 2.82028C18.4511 4.63964 19.6209 7.24937 19.6209 9.97795V9.977H19.6204ZM10.0064 5.43189C12.5172 5.43189 14.5603 7.47146 14.5603 9.97795C14.5603 10.2569 14.7871 10.4832 15.0665 10.4832C15.3459 10.4832 15.5726 10.2569 15.5726 9.97795C15.5726 6.91409 13.0751 4.42181 10.0068 4.42181C7.14873 4.42181 4.75648 6.5452 4.44102 9.41537V9.61521C4.44102 10.6499 5.28493 11.4924 6.32143 11.4924C7.42861 11.4924 8.37594 12.2884 8.47887 13.3027C8.58418 14.3554 7.8769 15.3395 6.8698 15.5436C6.59562 15.599 6.41962 15.866 6.47418 16.1397C6.52399 16.3794 6.73413 16.5437 6.96895 16.5437C7.00215 16.5437 7.03678 16.5408 7.07094 16.5337C8.57992 16.2278 9.64061 14.765 9.48454 13.2019C9.33179 11.6775 7.94236 10.4832 6.32096 10.4823C5.84137 10.4823 5.45285 10.0935 5.45285 9.61568L5.45001 9.47125C5.70617 7.16792 7.66438 5.43142 10.0068 5.43142V5.43236L10.0064 5.43189Z" fill="#414B61"/>
<path d="M7.66078 24.7873C6.26992 24.7873 4.871 24.2986 3.72065 23.4112C2.23207 22.2629 1.40429 20.8209 1.26055 19.1247C1.22972 18.7562 1.50296 18.4314 1.8706 18.3992C2.0352 18.3798 2.20977 18.4347 2.35019 18.5493C2.49439 18.6672 2.58547 18.8358 2.59971 19.0115C2.71071 20.3166 3.36439 21.4398 4.54273 22.3495C6.28273 23.692 8.56968 23.8099 10.2333 22.6431C10.9401 22.1468 11.4847 21.5099 11.8519 20.7499C12.6754 19.0456 13.7588 17.6827 15.0714 16.6992C17.2132 15.0929 18.4418 12.6427 18.4418 9.9762C18.4418 7.58052 17.4153 5.29186 15.625 3.69601C13.8063 2.07316 11.4624 1.33253 9.0246 1.61051C5.27374 2.03102 2.17419 5.04278 1.65428 8.77149C1.57649 9.33217 1.53569 10.3697 1.56842 10.9484C1.57886 11.1269 1.51909 11.2988 1.39954 11.4328C1.28 11.5668 1.11587 11.6464 0.936557 11.6568C0.752501 11.6677 0.579355 11.6104 0.448903 11.4944C0.316553 11.377 0.237807 11.2107 0.226897 11.0261C0.188947 10.3669 0.234012 9.22752 0.323194 8.58728C0.92707 4.26048 4.52328 0.765696 8.8747 0.277942C11.7034 -0.0379139 14.4192 0.821102 16.5221 2.6973C18.5965 4.54792 19.7862 7.20168 19.7867 9.97715V9.97809C19.7867 13.0704 18.3626 15.9112 15.8807 17.7722C14.7398 18.6289 13.792 19.8274 13.0634 21.3333C12.5961 22.3003 11.904 23.1105 11.0065 23.7403C10.0312 24.4251 8.87422 24.7869 7.66031 24.7869L7.66078 24.7873ZM1.93511 18.7274C1.92562 18.7274 1.91661 18.7278 1.90712 18.7293H1.90096C1.71453 18.7454 1.57554 18.9101 1.59119 19.0977C1.72686 20.6968 2.51147 22.0602 3.92368 23.1493C5.01568 23.9923 6.34298 24.4563 7.66078 24.4563C8.80591 24.4563 9.89697 24.1154 10.8158 23.4704C11.6664 22.8733 12.322 22.1061 12.7645 21.1903C13.5164 19.6361 14.4974 18.3973 15.6815 17.508C18.0794 15.7099 19.4546 12.9657 19.4546 9.97809C19.4546 7.29639 18.3052 4.7326 16.301 2.94449C14.2693 1.13175 11.6455 0.30162 8.91217 0.607058C4.70876 1.07871 1.23494 4.45416 0.652408 8.63322C0.565598 9.25641 0.521482 10.3659 0.558483 11.0071C0.564175 11.1032 0.603548 11.1885 0.669486 11.2467C0.734475 11.3045 0.820336 11.3315 0.917108 11.3258C1.00819 11.3206 1.0912 11.2803 1.15145 11.2126C1.21169 11.1449 1.24205 11.0578 1.23683 10.9673C1.20315 10.3711 1.2449 9.30281 1.32507 8.72556C1.86585 4.84957 5.08826 1.71847 8.98712 1.28092C11.5203 0.992052 13.9562 1.76204 15.8461 3.44882C17.7066 5.10718 18.7734 7.48628 18.7734 9.9762C18.7734 12.7479 17.4964 15.2946 15.2702 16.9643C14.0003 17.9162 12.951 19.2383 12.1502 20.8943C11.7579 21.7055 11.1768 22.3855 10.4235 22.9145C8.63988 24.1656 6.1945 24.0439 4.33875 22.6119C3.08404 21.643 2.38766 20.4407 2.26812 19.039C2.261 18.9518 2.21452 18.8671 2.13956 18.806C2.07742 18.7553 2.00295 18.7269 1.93511 18.7269V18.7274ZM6.96867 16.7096C6.65227 16.7096 6.37571 16.4842 6.31119 16.173C6.23861 15.8094 6.47438 15.4542 6.83632 15.3813C7.76135 15.1937 8.40981 14.2883 8.31304 13.3194C8.21817 12.388 7.34295 11.6582 6.32068 11.6582C5.19215 11.6582 4.27424 10.7419 4.27424 9.61535L4.27519 9.39705C4.4322 7.9712 5.10107 6.66468 6.15892 5.71853C7.21392 4.77522 8.58011 4.25574 10.0061 4.25574C13.1668 4.25574 15.7379 6.82284 15.7379 9.97762C15.7379 10.3475 15.4367 10.6486 15.0657 10.6486C14.6948 10.6486 14.3935 10.3479 14.3935 9.97762C14.3935 7.56253 12.4249 5.5973 10.0056 5.5973H9.9093C7.69873 5.64418 5.86291 7.29592 5.61481 9.47803L5.61766 9.61157C5.61766 10.0018 5.93264 10.3162 6.31973 10.3162C8.0251 10.3172 9.48711 11.5773 9.6484 13.185C9.81253 14.8305 8.69444 16.3729 7.10244 16.6958C7.05928 16.7048 7.01374 16.7091 6.96725 16.7091L6.96867 16.7096ZM4.60677 9.42499V9.61583C4.60677 10.5596 5.37573 11.3272 6.32115 11.3272C7.51183 11.3272 8.5322 12.1877 8.64368 13.2868C8.75753 14.4228 7.99237 15.4859 6.90226 15.7066C6.71868 15.7435 6.59961 15.9235 6.63661 16.1077C6.66887 16.264 6.80881 16.3786 6.96867 16.3786C6.99239 16.3786 7.01564 16.3762 7.03746 16.3719C8.46484 16.0826 9.46671 14.6975 9.31919 13.2191C9.17498 11.779 7.85765 10.6496 6.32068 10.6486C5.75048 10.6486 5.28655 10.1855 5.28655 9.6163L5.28323 9.46429L5.28465 9.4534C5.54983 7.06625 7.58014 5.26582 10.0065 5.26582H10.1726V5.26961C12.6986 5.35721 14.7266 7.43609 14.7266 9.97857C14.7266 10.1656 14.8788 10.3181 15.0667 10.3181C15.2545 10.3181 15.4068 10.1661 15.4068 9.97857C15.4068 7.00611 12.9842 4.58817 10.007 4.58817C8.66313 4.58817 7.37521 5.07782 6.3814 5.9662C5.38664 6.85599 4.75668 8.0839 4.60677 9.42499Z" fill="#414B61"/>
<path d="M7.66086 24.8346C6.25957 24.8346 4.85021 24.3426 3.69179 23.4486C2.1923 22.2917 1.35836 20.8384 1.2132 19.1289C1.17999 18.7349 1.47268 18.3873 1.86546 18.3522C2.0424 18.3319 2.22978 18.3906 2.37968 18.5128C2.53385 18.6387 2.6311 18.8192 2.64628 19.0081C2.75633 20.299 3.40385 21.4114 4.5708 22.3125C6.2942 23.6422 8.55837 23.7597 10.2054 22.6047C10.9056 22.1132 11.4449 21.4819 11.8088 20.7295C12.6361 19.0185 13.7238 17.6495 15.0426 16.6612C17.1725 15.0639 18.394 12.6275 18.394 9.97614C18.394 7.59419 17.3732 5.31785 15.5933 3.73099C13.785 2.11714 11.4539 1.38077 9.0299 1.65732C5.30039 2.07594 2.21839 5.07065 1.70133 8.77806C1.624 9.3359 1.58321 10.3697 1.61594 10.946C1.62685 11.1368 1.56281 11.321 1.4352 11.4645C1.3076 11.608 1.13113 11.6932 0.939485 11.7041C0.743095 11.7159 0.557615 11.6539 0.417675 11.5298C0.275838 11.4039 0.1914 11.2263 0.180015 11.0288C0.142065 10.3673 0.18713 9.22367 0.276787 8.58059C0.883034 4.23295 4.4968 0.72112 8.86956 0.230524C11.7115 -0.0872263 14.4406 0.776051 16.5539 2.66172C18.6383 4.52134 19.8337 7.18789 19.8342 9.97708V9.97803C19.8342 13.0854 18.4035 15.94 15.9092 17.81C14.7745 18.6624 13.8315 19.8548 13.1062 21.3541C12.6351 22.3286 11.9383 23.1445 11.0341 23.7796C10.0507 24.47 8.88427 24.8346 7.66086 24.8346ZM1.93567 18.7742C1.92808 18.7742 1.92049 18.7742 1.91337 18.7756L1.90531 18.7765C1.74497 18.7898 1.62543 18.9319 1.63871 19.0929C1.77296 20.6783 2.55188 22.0308 3.9527 23.1114C5.03664 23.9477 6.35349 24.4084 7.66086 24.4084C8.79603 24.4084 9.8776 24.0703 10.7884 23.431C11.6323 22.8386 12.2827 22.0776 12.7215 21.1689C13.4767 19.6076 14.4629 18.3631 15.6526 17.4696C18.0387 15.6805 19.4068 12.95 19.4068 9.97756C19.4068 7.30911 18.2631 4.75859 16.2688 2.97947C14.248 1.17573 11.637 0.349858 8.91747 0.654349C4.73541 1.12316 1.27913 4.48156 0.699452 8.63931C0.613117 9.26013 0.569474 10.3649 0.606001 11.0042C0.610745 11.0876 0.644425 11.161 0.700875 11.2111C0.756377 11.2604 0.830379 11.2836 0.914343 11.2784C0.992614 11.2737 1.06424 11.2391 1.11643 11.1808C1.16813 11.1226 1.19422 11.0478 1.18995 10.9701C1.1558 10.3715 1.19802 9.29896 1.27866 8.71934C1.82182 4.82204 5.06178 1.6739 8.98199 1.23397C11.5284 0.943213 13.9776 1.71746 15.8779 3.41324C17.7484 5.0806 18.8209 7.47296 18.8209 9.97614C18.8209 12.763 17.5373 15.3234 15.2987 17.0022C14.035 17.9493 12.9904 19.2657 12.193 20.9146C11.7974 21.7334 11.2111 22.4191 10.4506 22.9532C8.64993 24.2162 6.18177 24.0945 4.30942 22.6497C3.0438 21.6723 2.34125 20.4591 2.22029 19.0432C2.21412 18.9683 2.1738 18.8959 2.10881 18.8428C2.05521 18.7993 1.99164 18.7746 1.93472 18.7746L1.93567 18.7742ZM6.96875 16.7564C6.62958 16.7564 6.33357 16.5149 6.26478 16.1824C6.18699 15.7927 6.43935 15.4129 6.82692 15.3343C7.72822 15.1515 8.36056 14.2684 8.26616 13.3236C8.17366 12.4163 7.31931 11.7051 6.32076 11.7051C5.16614 11.7051 4.22688 10.7674 4.22688 9.61482L4.22831 9.3913C4.38627 7.95361 5.06083 6.63668 6.12769 5.68295C7.19123 4.73207 8.56881 4.20785 10.0066 4.20785C13.1935 4.20785 15.7859 6.79579 15.7859 9.97708C15.7859 10.373 15.4633 10.6955 15.0663 10.6955C14.6692 10.6955 14.3467 10.3734 14.3467 9.97708C14.3467 7.58803 12.3994 5.64412 10.0062 5.64412H9.91033C7.72443 5.69053 5.90948 7.32285 5.66281 9.47986L5.66565 9.61008C5.66565 9.97519 5.95929 10.2683 6.32029 10.2683C8.04985 10.2693 9.53273 11.5483 9.69639 13.1797C9.8629 14.8494 8.7282 16.414 7.11296 16.7417C7.06695 16.7512 7.01761 16.7559 6.96828 16.7559L6.96875 16.7564ZM4.65429 9.42682V9.61529C4.65429 10.5326 5.4019 11.2793 6.32123 11.2793C7.5361 11.2793 8.57687 12.1587 8.6912 13.281C8.80742 14.4412 8.02565 15.5266 6.9123 15.752C6.75434 15.7837 6.65187 15.939 6.68365 16.0977C6.71164 16.2317 6.83166 16.3302 6.96923 16.3302C6.9901 16.3302 7.01002 16.3283 7.02852 16.3245C8.43219 16.0399 9.41794 14.677 9.27278 13.2228C9.13094 11.8064 7.83448 10.6959 6.32171 10.695C5.72542 10.695 5.24014 10.2105 5.24014 9.61529L5.23682 9.46139L5.23824 9.44766C5.50626 7.03635 7.5565 5.21793 10.0076 5.21793H10.221V5.22361C12.7509 5.33537 14.775 7.42513 14.775 9.97803C14.775 10.139 14.9064 10.2702 15.0677 10.2702C15.229 10.2702 15.3604 10.139 15.3604 9.97803C15.3604 7.03162 12.9591 4.63499 10.0081 4.63499C8.67554 4.63499 7.39948 5.12038 6.41421 6.00118C5.42894 6.88245 4.80467 8.09899 4.65571 9.42729L4.65429 9.42682Z" fill="#414B61"/>
<path d="M7.66057 25.0002C6.22274 25.0002 4.77733 24.4959 3.58998 23.5795C2.05207 22.3933 1.19677 20.9002 1.04735 19.1424C1.00702 18.6584 1.36707 18.2299 1.85046 18.1868C2.06772 18.1622 2.30016 18.2337 2.48469 18.3843C2.67397 18.5386 2.79303 18.7612 2.81154 18.9947C2.91732 20.2368 3.54349 21.3094 4.6725 22.1812C6.33802 23.4664 8.52297 23.5819 10.1097 22.4691C10.7862 21.9936 11.3075 21.3842 11.659 20.6578C12.4977 18.9227 13.6026 17.5338 14.9427 16.5289C17.0304 14.9633 18.2277 12.5752 18.2277 9.97642C18.2277 7.64135 17.2272 5.41047 15.4825 3.85534C13.7102 2.27369 11.4252 1.55153 9.04858 1.8224C5.39307 2.23202 2.37227 5.16707 1.86516 8.8006C1.78879 9.35039 1.74894 10.368 1.7812 10.9363C1.79496 11.1712 1.71621 11.398 1.55919 11.5742C1.40218 11.7508 1.18539 11.8555 0.948676 11.8692C0.707695 11.8834 0.479996 11.8067 0.306851 11.6532C0.131807 11.4979 0.0274455 11.2796 0.0136887 11.0381C-0.0247354 10.368 0.0208043 9.2088 0.111884 8.55767C0.728567 4.13615 4.404 0.564658 8.85077 0.0655387C11.7406 -0.257421 14.5157 0.620537 16.6641 2.53746C18.7836 4.42881 19.9995 7.13987 19.9999 9.97642C19.9999 13.1373 18.545 16.0402 16.009 17.942C14.8957 18.7782 13.9692 19.9503 13.2558 21.4254C12.7724 22.4255 12.057 23.2632 11.1296 23.9143C10.1183 24.6242 8.91908 24.9997 7.66104 24.9997L7.66057 25.0002ZM1.9349 18.514C1.91782 18.514 1.90074 18.515 1.88414 18.5168C1.57817 18.5443 1.35284 18.8123 1.37846 19.1149C1.51935 20.7761 2.33194 22.1902 3.79301 23.3177C4.92249 24.189 6.2958 24.6692 7.66057 24.6692C8.84982 24.6692 9.98309 24.315 10.9385 23.6444C11.8189 23.026 12.4982 22.2314 12.9565 21.2828C13.6932 19.7594 14.6533 18.5467 15.8093 17.6782C18.2614 15.8399 19.6674 13.0332 19.6679 9.97878C19.6679 7.23552 18.4924 4.61444 16.4431 2.78607C14.3658 0.931657 11.6828 0.08306 8.88777 0.395128C4.58948 0.877199 1.03691 4.32936 0.440624 8.6036C0.35239 9.23768 0.307325 10.3666 0.345275 11.0192C0.354288 11.1721 0.418802 11.3095 0.527434 11.4056C0.634167 11.5003 0.776953 11.5472 0.929227 11.5382C1.07723 11.5297 1.21243 11.4643 1.31062 11.354C1.40882 11.2436 1.45815 11.102 1.44961 10.9552C1.41641 10.3699 1.45768 9.3215 1.53642 8.75514C2.06392 4.97386 5.20759 1.91948 9.0111 1.49234C11.4831 1.21058 13.8597 1.96162 15.7035 3.6072C17.5185 5.22531 18.5597 7.54664 18.5597 9.97547C18.5597 12.6794 17.314 15.1641 15.1419 16.7931C13.8445 17.7658 12.7733 19.114 11.9579 20.8008C11.5817 21.5788 11.0239 22.2314 10.3004 22.7395C8.59366 23.9366 6.25026 23.8173 4.46899 22.443C3.26361 21.512 2.59475 20.3608 2.48042 19.0217C2.46904 18.8767 2.39361 18.7385 2.27407 18.6409C2.1735 18.559 2.05207 18.514 1.93442 18.514H1.9349ZM7.66057 24.574C6.31667 24.574 4.96376 24.1009 3.85088 23.2424C2.41164 22.1319 1.61137 20.7406 1.47286 19.1069C1.4629 18.9847 1.50037 18.8663 1.57912 18.7726C1.65834 18.6788 1.76887 18.6215 1.89078 18.6111H1.89552C1.90691 18.6092 1.92114 18.6082 1.93537 18.6082C2.03167 18.6082 2.13081 18.6457 2.21478 18.7138C2.31439 18.7948 2.37701 18.9099 2.3865 19.0292C2.50319 20.3959 3.18439 21.5698 4.41159 22.5179C6.22607 23.9181 8.61453 24.0379 10.3555 22.8171C11.0922 22.2995 11.6605 21.6352 12.0438 20.8424C12.8526 19.1694 13.9142 17.8326 15.1993 16.8694C17.3956 15.2224 18.6551 12.7102 18.6551 9.97594C18.6551 7.51965 17.6025 5.17275 15.7671 3.53664C13.9024 1.8726 11.4992 1.11303 9.00067 1.3981C5.15446 1.82998 1.97569 4.91846 1.4425 8.74188C1.36328 9.31298 1.32153 10.3709 1.35521 10.9604C1.36233 11.0822 1.32153 11.1996 1.23994 11.291C1.15835 11.3824 1.0464 11.4368 0.923534 11.4439C0.794505 11.4515 0.679233 11.4136 0.590525 11.335C0.500869 11.2555 0.447265 11.1413 0.440149 11.014C0.402674 10.3661 0.447265 9.24573 0.535024 8.61686C1.12467 4.38477 4.64214 0.9667 8.89868 0.489364C11.6662 0.180137 14.3231 1.02021 16.38 2.85568C18.4094 4.66605 19.573 7.26204 19.573 9.97736C19.573 13.0024 18.1802 15.7812 15.7524 17.602C14.584 18.4794 13.6149 19.7036 12.8711 21.2407C12.4199 22.175 11.7511 22.9573 10.8839 23.5663C9.94467 24.2255 8.83037 24.574 7.66057 24.574ZM1.93537 18.9397L1.92209 18.9411C1.88556 18.944 1.8552 18.9601 1.83338 18.9857C1.81156 19.0117 1.80065 19.0449 1.80349 19.0789C1.93395 20.6161 2.69104 21.9288 4.05392 22.98C5.10892 23.7941 6.38972 24.2425 7.66057 24.2425C8.76158 24.2425 9.80995 23.9148 10.6928 23.2954C11.5134 22.7191 12.1453 21.9794 12.5717 21.0972C13.3383 19.5118 14.3411 18.2469 15.5522 17.3372C17.8961 15.5799 19.2405 12.8973 19.2405 9.97784C19.2405 7.35675 18.1167 4.85121 16.158 3.10335C14.1723 1.3318 11.6069 0.520618 8.9352 0.819426C4.82809 1.27924 1.43301 4.57797 0.863289 8.66232C0.777902 9.27462 0.734734 10.3643 0.771261 10.9945C0.773633 11.0334 0.78739 11.0665 0.810634 11.0869C0.832455 11.1063 0.864238 11.1153 0.904085 11.1129C0.938714 11.111 0.969074 11.0964 0.991844 11.0708C1.01461 11.0452 1.02552 11.0135 1.02363 10.9794C0.988998 10.3723 1.03217 9.28409 1.11376 8.69594C1.66735 4.72477 4.9685 1.51744 8.96319 1.06899C11.5571 0.773019 14.0518 1.56148 15.9882 3.28945C17.8937 4.98807 18.9867 7.42542 18.9867 9.97594C18.9867 12.8153 17.6788 15.4241 15.3985 17.1341C14.1566 18.0651 13.1282 19.3612 12.3426 20.9864C11.9342 21.8307 11.3298 22.5377 10.5462 23.0885C8.68521 24.3936 6.13831 24.27 4.20809 22.7802C2.90451 21.773 2.18015 20.5204 2.05539 19.0567C2.05301 19.0269 2.03404 18.9947 2.00463 18.971C1.97854 18.9497 1.95102 18.9397 1.93537 18.9397ZM6.96846 16.9219C6.55101 16.9219 6.18669 16.625 6.10178 16.2159C6.00596 15.7362 6.31667 15.2683 6.79389 15.1717C7.61265 15.0055 8.18712 14.2009 8.10078 13.34C8.01682 12.5165 7.23505 11.8711 6.32094 11.8711C5.07476 11.8711 4.06103 10.8591 4.06103 9.6151L4.0634 9.37359C4.22611 7.89565 4.91964 6.54083 6.01687 5.55964C7.11077 4.58129 8.52772 4.04239 10.0063 4.04239C13.2847 4.04239 15.9516 6.70468 15.9516 9.97736C15.9516 10.4646 15.5546 10.8615 15.066 10.8615C14.5774 10.8615 14.1803 10.4651 14.1803 9.97736C14.1803 7.67971 12.3075 5.81014 10.0059 5.81014H9.91004C8.89536 5.83193 7.92147 6.21645 7.17054 6.89362C6.42198 7.5689 5.94571 8.48948 5.82902 9.48772L5.83139 9.60658C5.83139 9.88171 6.05055 10.1024 6.32047 10.1024C8.13446 10.1033 9.68946 11.4477 9.86165 13.1629C10.0367 14.916 8.84365 16.5592 7.14587 16.9035C7.08847 16.9153 7.0287 16.921 6.96798 16.921L6.96846 16.9219ZM4.39451 9.40106L4.39309 9.61557C4.39309 10.6758 5.25787 11.5391 6.32094 11.5391C7.38401 11.5391 8.33038 12.3153 8.43142 13.3064C8.53436 14.3349 7.84415 15.2967 6.8603 15.4961C6.56192 15.5567 6.3679 15.8494 6.42767 16.1491C6.48033 16.4039 6.70803 16.59 6.96893 16.59C7.00736 16.59 7.04483 16.5862 7.08041 16.5791C8.61358 16.268 9.6904 14.782 9.53196 13.1961C9.37684 11.648 7.96654 10.4348 6.32141 10.4339C5.86886 10.4339 5.50075 10.0645 5.50075 9.60989L5.4979 9.47209L5.49933 9.4612C5.62314 8.37867 6.13831 7.37948 6.94948 6.64785C7.75971 5.91717 8.81044 5.50187 9.90814 5.47866H10.0073C12.492 5.47866 14.5138 7.49692 14.5138 9.97736C14.5138 10.2819 14.7619 10.53 15.0674 10.53C15.3729 10.53 15.621 10.2823 15.621 9.97736C15.621 6.88747 13.103 4.37387 10.0078 4.37387C8.61121 4.37387 7.273 4.88246 6.23982 5.80636C5.20569 6.73119 4.55106 8.00741 4.39546 9.40106H4.39451ZM6.96846 16.4957C6.75262 16.4957 6.56429 16.3423 6.52018 16.1311C6.47037 15.882 6.63118 15.6396 6.8788 15.5894C7.90961 15.3805 8.63303 14.3738 8.52535 13.2974C8.41956 12.2584 7.45137 11.4449 6.32047 11.4449C5.31005 11.4449 4.48749 10.6242 4.48749 9.6151L4.48844 9.40863C4.64214 8.03961 5.28586 6.78565 6.30149 5.87739C7.31712 4.96912 8.63256 4.46906 10.0063 4.46906C13.0494 4.46906 15.5247 6.9405 15.5247 9.97784C15.5247 10.2302 15.3188 10.4358 15.066 10.4358C14.8131 10.4358 14.6073 10.2302 14.6073 9.97784C14.6073 8.78876 14.1519 7.6603 13.3255 6.79986C12.5011 5.94226 11.3958 5.44125 10.2122 5.38869L10.086 5.383H10.0059C7.63969 5.383 5.66061 7.13797 5.40161 9.46498V9.4683L5.40445 9.61131C5.40445 10.119 5.81526 10.529 6.31999 10.529C7.9172 10.53 9.28624 11.7058 9.43661 13.206C9.58984 14.7441 8.54622 16.1856 7.06001 16.4867C7.0306 16.4929 6.99977 16.4957 6.96798 16.4957H6.96846ZM4.82003 9.4361V9.6151C4.82003 10.441 5.49316 11.1134 6.32094 11.1134C7.61977 11.1134 8.73312 12.0581 8.85598 13.2643C8.98027 14.5083 8.1411 15.6722 6.94474 15.9147C6.87643 15.9284 6.83184 15.9962 6.84559 16.0653C6.85745 16.1216 6.91011 16.1647 6.96846 16.1647C6.97794 16.1647 6.98648 16.1638 6.99407 16.1624C8.31567 15.8943 9.24307 14.6106 9.10645 13.2392C8.97268 11.9066 7.74927 10.862 6.32047 10.861C5.63263 10.861 5.07287 10.3022 5.07287 9.61557L5.06955 9.45409L5.07239 9.42947C5.3499 6.93435 7.47082 5.05247 10.0068 5.05247H10.3863V5.0681C11.5955 5.16044 12.7193 5.69034 13.566 6.57114C14.4522 7.49313 14.9403 8.70352 14.9403 9.97831C14.9403 10.0479 14.9972 10.1047 15.0669 10.1047C15.1367 10.1047 15.1936 10.0479 15.1936 9.97831C15.1936 7.12329 12.8668 4.80101 10.0073 4.80101C8.71557 4.80101 7.47888 5.27125 6.52445 6.12505C5.57191 6.97697 4.96708 8.15279 4.82098 9.43705L4.82003 9.4361Z" fill="#414B61"/>
</g>
<defs>
<clipPath id="clip0_744_62674">
<rect width="20" height="25" fill="white"/>
</clipPath>
</defs>
</svg>
