<svg width="22" height="22" viewBox="0 0 22 22" fill="none" xmlns="http://www.w3.org/2000/svg">
<g clip-path="url(#clip0_744_62615)">
<mask id="mask0_744_62615" style="mask-type:luminance" maskUnits="userSpaceOnUse" x="0" y="0" width="22" height="22">
<path d="M22 0H0V22H22V0Z" fill="white"/>
</mask>
<g mask="url(#mask0_744_62615)">
<path d="M16.2821 21.9997C8.82874 22.2518 -4.59858 8.93265 1.63566 1.71114L2.68983 0.79448C3.22344 0.27864 3.93871 -0.00634033 4.68085 0.00120804C5.42299 0.00875642 6.13232 0.308226 6.65532 0.834814C6.68359 0.863601 6.70993 0.894223 6.73415 0.926477L8.38415 3.07056C8.88559 3.60116 9.1642 4.30401 9.1625 5.03406C9.16079 5.76411 8.8789 6.46565 8.37499 6.99389L7.31349 8.32857C7.90118 9.75589 8.76496 11.0531 9.85527 12.1457C10.9455 13.2384 12.2409 14.1049 13.6669 14.6957L15.0089 13.6278C15.544 13.1364 16.2439 12.8632 16.9704 12.8622C17.697 12.8611 18.3976 13.1323 18.934 13.6223L21.079 15.2723C21.1111 15.2965 21.1417 15.3225 21.1707 15.3502C21.6997 15.8841 21.9965 16.6052 21.9965 17.3568C21.9965 18.1084 21.6997 18.8295 21.1707 19.3634L20.3356 20.3259C19.806 20.8614 19.1744 21.2854 18.4782 21.5728C17.7821 21.8603 17.0353 22.0055 16.2821 21.9997ZM4.64874 1.83306C4.51701 1.83296 4.38654 1.85882 4.26481 1.90914C4.14307 1.95948 4.03244 2.0333 3.93924 2.12639L2.88416 3.04306C-2.29134 9.26538 13.5459 24.2208 18.9936 19.0737L19.8296 18.1103C19.929 18.0218 20.0099 17.9146 20.0677 17.7948C20.1254 17.6749 20.1589 17.5448 20.1661 17.412C20.1734 17.2792 20.1542 17.1461 20.1098 17.0208C20.0655 16.8953 19.9967 16.7799 19.9075 16.6812L17.7744 15.0431C17.7418 15.0191 17.7111 14.9924 17.6828 14.9634C17.4916 14.7811 17.2375 14.6795 16.9733 14.6795C16.7091 14.6795 16.4551 14.7811 16.2638 14.9634C16.2395 14.988 16.2137 15.0113 16.1868 15.033L14.3919 16.463C14.2674 16.5622 14.1191 16.6272 13.9618 16.6517C13.8044 16.6761 13.6434 16.6591 13.4945 16.6024C11.6467 15.914 9.96838 14.8365 8.57326 13.4428C7.17818 12.0491 6.09894 10.3719 5.40865 8.52474C5.34755 8.37382 5.32773 8.20936 5.35125 8.04825C5.37477 7.88714 5.44078 7.7352 5.54249 7.60807L6.96699 5.81506C6.98817 5.78791 7.01114 5.76218 7.03574 5.73806C7.22298 5.54922 7.32804 5.29404 7.32804 5.0281C7.32804 4.76217 7.22298 4.50699 7.03574 4.31814C7.00716 4.28964 6.98081 4.259 6.9569 4.22648L5.32249 2.09614C5.13782 1.92928 4.89764 1.83714 4.64874 1.83764V1.83306ZM20.6839 11.5277C25.2581 4.79482 17.2006 -3.25444 10.475 1.31881C10.3736 1.38653 10.2867 1.4738 10.2195 1.57552C10.1522 1.67725 10.1059 1.79136 10.0833 1.9112C10.0607 2.03103 10.0623 2.15418 10.0878 2.27342C10.1134 2.39266 10.1624 2.5056 10.2322 2.60562C10.302 2.70564 10.3911 2.79074 10.4941 2.85591C10.5972 2.9211 10.7123 2.96506 10.8325 2.98523C10.9528 3.00539 11.0759 3.00135 11.1945 2.97335C11.3132 2.94535 11.4251 2.89395 11.5237 2.82214C16.5415 -0.623603 22.6245 5.46581 19.1806 10.48C19.1073 10.5785 19.0545 10.6907 19.0253 10.81C18.9962 10.9293 18.9913 11.0533 19.011 11.1744C19.0307 11.2956 19.0745 11.4117 19.1399 11.5156C19.2054 11.6196 19.291 11.7093 19.3917 11.7795C19.4925 11.8497 19.6063 11.899 19.7264 11.9244C19.8466 11.9498 19.9706 11.9508 20.0911 11.9272C20.2117 11.9037 20.3263 11.8563 20.4281 11.7877C20.5299 11.719 20.6169 11.6307 20.6839 11.5277ZM17.1474 9.81813C17.3193 9.64626 17.4158 9.41315 17.4158 9.17005C17.4158 8.927 17.3193 8.69388 17.1474 8.52199L15.5836 6.95723V4.58306C15.5836 4.33995 15.4871 4.10679 15.3151 3.93489C15.1432 3.76297 14.9101 3.66639 14.6669 3.66639C14.4238 3.66639 14.1907 3.76297 14.0188 3.93489C13.8469 4.10679 13.7503 4.33995 13.7503 4.58306V7.33307C13.7504 7.57616 13.847 7.80928 14.0189 7.98114L15.8522 9.81447C16.0242 9.98634 16.2573 10.0829 16.5003 10.0829C16.7434 10.0829 16.9765 9.98634 17.1484 9.81447L17.1474 9.81813Z" fill="#414B61"/>
</g>
</g>
<defs>
<clipPath id="clip0_744_62615">
<rect width="22" height="22" fill="white"/>
</clipPath>
</defs>
</svg>
