<?xml version="1.0" encoding="utf-8"?>
<!-- Generator: Adobe Illustrator 24.0.2, SVG Export Plug-In . SVG Version: 6.00 Build 0)  -->
<svg version="1.1" id="Layer_1" xmlns="http://www.w3.org/2000/svg" xmlns:xlink="http://www.w3.org/1999/xlink" x="0px" y="0px"
	 viewBox="0 0 67 67" style="enable-background:new 0 0 67 67;" xml:space="preserve">
<style type="text/css">
	.st0{fill:#414B61;}
</style>
<path class="st0" d="M53,5.6h-2.8V2.8c0-0.7-0.3-1.5-0.8-2c-0.5-0.5-1.2-0.8-2-0.8c-0.7,0-1.5,0.3-2,0.8c-0.5,0.5-0.8,1.2-0.8,2v2.8
	H22.3V2.8c0-0.7-0.3-1.5-0.8-2C21,0.3,20.3,0,19.5,0c-0.7,0-1.5,0.3-2,0.8c-0.5,0.5-0.8,1.2-0.8,2v2.8H14c-3.7,0-7.2,1.5-9.9,4.1
	C1.5,12.3,0,15.8,0,19.5V53c0,3.7,1.5,7.2,4.1,9.9C6.7,65.5,10.3,67,14,67H53c3.7,0,7.2-1.5,9.9-4.1c2.6-2.6,4.1-6.2,4.1-9.9V19.5
	c0-3.7-1.5-7.2-4.1-9.9C60.3,7.1,56.7,5.6,53,5.6z M5.6,19.5c0-2.2,0.9-4.4,2.5-5.9c1.6-1.6,3.7-2.5,5.9-2.5H53
	c2.2,0,4.4,0.9,5.9,2.5c1.6,1.6,2.5,3.7,2.5,5.9v2.8H5.6V19.5z M53,61.4H14c-2.2,0-4.4-0.9-5.9-2.5c-1.6-1.6-2.5-3.7-2.5-5.9V27.9
	h55.8V53c0,2.2-0.9,4.4-2.5,5.9C57.4,60.5,55.3,61.4,53,61.4z"/>
<path class="st0" d="M33.5,46.1c2.3,0,4.2-1.9,4.2-4.2s-1.9-4.2-4.2-4.2s-4.2,1.9-4.2,4.2S31.2,46.1,33.5,46.1z"/>
<path class="st0" d="M19.5,46.1c2.3,0,4.2-1.9,4.2-4.2s-1.9-4.2-4.2-4.2s-4.2,1.9-4.2,4.2S17.2,46.1,19.5,46.1z"/>
<path class="st0" d="M47.5,46.1c2.3,0,4.2-1.9,4.2-4.2s-1.9-4.2-4.2-4.2c-2.3,0-4.2,1.9-4.2,4.2S45.1,46.1,47.5,46.1z"/>
</svg>
