<svg width="27" height="22" viewBox="0 0 27 22" fill="none" xmlns="http://www.w3.org/2000/svg">
<g clip-path="url(#clip0_744_62687)">
<path d="M13.4609 21.5835C12.8174 21.5474 12.1734 21.5185 11.5305 21.4736C9.72812 21.3475 7.96459 20.9956 6.22843 20.5027C5.25009 20.2252 4.75874 19.4808 4.57598 18.5277C4.47257 17.9898 4.47968 17.4303 4.44412 16.8796C4.43208 16.6975 4.44248 16.5132 4.44248 16.3095C3.85099 16.1869 3.26059 16.032 2.66035 15.9459C1.25905 15.7456 0.593149 15.0267 0.456357 13.5374C0.323395 12.0847 0.454168 10.6726 1.45822 9.49964C2.4081 8.39001 3.63759 7.84547 5.0564 7.69282C5.10127 7.68782 5.14668 7.68394 5.19155 7.67783C5.19866 7.67672 5.20468 7.66839 5.1724 7.69282C4.90428 7.211 4.58419 6.75804 4.38502 6.25513C3.63814 4.37003 4.2734 2.16465 5.84541 1.11219C7.53452 -0.01687 10.5664 0.0475205 11.9201 2.64203C11.9595 2.71807 12.0842 2.81799 12.1433 2.803C13.0806 2.56209 14.0146 2.57985 14.9601 2.82354C15.5593 1.57847 16.507 0.76248 17.8448 0.508803C19.025 0.285101 20.1621 0.455514 21.1891 1.1466C23.09 2.42609 23.5934 5.64064 21.7729 7.6473C22.1953 7.73445 22.6271 7.78607 23.0358 7.91374C24.7484 8.4483 25.9943 9.49853 26.414 11.3281C26.6307 12.2723 26.6657 13.2476 26.4107 14.2052C26.1656 15.1266 25.6004 15.7023 24.6543 15.8777C23.9676 16.0048 23.2853 16.158 22.5893 16.3018C22.5893 16.5077 22.5844 16.7075 22.5904 16.9068C22.6123 17.6867 22.5669 18.4561 22.2522 19.1838C21.9442 19.8965 21.4211 20.3401 20.672 20.5432C19.0973 20.9701 17.5067 21.3054 15.8805 21.4425C15.2282 21.4974 14.5727 21.5119 13.9189 21.5474C13.8018 21.5535 13.6858 21.5713 13.5692 21.584H13.4598L13.4609 21.5835ZM13.508 20.6442C15.8017 20.6404 18.0549 20.3339 20.2693 19.7256C21.1502 19.4835 21.5612 19.0672 21.6421 18.1402C21.7001 17.4741 21.7012 16.7947 21.6438 16.128C21.5065 14.5338 20.7311 13.3581 19.28 12.6764C18.3121 12.2218 17.2757 12.0303 16.2279 11.8988C16.0189 11.8727 15.7798 11.8477 15.5938 11.9226C14.199 12.4844 12.8152 12.4894 11.4271 11.9104C11.3379 11.8732 11.2328 11.8405 11.1409 11.8516C10.1292 11.9726 9.12404 12.1286 8.16541 12.501C6.97258 12.9645 6.04787 13.72 5.62436 14.984C5.26323 16.062 5.23532 17.176 5.40604 18.2895C5.50836 18.9557 5.83392 19.478 6.5343 19.6706C8.81763 20.2979 11.1382 20.6487 13.5069 20.6448L13.508 20.6442ZM13.5167 11.4819C15.7831 11.4797 17.4465 9.79273 17.4492 7.49409C17.4519 5.19767 15.7951 3.50797 13.526 3.49409C11.2585 3.48022 9.5771 5.18657 9.58038 7.49853C9.58366 9.79662 11.2514 11.4841 13.5162 11.4819H13.5167ZM10.1817 11.0883C9.52567 10.4383 9.09778 9.67228 8.86578 8.78413C7.9728 8.92457 7.14056 8.78801 6.33951 8.43553C6.29245 8.41499 6.23226 8.41222 6.18028 8.41777C5.27417 8.51435 4.37846 8.66478 3.53582 9.0367C2.55967 9.46745 1.81552 10.1324 1.49816 11.201C1.27437 11.9543 1.27 12.7292 1.33128 13.5035C1.40788 14.4661 1.72141 14.8269 2.63682 15.0284C3.27318 15.1683 3.91336 15.2898 4.53932 15.4169C5.38196 12.5688 7.44479 11.4164 10.1817 11.0883ZM22.4771 15.3903C22.5483 15.3842 22.621 15.3842 22.6905 15.3703C23.2957 15.2471 23.8987 15.1105 24.506 15.0001C25.121 14.8879 25.5008 14.5171 25.5785 13.9115C25.6529 13.332 25.6655 12.7375 25.6392 12.1524C25.5746 10.7375 24.9082 9.68394 23.6185 9.13051C22.9493 8.84352 22.2178 8.70086 21.507 8.52157C21.2301 8.45163 20.8975 8.36059 20.6529 8.45107C19.8453 8.75082 19.0322 8.91513 18.1583 8.81022C17.9241 9.69004 17.4963 10.4466 16.8484 11.0917C19.5629 11.4119 21.6405 12.5399 22.4777 15.3908L22.4771 15.3903ZM11.1666 3.17436C10.5418 1.60622 8.64363 0.87794 6.91677 1.53017C5.34311 2.12412 4.57544 4.02865 5.18717 5.82937C5.74911 7.4841 7.23248 8.21571 8.71203 7.90153C8.60533 5.84491 9.41021 4.26401 11.1672 3.17436H11.1666ZM18.3176 7.9304C20.1112 8.24513 21.5885 7.13217 21.9497 5.22487C22.2905 3.42415 21.2701 1.75554 19.6045 1.38863C17.9471 1.02393 16.1223 1.88266 15.8356 3.16048C17.609 4.23958 18.4292 5.83103 18.3176 7.92984V7.9304Z" fill="#414B61"/>
<path d="M13.5917 21.9998H13.438C13.2372 21.9881 13.0369 21.977 12.8361 21.9665C12.3994 21.9432 11.9475 21.9199 11.5021 21.8882C9.79493 21.7689 8.03359 21.4469 6.11741 20.9029C5.07725 20.6076 4.40423 19.8138 4.17278 18.6065C4.09234 18.1885 4.07429 17.7672 4.05678 17.3592C4.05021 17.2099 4.04365 17.055 4.0338 16.9063C4.02778 16.818 4.02668 16.7308 4.02723 16.6454C3.95063 16.6282 3.87402 16.6109 3.79906 16.5943C3.40565 16.506 2.9991 16.4144 2.60241 16.3578C1.01234 16.1302 0.200339 15.2465 0.0471321 13.5757C-0.0710562 12.2873 -0.0524525 10.6287 1.14749 9.22655C2.00052 8.2296 3.1244 7.60123 4.49342 7.35311C4.31504 7.05502 4.13612 6.74639 4.00316 6.41056C3.18842 4.35394 3.88278 1.92652 5.61839 0.765264C6.68756 0.0508593 8.15288 -0.185055 9.44419 0.149666C10.2912 0.369483 11.4539 0.930682 12.2331 2.35394C13.0495 2.17298 13.8921 2.1702 14.7435 2.34672C15.4275 1.10665 16.4441 0.351165 17.7699 0.100263C19.1192 -0.155635 20.346 0.0802792 21.4162 0.800235C22.4372 1.48744 23.1163 2.66812 23.2804 4.03976C23.4227 5.22988 23.1464 6.40612 22.5155 7.36199C22.7278 7.40251 22.9434 7.44969 23.1568 7.5163C25.161 8.1419 26.3916 9.39307 26.814 11.2343C27.0641 12.3229 27.0619 13.3592 26.8075 14.3145C26.5125 15.423 25.8127 16.0875 24.7282 16.2879C24.2593 16.375 23.8008 16.4722 23.316 16.5749C23.2104 16.5971 23.1042 16.6198 22.9981 16.642C22.9981 16.7281 22.9981 16.8119 23.0003 16.8952C23.0211 17.6356 22.9926 18.5066 22.6282 19.3509C22.2736 20.1724 21.651 20.7092 20.7782 20.9457C18.9452 21.4425 17.3995 21.7322 15.915 21.8577C15.4756 21.8949 15.0313 21.9138 14.6018 21.9326C14.3818 21.9421 14.1613 21.9515 13.9414 21.9637C13.8746 21.967 13.8035 21.9759 13.728 21.9848C13.6897 21.9892 13.6514 21.9942 13.6125 21.9981L13.5912 22.0003L13.5917 21.9998ZM13.4724 21.1672H13.5485C13.5764 21.1638 13.6038 21.1605 13.6317 21.1572C13.717 21.1466 13.8051 21.1361 13.8987 21.1311C14.1214 21.1189 14.3446 21.1094 14.5673 21.1C14.9886 21.0817 15.4247 21.0628 15.8477 21.0273C17.2824 20.9063 18.7822 20.6248 20.567 20.1408C21.2039 19.9681 21.6203 19.6107 21.8769 19.0167C22.1768 18.3229 22.1987 17.5668 22.1806 16.9185C22.1768 16.7753 22.1779 16.6315 22.1784 16.4933C22.1784 16.43 22.1795 16.3662 22.1795 16.3018V15.9615L22.5078 15.8938C22.7223 15.8494 22.9357 15.8038 23.1486 15.7589C23.6175 15.6595 24.1017 15.5568 24.581 15.468C25.3482 15.3259 25.804 14.8902 26.0152 14.0964C26.2335 13.2754 26.2335 12.3756 26.0152 11.4219C25.6584 9.86823 24.6445 8.85075 22.9155 8.3112C22.6599 8.23126 22.3896 8.18297 22.1035 8.13246C21.9689 8.10859 21.8299 8.08361 21.692 8.0553L20.979 7.90876L21.472 7.36532C22.2468 6.51159 22.6091 5.3359 22.4662 4.13967C22.3333 3.02671 21.7713 2.03754 20.9632 1.4941C20.0768 0.897931 19.0536 0.704204 17.9215 0.91847C16.7631 1.13773 15.8915 1.84048 15.3301 3.00673L15.1834 3.31092L14.8601 3.22766C13.955 2.99396 13.0998 2.9873 12.2451 3.20712C11.948 3.28317 11.6597 3.03171 11.5584 2.83743C10.9205 1.61456 9.94649 1.13995 9.24174 0.956771C8.16765 0.678114 6.95294 0.871287 6.072 1.46135C4.65538 2.40945 4.09399 4.4039 4.76645 6.10137C4.89011 6.41334 5.06959 6.71142 5.25945 7.02727C5.32183 7.13107 5.3864 7.23765 5.44877 7.34645L5.66107 7.48633L5.5976 7.76943C5.56532 7.91264 5.46026 8.02699 5.32457 8.07362C5.36123 8.06196 5.39406 8.04531 5.42196 8.02533L5.30706 8.11247C5.59487 8.0664 5.87392 8.03254 6.13875 8.00423C6.23122 7.99424 6.3702 7.9948 6.50426 8.05419C7.27084 8.39169 8.02375 8.49604 8.80455 8.37337L9.16951 8.31619L9.26417 8.67811C9.48249 9.51186 9.877 10.203 10.4707 10.7914L11.0851 11.4003L10.2321 11.5024C7.32939 11.8499 5.6463 13.1322 4.93498 15.5368L4.82774 15.8999L4.46168 15.8255C4.26963 15.7866 4.07593 15.7478 3.88168 15.7095C3.44669 15.6229 2.99746 15.5335 2.55316 15.4358C1.45718 15.1949 1.01617 14.6803 0.925336 13.5374C0.871714 12.8607 0.843808 11.9704 1.10809 11.0817C1.43639 9.97759 2.1778 9.18436 3.37501 8.65591C3.90467 8.42222 4.448 8.27345 4.97219 8.17242L4.94647 8.12746C3.60919 8.30176 2.56903 8.84131 1.77016 9.77498C0.992638 10.6831 0.71413 11.8322 0.867337 13.5008C0.985525 14.7914 1.50479 15.362 2.72005 15.5357C3.14848 15.5973 3.57089 15.6917 3.97963 15.7839C4.15965 15.8244 4.34568 15.866 4.5268 15.9038L4.8551 15.972V16.3118C4.8551 16.3795 4.854 16.445 4.85291 16.5094C4.85072 16.632 4.84908 16.7475 4.85619 16.8546C4.86659 17.0128 4.87315 17.1721 4.87972 17.3259C4.89668 17.7206 4.91255 18.093 4.98149 18.45C5.15494 19.352 5.59979 19.8932 6.34175 20.1036C8.20322 20.6315 9.91093 20.9446 11.5617 21.06C12.0006 21.0905 12.4487 21.1144 12.882 21.1372C13.0801 21.1477 13.2777 21.1583 13.4757 21.1694L13.4724 21.1672ZM6.21207 8.83299C5.43345 8.91625 4.53172 9.05114 3.69948 9.41861C2.73646 9.84381 2.14497 10.4661 1.89109 11.3215C1.66675 12.0769 1.69301 12.8668 1.74062 13.4702C1.8019 14.244 1.98575 14.4594 2.72442 14.6215C3.16106 14.7175 3.60646 14.8063 4.03708 14.8918C4.11259 14.9068 4.18755 14.9218 4.26306 14.9368C4.70572 13.6667 5.42853 12.6687 6.41507 11.9665C7.21339 11.3986 8.1868 11.0112 9.37416 10.7902C9.02452 10.3256 8.75859 9.81161 8.57146 9.23876C7.77205 9.30593 6.99671 9.17215 6.21207 8.83299ZM13.4686 21.0611C11.1842 21.0611 8.81604 20.7286 6.4282 20.0725C5.63372 19.8544 5.14072 19.2599 5.00174 18.3534C4.80366 17.0595 4.88027 15.9132 5.23702 14.8496C5.66655 13.5679 6.57649 12.6726 8.01937 12.1119C8.96652 11.7444 9.93336 11.5768 11.0934 11.438C11.2405 11.4203 11.4009 11.4491 11.5836 11.5252C12.8678 12.0609 14.1301 12.0642 15.4428 11.5352C15.7136 11.4264 16.0042 11.4508 16.2783 11.4852C17.2523 11.6073 18.3909 11.7994 19.453 12.2984C21.025 13.0373 21.8999 14.3134 22.0531 16.0919C22.1122 16.7808 22.1117 17.4819 22.0509 18.1769C21.9579 19.2471 21.4573 19.8305 20.3766 20.1275C18.1365 20.7431 15.8258 21.0572 13.5091 21.0606C13.496 21.0606 13.4823 21.0606 13.4686 21.0606V21.0611ZM11.1804 12.2662C10.0849 12.3972 9.17772 12.5538 8.31265 12.8896C7.11162 13.3559 6.35981 14.0847 6.01345 15.1177C5.70047 16.0514 5.63481 17.0678 5.81209 18.2257C5.90128 18.8063 6.16502 19.1377 6.64215 19.2687C8.97363 19.9093 11.2832 20.2302 13.5069 20.2285C15.7519 20.2246 17.9904 19.9204 20.1616 19.3242C20.9101 19.1183 21.1705 18.8224 21.2329 18.1041C21.2893 17.458 21.2898 16.8052 21.2346 16.1647C21.1071 14.6848 20.4116 13.6673 19.1072 13.0545C18.148 12.6037 17.0876 12.4261 16.1771 12.3118C16.0605 12.2973 15.8433 12.2701 15.7448 12.3095C14.2461 12.9129 12.7409 12.9085 11.2706 12.2957C11.2165 12.2729 11.1886 12.2673 11.1793 12.2662H11.1804ZM22.1795 15.8344L22.0838 15.5091C21.3818 13.1194 19.703 11.8471 16.8003 11.5046L15.9478 11.4042L16.5607 10.7941C17.1505 10.2068 17.5434 9.52241 17.7617 8.70143L17.8542 8.35394L18.206 8.39613C18.572 8.43998 18.9403 8.43387 19.326 8.3767C18.9819 8.41667 18.6202 8.40612 18.2476 8.34062L17.8881 8.27734L17.9078 7.90765C18.0117 5.95205 17.2649 4.51603 15.6245 3.51742L15.3695 3.36199L15.4357 3.06779C15.7744 1.56016 17.8027 0.565986 19.6916 0.981195C20.607 1.18269 21.3834 1.73945 21.878 2.54878C22.3683 3.35089 22.5368 4.32841 22.3524 5.30259C22.0712 6.78858 21.1716 7.84492 19.9755 8.23404C20.1495 8.18519 20.3274 8.12635 20.5112 8.05808C20.8636 7.92707 21.2548 8.02643 21.5689 8.10581L21.6055 8.11525C21.7522 8.15244 21.8994 8.18741 22.0466 8.22294C22.6216 8.36116 23.2164 8.50381 23.7778 8.74473C25.19 9.35089 25.9752 10.5221 26.0485 12.1313C26.0781 12.7858 26.0568 13.402 25.9851 13.9632C25.886 14.7364 25.3733 15.2632 24.5783 15.4081C24.186 15.4797 23.7866 15.564 23.4003 15.6456C23.1907 15.69 22.9811 15.7345 22.771 15.7766C22.6955 15.7922 22.6249 15.7961 22.5686 15.7994C22.55 15.8005 22.5314 15.8016 22.5127 15.8033L22.179 15.8333L22.1795 15.8344ZM17.6561 10.7914C18.838 11.009 19.8059 11.3903 20.6004 11.9498C21.5962 12.6515 22.3223 13.6529 22.7623 14.9312C22.9193 14.899 23.0763 14.8657 23.2334 14.8324C23.6251 14.7497 24.0306 14.6637 24.4344 14.5904C24.8842 14.5088 25.1189 14.2757 25.1725 13.8577C25.2382 13.3442 25.2579 12.7769 25.23 12.1713C25.1714 10.8868 24.5756 9.99257 23.4593 9.51353C22.9614 9.29982 22.4257 9.17104 21.8589 9.03504C21.7084 8.99896 21.5579 8.96288 21.4086 8.92513L21.3714 8.91569C21.1875 8.86907 20.9101 8.79912 20.7946 8.84187C19.9493 9.15605 19.1964 9.28927 18.456 9.25264C18.2695 9.81939 18.0052 10.329 17.6572 10.7919L17.6561 10.7914ZM18.7378 7.56182C20.1446 7.6462 21.2499 6.71364 21.5464 5.14661C21.692 4.37892 21.5618 3.61234 21.1804 2.98897C20.8039 2.37281 20.213 1.94928 19.517 1.79607C18.2213 1.51075 16.7549 2.08639 16.3287 2.98508C17.9291 4.0664 18.7384 5.60345 18.7373 7.56182H18.7378ZM13.5124 11.8982C12.3092 11.8982 11.2083 11.4541 10.411 10.6476C9.61272 9.83992 9.17225 8.72197 9.17061 7.4991C9.16897 6.26568 9.61217 5.13773 10.4187 4.32285C11.2143 3.51964 12.3075 3.07778 13.4993 3.07778C13.5091 3.07778 13.519 3.07778 13.5288 3.07778C14.7353 3.085 15.8368 3.53518 16.6307 4.3445C17.4246 5.15438 17.8613 6.2729 17.8596 7.49466C17.858 8.71753 17.4186 9.83604 16.6219 10.6437C15.8253 11.4514 14.7227 11.8971 13.5173 11.8982H13.5124ZM13.4998 3.91042C12.5264 3.91042 11.6389 4.26568 10.9981 4.91292C10.3476 5.57015 9.99027 6.48827 9.99136 7.49799C9.99464 9.56571 11.4747 11.0656 13.5124 11.0656H13.5168C15.555 11.0633 17.0367 9.56127 17.0394 7.49355C17.0422 5.42971 15.5637 3.92263 13.5244 3.91042C13.5162 3.91042 13.508 3.91042 13.5003 3.91042H13.4998ZM8.04618 8.38836C7.46673 8.38836 6.9026 8.2457 6.40686 7.96815C5.65724 7.5485 5.10132 6.85574 4.79874 5.96482C4.47044 4.99896 4.48959 3.97037 4.85236 3.07001C5.22115 2.15411 5.90347 1.46857 6.77347 1.13995C7.7031 0.789133 8.70716 0.785802 9.60068 1.13052C10.5106 1.48189 11.2017 2.15189 11.547 3.01839L11.6772 3.34534L11.3806 3.52963C9.761 4.53435 9.02178 5.95705 9.12136 7.87989L9.13997 8.23626L8.7958 8.30953C8.54574 8.36282 8.29459 8.38891 8.04618 8.38891V8.38836ZM8.20814 1.70948C7.8295 1.70948 7.43992 1.7772 7.06018 1.92041C6.40796 2.16687 5.89362 2.687 5.61292 3.38475C5.32566 4.0986 5.31198 4.91847 5.57517 5.69393C6.00032 6.94678 7.0662 7.65896 8.29241 7.54572C8.29241 5.62843 9.08087 4.11081 10.6392 3.0256C10.1637 2.1974 9.22368 1.70948 8.20814 1.70948Z" fill="#414B61"/>
</g>
<defs>
<clipPath id="clip0_744_62687">
<rect width="27" height="22" fill="white"/>
</clipPath>
</defs>
</svg>
