<svg width="19" height="17" viewBox="0 0 19 17" fill="none" xmlns="http://www.w3.org/2000/svg">
<g clip-path="url(#clip0_744_69469)">
<path d="M3.94034 16.6003C3.56034 16.4503 3.28034 16.2203 3.23034 15.7903C3.22034 15.6503 3.23034 15.5003 3.27034 15.3703C3.49034 14.4503 3.73034 13.5303 3.96034 12.6103C3.97034 12.5703 3.98034 12.5303 3.99034 12.4603C3.90034 12.4603 3.82034 12.4603 3.75034 12.4603C2.81034 12.4603 1.86034 12.4603 0.920344 12.4603C0.480344 12.4603 0.100344 12.1503 0.0203444 11.7303C-0.0596556 11.3103 0.140344 10.8803 0.530344 10.7103C0.680344 10.6403 0.860344 10.6203 1.03034 10.6203C2.10034 10.6203 3.17034 10.6203 4.25034 10.6203C4.41034 10.6203 4.48034 10.5803 4.52034 10.4103C4.86034 9.02029 5.21034 7.64029 5.55034 6.25029C5.57034 6.18029 5.58034 6.11029 5.60034 6.02029C5.50034 6.02029 5.42034 6.02029 5.34034 6.02029C4.50034 6.02029 3.66034 6.02029 2.81034 6.02029C2.41034 6.02029 2.10034 5.85029 1.92034 5.48029C1.76034 5.14029 1.81034 4.80029 2.05034 4.51029C2.24034 4.27029 2.50034 4.17029 2.81034 4.17029C3.82034 4.17029 4.84034 4.17029 5.85034 4.17029C6.02034 4.17029 6.08034 4.11029 6.12034 3.96029C6.38034 2.89029 6.65034 1.81029 6.92034 0.740289C7.04034 0.290289 7.38034 0.0102892 7.81034 0.000289249C8.22034 -0.00971075 8.60034 0.240289 8.71034 0.640289C8.76034 0.820289 8.75034 1.03029 8.71034 1.21029C8.50034 2.13029 8.26034 3.04029 8.03034 3.95029C8.01034 4.01029 8.00034 4.08029 7.99034 4.15029H12.5303C12.6603 3.62029 12.8003 3.09029 12.9303 2.56029C13.0903 1.93029 13.2403 1.30029 13.4003 0.680289C13.5103 0.270289 13.8603 0.000289249 14.2703 0.000289249C14.6703 0.000289249 15.0403 0.230289 15.1403 0.610289C15.1903 0.810289 15.1903 1.04029 15.1403 1.24029C14.9203 2.17029 14.6803 3.09029 14.4503 4.02029C14.4503 4.05029 14.4403 4.09029 14.4203 4.16029C14.5103 4.16029 14.5803 4.16029 14.6603 4.16029C15.5703 4.16029 16.4903 4.16029 17.4003 4.16029C18.0003 4.16029 18.4103 4.53029 18.4103 5.07029C18.4103 5.62029 18.0003 6.00029 17.3903 6.00029C16.3103 6.00029 15.2303 6.00029 14.1503 6.00029C13.9903 6.00029 13.9303 6.05029 13.8903 6.20029C13.5503 7.60029 13.2003 8.99029 12.8503 10.3803C12.8303 10.4403 12.8203 10.5003 12.8103 10.6003C12.9103 10.6003 12.9803 10.6003 13.0603 10.6003C13.9003 10.6003 14.7403 10.6003 15.5903 10.6003C16.2503 10.6003 16.6803 11.1303 16.5403 11.7403C16.4403 12.1603 16.0803 12.4403 15.6203 12.4403C14.6103 12.4403 13.5903 12.4403 12.5803 12.4403C12.3803 12.4403 12.3103 12.5103 12.2703 12.6903C12.0303 13.6903 11.7603 14.6803 11.5303 15.6803C11.4303 16.1303 11.2003 16.4503 10.7503 16.5903H10.4003C9.72034 16.3103 9.55034 15.9603 9.73034 15.2503C9.95034 14.3803 10.1703 13.5103 10.3803 12.6403C10.3903 12.5803 10.4003 12.5203 10.4103 12.4503H5.88034C5.86034 12.5203 5.84034 12.5803 5.82034 12.6403C5.57034 13.6403 5.31034 14.6403 5.08034 15.6503C4.97034 16.1103 4.76034 16.4403 4.31034 16.5903H3.92034L3.94034 16.6003ZM12.0603 6.03029C12.0603 6.03029 11.9903 6.01029 11.9603 6.01029C10.5303 6.01029 9.10034 6.01029 7.67034 6.01029C7.54034 6.01029 7.51034 6.07029 7.48034 6.18029C7.26034 7.08029 7.03034 7.98029 6.81034 8.87029C6.67034 9.44029 6.53034 10.0103 6.38034 10.5803C6.43034 10.5803 6.45034 10.6003 6.48034 10.6003C7.91034 10.6003 9.34034 10.6003 10.7703 10.6003C10.9003 10.6003 10.9303 10.5403 10.9603 10.4303C11.1803 9.53029 11.4103 8.63029 11.6303 7.74029C11.7703 7.17029 11.9103 6.60029 12.0603 6.03029Z" fill="#6E7894"/>
</g>
<defs>
<clipPath id="clip0_744_69469">
<rect width="18.42" height="16.6" fill="white"/>
</clipPath>
</defs>
</svg>
