<svg width="22" height="22" viewBox="0 0 22 22" fill="none" xmlns="http://www.w3.org/2000/svg">
<g clip-path="url(#clip0_744_62673)">
<path d="M21.9813 1.85471V5.52138C21.9813 5.76449 21.8847 5.99765 21.7128 6.16956C21.5409 6.34147 21.3078 6.43804 21.0647 6.43804C20.8215 6.43804 20.5884 6.34147 20.4165 6.16956C20.2446 5.99765 20.148 5.76449 20.148 5.52138V3.17196L15.2897 8.00463C15.1163 8.17118 14.8845 8.26298 14.6441 8.26024C14.4037 8.25749 14.174 8.16044 14.0045 7.98997C13.835 7.81951 13.7393 7.58928 13.7379 7.34889C13.7365 7.10851 13.8296 6.87719 13.9972 6.70479L18.8738 1.85471H16.4813C16.2382 1.85471 16.0051 1.75813 15.8331 1.58623C15.6612 1.41432 15.5647 1.18116 15.5647 0.938044C15.5647 0.694929 15.6612 0.461771 15.8331 0.289863C16.0051 0.117954 16.2382 0.0213772 16.4813 0.0213772H20.148C20.6342 0.0213772 21.1005 0.214531 21.4444 0.558348C21.7882 0.902165 21.9813 1.36848 21.9813 1.85471ZM21.1517 15.3655C21.683 15.8981 21.9813 16.6197 21.9813 17.372C21.9813 18.1243 21.683 18.8459 21.1517 19.3786L20.3157 20.3411C12.8073 27.526 -5.46092 9.26321 1.61574 1.73279L2.66899 0.816127C3.20258 0.299834 3.91781 0.0140997 4.66025 0.0206169C5.4027 0.0271341 6.1128 0.32538 6.63724 0.850961C6.66474 0.879377 8.36333 3.08671 8.36333 3.08671C8.86719 3.61604 9.14776 4.31914 9.14673 5.04994C9.14571 5.78074 8.86317 6.48305 8.35783 7.01096L7.29541 8.34654C7.88285 9.7739 8.74655 11.0711 9.83688 12.1636C10.9272 13.2562 12.2227 14.1225 13.6488 14.7128L14.9917 13.6449C15.5196 13.1398 16.2217 12.8574 16.9523 12.8564C17.6829 12.8554 18.3858 13.1358 18.9151 13.6394C18.9151 13.6394 21.1233 15.338 21.1517 15.3655ZM19.8913 16.6983C19.8913 16.6983 17.6977 15.0098 17.6693 14.9823C17.4805 14.795 17.2253 14.69 16.9594 14.69C16.6934 14.69 16.4383 14.795 16.2494 14.9823C16.2247 15.0061 14.3757 16.4801 14.3757 16.4801C14.2511 16.5793 14.1029 16.6443 13.9455 16.6687C13.7881 16.6932 13.6271 16.6762 13.4783 16.6195C11.6296 15.932 9.95043 14.8548 8.55477 13.461C7.15912 12.0673 6.07966 10.3896 5.38966 8.54179C5.3293 8.39157 5.3098 8.22804 5.33314 8.06783C5.35649 7.90763 5.42185 7.75646 5.52258 7.62971C5.52258 7.62971 6.99566 5.78079 7.02041 5.75604C7.20766 5.5672 7.31272 5.31203 7.31272 5.04609C7.31272 4.78015 7.20766 4.52497 7.02041 4.33613C6.99291 4.30863 5.30441 2.11413 5.30441 2.11413C5.11285 1.94214 4.86276 1.84993 4.6054 1.85641C4.34804 1.86289 4.10291 1.96755 3.92024 2.14896L2.86699 3.06563C-2.30667 9.28246 13.5269 24.2388 18.9747 19.0908L19.8107 18.1283C20.0078 17.9474 20.1265 17.6968 20.1415 17.4297C20.1566 17.1626 20.0668 16.9002 19.8913 16.6983V16.6983Z" fill="#414B61"/>
</g>
<defs>
<clipPath id="clip0_744_62673">
<rect width="22" height="22" fill="white"/>
</clipPath>
</defs>
</svg>
