<svg width="15" height="15" viewBox="0 0 15 15" fill="none" xmlns="http://www.w3.org/2000/svg">
<g clip-path="url(#clip0_744_92140)">
<mask id="mask0_744_92140" style="mask-type:luminance" maskUnits="userSpaceOnUse" x="0" y="0" width="15" height="15">
<path d="M15 0H0V15H15V0Z" fill="white"/>
</mask>
<g mask="url(#mask0_744_92140)">
<path d="M4.375 3.75H14.375C14.5407 3.75 14.6997 3.68415 14.8169 3.56694C14.9341 3.44973 15 3.29076 15 3.125C15 2.95924 14.9341 2.80027 14.8169 2.68306C14.6997 2.56585 14.5407 2.5 14.375 2.5H4.375C4.20924 2.5 4.05027 2.56585 3.93306 2.68306C3.81585 2.80027 3.75 2.95924 3.75 3.125C3.75 3.29076 3.81585 3.44973 3.93306 3.56694C4.05027 3.68415 4.20924 3.75 4.375 3.75Z" fill="#414B61"/>
<path d="M14.375 6.875H4.375C4.20924 6.875 4.05027 6.94081 3.93306 7.05806C3.81585 7.17525 3.75 7.33419 3.75 7.5C3.75 7.66575 3.81585 7.82469 3.93306 7.94194C4.05027 8.05912 4.20924 8.125 4.375 8.125H14.375C14.5407 8.125 14.6997 8.05912 14.8169 7.94194C14.9341 7.82469 15 7.66575 15 7.5C15 7.33419 14.9341 7.17525 14.8169 7.05806C14.6997 6.94081 14.5407 6.875 14.375 6.875Z" fill="#414B61"/>
<path d="M14.375 11.25H4.375C4.20924 11.25 4.05027 11.3159 3.93306 11.4331C3.81585 11.5503 3.75 11.7093 3.75 11.875C3.75 12.0407 3.81585 12.1997 3.93306 12.3169C4.05027 12.4342 4.20924 12.5 4.375 12.5H14.375C14.5407 12.5 14.6997 12.4342 14.8169 12.3169C14.9341 12.1997 15 12.0407 15 11.875C15 11.7093 14.9341 11.5503 14.8169 11.4331C14.6997 11.3159 14.5407 11.25 14.375 11.25Z" fill="#414B61"/>
<path d="M1.25 4.37499C1.94036 4.37499 2.5 3.81535 2.5 3.125C2.5 2.43464 1.94036 1.875 1.25 1.875C0.559644 1.875 0 2.43464 0 3.125C0 3.81535 0.559644 4.37499 1.25 4.37499Z" fill="#414B61"/>
<path d="M1.25 8.75C1.94036 8.75 2.5 8.19037 2.5 7.5C2.5 6.80969 1.94036 6.25 1.25 6.25C0.559644 6.25 0 6.80969 0 7.5C0 8.19037 0.559644 8.75 1.25 8.75Z" fill="#414B61"/>
<path d="M1.25 13.125C1.94036 13.125 2.5 12.5654 2.5 11.875C2.5 11.1846 1.94036 10.625 1.25 10.625C0.559644 10.625 0 11.1846 0 11.875C0 12.5654 0.559644 13.125 1.25 13.125Z" fill="#414B61"/>
</g>
</g>
<defs>
<clipPath id="clip0_744_92140">
<rect width="15" height="15" fill="white"/>
</clipPath>
</defs>
</svg>
