<svg width="22" height="22" viewBox="0 0 22 22" fill="none" xmlns="http://www.w3.org/2000/svg">
<g clip-path="url(#clip0_744_79658)">
<mask id="mask0_744_79658" style="mask-type:luminance" maskUnits="userSpaceOnUse" x="0" y="0" width="22" height="22">
<path d="M22 0H0V22H22V0Z" fill="white"/>
</mask>
<g mask="url(#mask0_744_79658)">
<path d="M17.4168 7.722V6.41667C17.4168 4.71486 16.7408 3.08276 15.5374 1.8794C14.334 0.67604 12.702 0 11.0001 0C9.29833 0 7.66625 0.67604 6.46289 1.8794C5.25954 3.08276 4.5835 4.71486 4.5835 6.41667V7.722C3.76708 8.07832 3.07218 8.66481 2.58379 9.40977C2.09539 10.1547 1.83467 11.0259 1.8335 11.9167V17.4167C1.83495 18.6318 2.3183 19.7967 3.17753 20.656C4.03676 21.5152 5.2017 21.9985 6.41683 22H15.5835C16.7986 21.9985 17.9636 21.5152 18.8228 20.656C19.6821 19.7967 20.1654 18.6318 20.1668 17.4167V11.9167C20.1657 11.0259 19.9049 10.1547 19.4165 9.40977C18.9281 8.66481 18.2333 8.07832 17.4168 7.722ZM6.41683 6.41667C6.41683 5.20109 6.89971 4.0353 7.75926 3.17576C8.6188 2.31622 9.78463 1.83333 11.0001 1.83333C12.2157 1.83333 13.3815 2.31622 14.2411 3.17576C15.1006 4.0353 15.5835 5.20109 15.5835 6.41667V7.33333H6.41683V6.41667ZM18.3335 17.4167C18.3335 18.146 18.0438 18.8455 17.5281 19.3612C17.0124 19.8769 16.3129 20.1667 15.5835 20.1667H6.41683C5.68748 20.1667 4.98801 19.8769 4.47229 19.3612C3.95656 18.8455 3.66683 18.146 3.66683 17.4167V11.9167C3.66683 11.1874 3.95656 10.4879 4.47229 9.97214C4.98801 9.45643 5.68748 9.16667 6.41683 9.16667H15.5835C16.3129 9.16667 17.0124 9.45643 17.5281 9.97214C18.0438 10.4879 18.3335 11.1874 18.3335 11.9167V17.4167Z" fill="#6E7894"/>
<path d="M11.0002 12.833C10.7571 12.833 10.524 12.9296 10.352 13.1015C10.1801 13.2735 10.0835 13.5066 10.0835 13.7497V15.583C10.0835 15.8261 10.1801 16.0593 10.352 16.2312C10.524 16.4031 10.7571 16.4997 11.0002 16.4997C11.2434 16.4997 11.4765 16.4031 11.6484 16.2312C11.8203 16.0593 11.9169 15.8261 11.9169 15.583V13.7497C11.9169 13.5066 11.8203 13.2735 11.6484 13.1015C11.4765 12.9296 11.2434 12.833 11.0002 12.833Z" fill="#6E7894"/>
</g>
</g>
<defs>
<clipPath id="clip0_744_79658">
<rect width="22" height="22" fill="white"/>
</clipPath>
</defs>
</svg>
