<svg width="17" height="17" viewBox="0 0 17 17" fill="none" xmlns="http://www.w3.org/2000/svg">
<g clip-path="url(#clip0_744_62327)">
<mask id="mask0_744_62327" style="mask-type:luminance" maskUnits="userSpaceOnUse" x="0" y="0" width="17" height="17">
<path d="M17 0H0V17H17V0Z" fill="white"/>
</mask>
<g mask="url(#mask0_744_62327)">
<path d="M8.49909 8.5C9.05945 8.5 9.60727 8.33383 10.0731 8.02251C10.5391 7.7112 10.9022 7.26863 11.1167 6.75093C11.3311 6.23321 11.3872 5.66352 11.2779 5.11391C11.1687 4.56429 10.8988 4.05944 10.5025 3.6632C10.1063 3.26695 9.60147 2.9971 9.0518 2.88778C8.5022 2.77845 7.93249 2.83456 7.41477 3.04901C6.89707 3.26345 6.45456 3.62661 6.14323 4.09255C5.8319 4.55849 5.66573 5.10628 5.66573 5.66667C5.66573 6.41812 5.96424 7.1388 6.49559 7.67012C7.02694 8.20151 7.74762 8.5 8.49909 8.5ZM8.49909 4.25C8.77923 4.25 9.05315 4.33309 9.28612 4.48875C9.51909 4.64441 9.7007 4.86567 9.80787 5.12453C9.91512 5.3834 9.94317 5.66824 9.88848 5.94304C9.83387 6.21785 9.69893 6.47028 9.50081 6.6684C9.30269 6.86653 9.05024 7.00145 8.77541 7.05611C8.50065 7.11075 8.21582 7.08272 7.95693 6.9755C7.69803 6.86827 7.47682 6.6867 7.32113 6.45372C7.16551 6.22075 7.0824 5.94686 7.0824 5.66667C7.0824 5.29095 7.23167 4.93061 7.49736 4.66494C7.76299 4.39925 8.12332 4.25 8.49909 4.25ZM14.6333 6.48621L14.124 6.31692C14.2156 5.52353 14.1385 4.71973 13.8977 3.95823C13.6569 3.19672 13.2579 2.49472 12.7268 1.89826C12.1956 1.30179 11.5444 0.82433 10.8158 0.497188C10.0872 0.170047 9.29773 0.000614466 8.49909 0C7.68996 0.000312353 6.89035 0.174033 6.15406 0.509458C5.41778 0.844886 4.76194 1.33422 4.23073 1.9445C3.69953 2.55478 3.30529 3.27183 3.07459 4.04732C2.84388 4.82282 2.78207 5.63877 2.89332 6.44017C2.21546 6.56656 1.58865 6.88636 1.08848 7.361C0.742228 7.69016 0.466966 8.08676 0.279618 8.52621C0.0922707 8.96573 -0.00320453 9.4389 -0.000937103 9.91667V12.8031C0.000551528 13.569 0.249665 14.314 0.709234 14.9268C1.16879 15.5395 1.81418 15.9872 2.54907 16.2031L4.58198 16.8406C4.92344 16.9469 5.27907 17.0006 5.63669 17C5.9611 16.9996 6.28396 16.9552 6.59648 16.8682L10.6907 15.657C11.0554 15.5575 11.4402 15.5575 11.8049 15.657L13.4957 16.2237C13.9124 16.3251 14.3467 16.3306 14.7658 16.2397C15.185 16.1489 15.578 15.9641 15.9153 15.6993C16.2527 15.4344 16.5255 15.0965 16.7132 14.7109C16.901 14.3253 16.9987 13.9021 16.9991 13.4732V9.826C16.9975 9.09316 16.7692 8.37873 16.3456 7.78069C15.9221 7.18264 15.324 6.73097 14.6333 6.48621ZM5.49432 2.66475C5.88833 2.26914 6.35659 1.95523 6.87222 1.74103C7.38785 1.52684 7.94071 1.41658 8.49909 1.41658C9.0574 1.41658 9.61025 1.52684 10.1259 1.74103C10.6415 1.95523 11.1098 2.26914 11.5038 2.66475C12.2987 3.46456 12.7455 4.54596 12.7469 5.67357C12.7484 6.80118 12.3044 7.88375 11.5116 8.68558L8.99492 11.1329C8.86352 11.2617 8.68694 11.3338 8.50298 11.3338C8.31903 11.3338 8.14237 11.2617 8.01105 11.1329L5.49432 8.69621C4.69777 7.89466 4.2507 6.81051 4.2507 5.68048C4.2507 4.55045 4.69777 3.46631 5.49432 2.66475ZM15.5824 13.4732C15.5828 13.6878 15.5343 13.8996 15.4405 14.0925C15.3468 14.2855 15.2102 14.4545 15.0413 14.5867C14.8816 14.7151 14.6956 14.8066 14.4965 14.855C14.2975 14.9034 14.0902 14.9073 13.8895 14.8665L12.2285 14.3083C11.6002 14.1279 10.9343 14.1239 10.3039 14.297L6.2069 15.5068C5.81326 15.6154 5.39667 15.6083 5.00698 15.4863L2.95707 14.8488C2.5134 14.7205 2.12332 14.4518 1.8454 14.0829C1.56748 13.714 1.41671 13.265 1.41573 12.8031V9.91667C1.41414 9.63036 1.47112 9.34674 1.5832 9.08324C1.69526 8.81974 1.86004 8.58195 2.0674 8.38454C2.39199 8.07521 2.80549 7.87553 3.24961 7.81363C3.53514 8.52139 3.96034 9.16435 4.49982 9.70417L7.02644 12.15C7.42136 12.5367 7.95204 12.7533 8.50475 12.7533C9.05739 12.7533 9.58815 12.5367 9.98305 12.15L12.5068 9.69708C13.0719 9.12971 13.5097 8.44858 13.791 7.69888L14.1714 7.82496C14.5839 7.97279 14.9407 8.24429 15.1933 8.60235C15.4458 8.96049 15.5817 9.38783 15.5824 9.826V13.4732Z" fill="#414B61"/>
</g>
</g>
<defs>
<clipPath id="clip0_744_62327">
<rect width="17" height="17" fill="white"/>
</clipPath>
</defs>
</svg>
