<svg width="22" height="22" viewBox="0 0 22 22" fill="none" xmlns="http://www.w3.org/2000/svg">
<g clip-path="url(#clip0_744_62627)">
<mask id="mask0_744_62627" style="mask-type:luminance" maskUnits="userSpaceOnUse" x="0" y="0" width="22" height="22">
<path d="M22 0H0V22H22V0Z" fill="white"/>
</mask>
<g mask="url(#mask0_744_62627)">
<path d="M4.125 16.042H1.83333C1.34711 16.042 0.880787 16.2351 0.53697 16.579C0.193154 16.9227 0 17.389 0 17.8753V20.167C0 20.6532 0.193154 21.1195 0.53697 21.4633C0.880787 21.8071 1.34711 22.0003 1.83333 22.0003H4.125C4.61123 22.0003 5.07754 21.8071 5.42136 21.4633C5.76518 21.1195 5.95833 20.6532 5.95833 20.167V17.8753C5.95833 17.389 5.76518 16.9227 5.42136 16.579C5.07754 16.2351 4.61123 16.042 4.125 16.042ZM4.125 20.167H1.83333V17.8753H4.125V20.167Z" fill="#414B61"/>
<path d="M20.167 16.042H17.8753C17.3891 16.042 16.9228 16.2351 16.579 16.579C16.2351 16.9227 16.042 17.389 16.042 17.8753V20.167C16.042 20.6532 16.2351 21.1195 16.579 21.4633C16.9228 21.8071 17.3891 22.0003 17.8753 22.0003H20.167C20.6532 22.0003 21.1195 21.8071 21.4633 21.4633C21.8072 21.1195 22.0003 20.6532 22.0003 20.167V17.8753C22.0003 17.389 21.8072 16.9227 21.4633 16.579C21.1195 16.2351 20.6532 16.042 20.167 16.042ZM20.167 20.167H17.8753V17.8753H20.167V20.167Z" fill="#414B61"/>
<path d="M4.125 8.02051H1.83333C1.34711 8.02051 0.880787 8.21366 0.53697 8.55747C0.193154 8.90129 0 9.36759 0 9.85388V12.1455C0 12.6317 0.193154 13.0981 0.53697 13.4419C0.880787 13.7856 1.34711 13.9788 1.83333 13.9788H4.125C4.61123 13.9788 5.07754 13.7856 5.42136 13.4419C5.76518 13.0981 5.95833 12.6317 5.95833 12.1455V9.85388C5.95833 9.36759 5.76518 8.90129 5.42136 8.55747C5.07754 8.21366 4.61123 8.02051 4.125 8.02051ZM4.125 12.1455H1.83333V9.85388H4.125V12.1455Z" fill="#414B61"/>
<path d="M20.167 8.02051H17.8753C17.3891 8.02051 16.9228 8.21366 16.579 8.55747C16.2351 8.90129 16.042 9.36759 16.042 9.85388V12.1455C16.042 12.6317 16.2351 13.0981 16.579 13.4419C16.9228 13.7856 17.3891 13.9788 17.8753 13.9788H20.167C20.6532 13.9788 21.1195 13.7856 21.4633 13.4419C21.8072 13.0981 22.0003 12.6317 22.0003 12.1455V9.85388C22.0003 9.36759 21.8072 8.90129 21.4633 8.55747C21.1195 8.21366 20.6532 8.02051 20.167 8.02051ZM20.167 12.1455H17.8753V9.85388H20.167V12.1455Z" fill="#414B61"/>
<path d="M4.125 0H1.83333C1.34711 0 0.880787 0.193154 0.53697 0.53697C0.193154 0.880787 0 1.34711 0 1.83333V4.125C0 4.61123 0.193154 5.07754 0.53697 5.42136C0.880787 5.76518 1.34711 5.95833 1.83333 5.95833H4.125C4.61123 5.95833 5.07754 5.76518 5.42136 5.42136C5.76518 5.07754 5.95833 4.61123 5.95833 4.125V1.83333C5.95833 1.34711 5.76518 0.880787 5.42136 0.53697C5.07754 0.193154 4.61123 0 4.125 0ZM4.125 4.125H1.83333V1.83333H4.125V4.125Z" fill="#414B61"/>
<path d="M12.1455 16.042H9.85386C9.36757 16.042 8.9013 16.2351 8.55747 16.579C8.21366 16.9227 8.02051 17.389 8.02051 17.8753V20.167C8.02051 20.6532 8.21366 21.1195 8.55747 21.4633C8.9013 21.8071 9.36757 22.0003 9.85386 22.0003H12.1455C12.6317 22.0003 13.098 21.8071 13.4419 21.4633C13.7856 21.1195 13.9789 20.6532 13.9789 20.167V17.8753C13.9789 17.389 13.7856 16.9227 13.4419 16.579C13.098 16.2351 12.6317 16.042 12.1455 16.042ZM12.1455 20.167H9.85386V17.8753H12.1455V20.167Z" fill="#414B61"/>
<path d="M12.1455 8.02051H9.85386C9.36757 8.02051 8.9013 8.21366 8.55747 8.55747C8.21366 8.90129 8.02051 9.36759 8.02051 9.85388V12.1455C8.02051 12.6317 8.21366 13.0981 8.55747 13.4419C8.9013 13.7856 9.36757 13.9788 9.85386 13.9788H12.1455C12.6317 13.9788 13.098 13.7856 13.4419 13.4419C13.7856 13.0981 13.9789 12.6317 13.9789 12.1455V9.85388C13.9789 9.36759 13.7856 8.90129 13.4419 8.55747C13.098 8.21366 12.6317 8.02051 12.1455 8.02051ZM12.1455 12.1455H9.85386V9.85388H12.1455V12.1455Z" fill="#414B61"/>
<path d="M12.1455 0H9.85386C9.36757 0 8.9013 0.193154 8.55747 0.53697C8.21366 0.880787 8.02051 1.34711 8.02051 1.83333V4.125C8.02051 4.61123 8.21366 5.07754 8.55747 5.42136C8.9013 5.76518 9.36757 5.95833 9.85386 5.95833H12.1455C12.6317 5.95833 13.098 5.76518 13.4419 5.42136C13.7856 5.07754 13.9789 4.61123 13.9789 4.125V1.83333C13.9789 1.34711 13.7856 0.880787 13.4419 0.53697C13.098 0.193154 12.6317 0 12.1455 0ZM12.1455 4.125H9.85386V1.83333H12.1455V4.125Z" fill="#414B61"/>
<path d="M20.167 0H17.8753C17.3891 0 16.9228 0.193154 16.579 0.53697C16.2351 0.880787 16.042 1.34711 16.042 1.83333V4.125C16.042 4.61123 16.2351 5.07754 16.579 5.42136C16.9228 5.76518 17.3891 5.95833 17.8753 5.95833H20.167C20.6532 5.95833 21.1195 5.76518 21.4633 5.42136C21.8072 5.07754 22.0003 4.61123 22.0003 4.125V1.83333C22.0003 1.34711 21.8072 0.880787 21.4633 0.53697C21.1195 0.193154 20.6532 0 20.167 0ZM20.167 4.125H17.8753V1.83333H20.167V4.125Z" fill="#414B61"/>
</g>
</g>
<defs>
<clipPath id="clip0_744_62627">
<rect width="22" height="22" fill="white"/>
</clipPath>
</defs>
</svg>
