<svg width="17" height="17" viewBox="0 0 17 17" fill="none" xmlns="http://www.w3.org/2000/svg">
<g clip-path="url(#clip0_744_96339)">
<mask id="mask0_744_96339" style="mask-type:luminance" maskUnits="userSpaceOnUse" x="0" y="0" width="17" height="17">
<path d="M17 0H0V17H17V0Z" fill="white"/>
</mask>
<g mask="url(#mask0_744_96339)">
<path d="M16.9998 7.96605C16.8974 6.30856 16.3121 4.71729 15.3162 3.38839C14.3204 2.0595 12.9573 1.05108 11.3953 0.48746C9.83324 -0.0761583 8.14032 -0.170341 6.52538 0.216524C4.91043 0.603388 3.44398 1.45439 2.30683 2.66461C1.16968 3.87484 0.411535 5.39137 0.125865 7.02727C-0.159805 8.66319 0.039487 10.3469 0.699172 11.8709C1.35886 13.3949 2.4501 14.6925 3.83836 15.6038C5.22662 16.5151 6.85122 17.0003 8.51184 16.9994H13.4581C14.3972 16.9985 15.2975 16.6251 15.9615 15.9611C16.6254 15.2971 16.9989 14.3968 16.9998 13.4578V7.96605ZM15.5831 13.4578C15.5831 14.0213 15.3593 14.5618 14.9608 14.9603C14.5622 15.3589 14.0218 15.5828 13.4581 15.5828H8.51184C7.51238 15.5823 6.52417 15.3712 5.61173 14.9632C4.69929 14.5552 3.8831 13.9594 3.21636 13.2148C2.54641 12.4706 2.04331 11.5917 1.74083 10.637C1.43835 9.68241 1.34346 8.67417 1.46253 7.67988C1.65055 6.11159 2.35516 4.65048 3.4653 3.52687C4.57544 2.40327 6.02795 1.68109 7.59384 1.47417C7.89935 1.43589 8.20683 1.41649 8.51468 1.41609C10.1654 1.41159 11.7651 1.98835 13.0331 3.04526C13.7738 3.66076 14.3816 4.42024 14.82 5.27766C15.2583 6.13508 15.5179 7.07259 15.5831 8.03334V13.4578Z" fill="#414B61"/>
<path d="M5.66634 6.37369H8.49964C8.68756 6.37369 8.86769 6.29907 9.00057 6.16623C9.13339 6.03339 9.20797 5.85322 9.20797 5.66536C9.20797 5.4775 9.13339 5.29734 9.00057 5.1645C8.86769 5.03165 8.68756 4.95703 8.49964 4.95703H5.66634C5.47848 4.95703 5.29831 5.03165 5.16547 5.1645C5.03263 5.29734 4.95801 5.4775 4.95801 5.66536C4.95801 5.85322 5.03263 6.03339 5.16547 6.16623C5.29831 6.29907 5.47848 6.37369 5.66634 6.37369Z" fill="#414B61"/>
<path d="M11.333 7.79102H5.66634C5.47848 7.79102 5.29831 7.86567 5.16547 7.99849C5.03263 8.13137 4.95801 8.3115 4.95801 8.49935C4.95801 8.6872 5.03263 8.8674 5.16547 9.00021C5.29831 9.13309 5.47848 9.20768 5.66634 9.20768H11.333C11.5209 9.20768 11.701 9.13309 11.8339 9.00021C11.9667 8.8674 12.0413 8.6872 12.0413 8.49935C12.0413 8.3115 11.9667 8.13137 11.8339 7.99849C11.701 7.86567 11.5209 7.79102 11.333 7.79102Z" fill="#414B61"/>
<path d="M11.333 10.625H5.66634C5.47848 10.625 5.29831 10.6997 5.16547 10.8325C5.03263 10.9653 4.95801 11.1455 4.95801 11.3333C4.95801 11.5212 5.03263 11.7014 5.16547 11.8342C5.29831 11.9671 5.47848 12.0417 5.66634 12.0417H11.333C11.5209 12.0417 11.701 11.9671 11.8339 11.8342C11.9667 11.7014 12.0413 11.5212 12.0413 11.3333C12.0413 11.1455 11.9667 10.9653 11.8339 10.8325C11.701 10.6997 11.5209 10.625 11.333 10.625Z" fill="#414B61"/>
</g>
</g>
<defs>
<clipPath id="clip0_744_96339">
<rect width="17" height="17" fill="white"/>
</clipPath>
</defs>
</svg>
