<svg width="32" height="32" viewBox="0 0 32 32" fill="none" xmlns="http://www.w3.org/2000/svg">
<circle cx="16" cy="16" r="16" fill="#C83F3E"/>
<g clip-path="url(#clip0_774_22429)">
<mask id="mask0_774_22429" style="mask-type:luminance" maskUnits="userSpaceOnUse" x="7" y="6" width="19" height="19">
<path d="M26 6H7V25H26V6Z" fill="white"/>
</mask>
<g mask="url(#mask0_774_22429)">
<path d="M24.8558 16.8159L23.3517 11.4041C22.9108 9.81864 21.9526 8.42605 20.6294 7.4477C19.3062 6.46935 17.6939 5.96136 16.0489 6.00449C14.4039 6.04762 12.8205 6.63939 11.5503 7.68574C10.2802 8.73208 9.39634 10.173 9.03914 11.7793L7.87459 17.0162C7.74596 17.5949 7.74894 18.195 7.88329 18.7724C8.01766 19.3497 8.27998 19.8895 8.65089 20.3519C9.0218 20.8144 9.49183 21.1875 10.0263 21.444C10.5607 21.7004 11.1459 21.8335 11.7387 21.8335H12.6206C12.8023 22.7283 13.2878 23.5328 13.9948 24.1106C14.7017 24.6885 15.5868 25.0041 16.4998 25.0041C17.4129 25.0041 18.2979 24.6885 19.0049 24.1106C19.7118 23.5328 20.1973 22.7283 20.379 21.8335H21.0424C21.6526 21.8335 22.2546 21.6925 22.8013 21.4214C23.3479 21.1503 23.8246 20.7564 24.1938 20.2706C24.5631 19.7849 24.8151 19.2203 24.9301 18.621C25.0451 18.0217 25.0199 17.4039 24.8566 16.8159H24.8558ZM16.4998 23.4168C16.0104 23.4148 15.5335 23.2616 15.1344 22.9781C14.7354 22.6947 14.4336 22.2949 14.2705 21.8335H18.7291C18.566 22.2949 18.2643 22.6947 17.8652 22.9781C17.4662 23.2616 16.9893 23.4148 16.4998 23.4168ZM22.9329 19.312C22.7123 19.6047 22.4264 19.8419 22.0981 20.0047C21.7698 20.1676 21.408 20.2516 21.0416 20.2501H11.7387C11.3831 20.2501 11.032 20.1702 10.7114 20.0163C10.3908 19.8624 10.1088 19.6385 9.88635 19.361C9.66386 19.0836 9.5065 18.7597 9.42591 18.4134C9.34532 18.067 9.34355 17.7069 9.42072 17.3598L10.5845 12.1221C10.865 10.8604 11.5593 9.7286 12.5569 8.90672C13.5545 8.08485 14.7982 7.62005 16.0903 7.5862C17.3824 7.55235 18.6488 7.95139 19.6881 8.71991C20.7274 9.48842 21.4799 10.5823 21.8261 11.8276L23.3303 17.2394C23.4297 17.592 23.4456 17.9629 23.3765 18.3227C23.3076 18.6825 23.1556 19.0212 22.9329 19.312Z" fill="#FDE4E1"/>
</g>
</g>
<defs>
<clipPath id="clip0_774_22429">
<rect width="19" height="19" fill="white" transform="translate(7 6)"/>
</clipPath>
</defs>
</svg>
