<svg width="32" height="32" viewBox="0 0 32 32" fill="none" xmlns="http://www.w3.org/2000/svg">
<circle cx="16" cy="16" r="16" fill="#1664D2"/>
<g clip-path="url(#clip0_774_22430)">
<mask id="mask0_774_22430" style="mask-type:luminance" maskUnits="userSpaceOnUse" x="7" y="7" width="17" height="17">
<path d="M24 7H7V24H24V7Z" fill="white"/>
</mask>
<g mask="url(#mask0_774_22430)">
<path d="M18.3335 11.25C18.5213 11.25 18.7014 11.3246 18.8343 11.4575C18.9671 11.5903 19.0418 11.7705 19.0418 11.9583C19.0418 12.1462 18.9671 12.3264 18.8343 12.4592C18.7014 12.592 18.5213 12.6667 18.3335 12.6667H12.6667C12.4789 12.6667 12.2987 12.592 12.1659 12.4592C12.033 12.3264 11.9584 12.1462 11.9584 11.9583C11.9584 11.7705 12.033 11.5903 12.1659 11.4575C12.2987 11.3246 12.4789 11.25 12.6667 11.25H18.3335ZM23.7926 23.7925C23.6597 23.9253 23.4796 23.9999 23.2918 23.9999C23.1039 23.9999 22.9238 23.9253 22.791 23.7925L21.086 22.0875C20.5811 22.4098 19.9949 22.5817 19.396 22.5833C18.7655 22.5833 18.1492 22.3964 17.625 22.0461C17.1009 21.6959 16.6923 21.198 16.4511 20.6157C16.2098 20.0332 16.1467 19.3923 16.2697 18.774C16.3927 18.1557 16.6962 17.5877 17.142 17.1419C17.5878 16.6962 18.1557 16.3926 18.774 16.2696C19.3924 16.1466 20.0333 16.2097 20.6157 16.4509C21.1982 16.6922 21.696 17.1008 22.0463 17.6249C22.3965 18.1492 22.5835 18.7654 22.5835 19.3958C22.5818 19.9948 22.4098 20.581 22.0876 21.0859L23.7926 22.7909C23.9253 22.9237 23.9999 23.1038 23.9999 23.2917C23.9999 23.4795 23.9253 23.6596 23.7926 23.7925ZM19.396 21.1667C19.7462 21.1667 20.0886 21.0628 20.3798 20.8682C20.6709 20.6737 20.8979 20.3971 21.032 20.0735C21.166 19.7499 21.2011 19.3939 21.1327 19.0504C21.0644 18.7068 20.8957 18.3913 20.6481 18.1436C20.4004 17.896 20.0849 17.7274 19.7414 17.659C19.3979 17.5907 19.0419 17.6258 18.7182 17.7598C18.3947 17.8938 18.1181 18.1208 17.9235 18.412C17.729 18.7032 17.6251 19.0456 17.6251 19.3958C17.6251 19.8655 17.8116 20.3159 18.1438 20.648C18.4758 20.9801 18.9263 21.1667 19.396 21.1667ZM16.2085 22.5833H11.9584C11.3948 22.5833 10.8543 22.3594 10.4558 21.9609C10.0573 21.5624 9.83341 21.0219 9.83341 20.4583V10.5417C9.83341 9.97808 10.0573 9.43758 10.4558 9.03906C10.8543 8.64055 11.3948 8.41667 11.9584 8.41667H20.4585C20.6463 8.41667 20.8264 8.4913 20.9593 8.62413C21.0921 8.75697 21.1668 8.93714 21.1668 9.125V14.7917C21.1668 14.9795 21.2414 15.1597 21.3742 15.2925C21.5071 15.4253 21.6872 15.5 21.8751 15.5C22.063 15.5 22.2431 15.4253 22.376 15.2925C22.5088 15.1597 22.5835 14.9795 22.5835 14.7917V9.125C22.5835 8.56141 22.3595 8.02091 21.961 7.6224C21.5625 7.22388 21.022 7 20.4585 7H11.9584C11.0195 7.00112 10.1193 7.37462 9.45532 8.03857C8.79137 8.70252 8.41787 9.60271 8.41675 10.5417V20.4583C8.41787 21.3973 8.79137 22.2975 9.45532 22.9614C10.1193 23.6254 11.0195 23.9989 11.9584 24H16.2085C16.3963 24 16.5764 23.9253 16.7093 23.7925C16.8421 23.6597 16.9168 23.4795 16.9168 23.2917C16.9168 23.1038 16.8421 22.9236 16.7093 22.7908C16.5764 22.658 16.3963 22.5833 16.2085 22.5833Z" fill="#DCF3FF"/>
</g>
</g>
<defs>
<clipPath id="clip0_774_22430">
<rect width="17" height="17" fill="white" transform="translate(7 7)"/>
</clipPath>
</defs>
</svg>
