<svg width="15" height="15" viewBox="0 0 15 15" fill="none" xmlns="http://www.w3.org/2000/svg">
<g clip-path="url(#clip0_744_89015)">
<mask id="mask0_744_89015" style="mask-type:luminance" maskUnits="userSpaceOnUse" x="0" y="0" width="15" height="15">
<path d="M15 0H0V15H15V0Z" fill="white"/>
</mask>
<g mask="url(#mask0_744_89015)">
<path d="M14.0968 8.53927L12.9093 4.26679C12.5612 3.01512 11.8048 1.91572 10.7602 1.14333C9.71554 0.370947 8.44267 -0.0300945 7.14398 0.00395552C5.84525 0.0380056 4.59518 0.505193 3.59246 1.33125C2.58975 2.15732 1.89193 3.29485 1.60993 4.56304L0.690552 8.69739C0.589 9.15427 0.591348 9.62808 0.697421 10.0839C0.803496 10.5396 1.0106 10.9658 1.30341 11.3309C1.59624 11.696 1.96731 11.9906 2.38925 12.193C2.81118 12.3955 3.27319 12.5006 3.74118 12.5005H4.43743C4.58088 13.207 4.96413 13.8421 5.52226 14.2983C6.0804 14.7545 6.7791 15.0036 7.49992 15.0036C8.22079 15.0036 8.91948 14.7545 9.4776 14.2983C10.0357 13.8421 10.419 13.207 10.5624 12.5005H11.0862C11.5679 12.5006 12.0432 12.3892 12.4748 12.1752C12.9064 11.9611 13.2827 11.6502 13.5742 11.2667C13.8657 10.8832 14.0647 10.4375 14.1554 9.96433C14.2462 9.49121 14.2264 9.00345 14.0974 8.53927H14.0968ZM7.49992 13.7505C7.11354 13.749 6.73704 13.628 6.42198 13.4042C6.10695 13.1805 5.86873 12.8648 5.73993 12.5005H9.25992C9.1311 12.8648 8.89291 13.1805 8.57785 13.4042C8.26285 13.628 7.88635 13.749 7.49992 13.7505ZM12.5787 10.5099C12.4045 10.741 12.1789 10.9282 11.9197 11.0568C11.6605 11.1853 11.3749 11.2517 11.0855 11.2505H3.74118C3.46042 11.2505 3.18325 11.1874 2.93014 11.0659C2.67703 10.9444 2.45443 10.7676 2.27878 10.5486C2.10313 10.3296 1.9789 10.0739 1.91528 9.80046C1.85165 9.52702 1.85025 9.2427 1.91118 8.96864L2.82993 4.83366C3.0514 3.83754 3.5995 2.94404 4.38709 2.29519C5.17468 1.64635 6.15657 1.2794 7.17667 1.25267C8.19673 1.22595 9.19648 1.54099 10.017 2.1477C10.8375 2.75443 11.4316 3.618 11.7049 4.60116L12.8924 8.87364C12.9709 9.15202 12.9834 9.44483 12.9289 9.72889C12.8745 10.0129 12.7545 10.2803 12.5787 10.5099Z" fill="#414B61"/>
</g>
</g>
<defs>
<clipPath id="clip0_744_89015">
<rect width="15" height="15" fill="white"/>
</clipPath>
</defs>
</svg>
