<svg width="17" height="15" viewBox="0 0 17 15" fill="none" xmlns="http://www.w3.org/2000/svg">
<g clip-path="url(#clip0_744_72752)">
<path d="M13.3593 0H3.51573C1.57511 0.00223723 0.00230713 1.52739 0 3.40922V8.86391C0.00230713 10.7457 1.57511 12.2709 3.51573 12.2731H7.73448V13.6369H4.92209C4.53384 13.6369 4.21908 13.9421 4.21908 14.3186C4.21908 14.6951 4.53384 15.0003 4.92209 15.0003H11.9532C12.3415 15.0003 12.6562 14.6951 12.6562 14.3186C12.6562 13.9421 12.3415 13.6369 11.9532 13.6369H9.14084V12.2731H13.3596C15.3002 12.2709 16.873 10.7457 16.8753 8.86391V3.40922C16.873 1.52739 15.3002 0.00223723 13.3596 0H13.3593ZM3.51573 1.36375H13.3596C14.5247 1.36375 15.469 2.27942 15.469 3.40922V8.18188H1.40636V3.40922C1.40636 2.27942 2.35063 1.36375 3.51573 1.36375ZM13.3596 10.9094H3.51573C2.62518 10.9059 1.83252 10.36 1.53589 9.54563H15.3398C15.0428 10.36 14.2505 10.9055 13.3599 10.9094H13.3596Z" fill="#414B61"/>
</g>
<defs>
<clipPath id="clip0_744_72752">
<rect width="16.875" height="15" fill="white"/>
</clipPath>
</defs>
</svg>
