<svg width="17" height="17" viewBox="0 0 17 17" fill="none" xmlns="http://www.w3.org/2000/svg">
<g clip-path="url(#clip0_744_62335)">
<mask id="mask0_744_62335" style="mask-type:luminance" maskUnits="userSpaceOnUse" x="0" y="0" width="17" height="17">
<path d="M17 0H0V17H17V0Z" fill="white"/>
</mask>
<g mask="url(#mask0_744_62335)">
<path d="M11.3335 4.25C11.5213 4.25 11.7014 4.32463 11.8343 4.45746C11.9671 4.5903 12.0418 4.77047 12.0418 4.95833C12.0418 5.1462 11.9671 5.32636 11.8343 5.4592C11.7014 5.59204 11.5213 5.66667 11.3335 5.66667H5.66675C5.47889 5.66667 5.29872 5.59204 5.16589 5.4592C5.03305 5.32636 4.95842 5.1462 4.95842 4.95833C4.95842 4.77047 5.03305 4.5903 5.16589 4.45746C5.29872 4.32463 5.47889 4.25 5.66675 4.25H11.3335ZM16.7926 16.7925C16.6597 16.9253 16.4796 16.9999 16.2918 16.9999C16.1039 16.9999 15.9238 16.9253 15.791 16.7925L14.086 15.0875C13.5811 15.4098 12.9949 15.5817 12.396 15.5833C11.7655 15.5833 11.1492 15.3964 10.625 15.0461C10.1009 14.6959 9.69231 14.198 9.45105 13.6157C9.2098 13.0332 9.14668 12.3923 9.26965 11.774C9.39269 11.1557 9.69621 10.5877 10.142 10.1419C10.5878 9.69616 11.1557 9.39257 11.774 9.2696C12.3924 9.14657 13.0333 9.20968 13.6157 9.45094C14.1982 9.69219 14.696 10.1008 15.0463 10.6249C15.3965 11.1492 15.5835 11.7654 15.5835 12.3958C15.5818 12.9948 15.4098 13.581 15.0876 14.0859L16.7926 15.7909C16.9253 15.9237 16.9999 16.1038 16.9999 16.2917C16.9999 16.4795 16.9253 16.6596 16.7926 16.7925ZM12.396 14.1667C12.7462 14.1667 13.0886 14.0628 13.3798 13.8682C13.6709 13.6737 13.8979 13.3971 14.032 13.0735C14.166 12.7499 14.2011 12.3939 14.1327 12.0504C14.0644 11.7068 13.8957 11.3913 13.6481 11.1436C13.4004 10.896 13.0849 10.7274 12.7414 10.659C12.3979 10.5907 12.0419 10.6258 11.7182 10.7598C11.3947 10.8938 11.1181 11.1208 10.9235 11.412C10.729 11.7032 10.6251 12.0456 10.6251 12.3958C10.6251 12.8655 10.8116 13.3159 11.1438 13.648C11.4758 13.9801 11.9263 14.1667 12.396 14.1667ZM9.20845 15.5833H4.95842C4.39483 15.5833 3.85433 15.3594 3.45581 14.9609C3.0573 14.5624 2.83341 14.0219 2.83341 13.4583V3.54167C2.83341 2.97808 3.0573 2.43758 3.45581 2.03906C3.85433 1.64055 4.39483 1.41667 4.95842 1.41667H13.4585C13.6463 1.41667 13.8264 1.4913 13.9593 1.62413C14.0921 1.75697 14.1668 1.93714 14.1668 2.125V7.79167C14.1668 7.97952 14.2414 8.15972 14.3742 8.29253C14.5071 8.42534 14.6872 8.5 14.8751 8.5C15.063 8.5 15.2431 8.42534 15.376 8.29253C15.5088 8.15972 15.5835 7.97952 15.5835 7.79167V2.125C15.5835 1.56141 15.3595 1.02091 14.961 0.622398C14.5625 0.223883 14.022 0 13.4585 0H4.95842C4.01946 0.00112473 3.11927 0.374625 2.45532 1.03857C1.79137 1.70252 1.41787 2.60271 1.41675 3.54167V13.4583C1.41787 14.3973 1.79137 15.2975 2.45532 15.9614C3.11927 16.6254 4.01946 16.9989 4.95842 17H9.20845C9.3963 17 9.57643 16.9253 9.70931 16.7925C9.84213 16.6597 9.91678 16.4795 9.91678 16.2917C9.91678 16.1038 9.84213 15.9236 9.70931 15.7908C9.57643 15.658 9.3963 15.5833 9.20845 15.5833Z" fill="#374957"/>
</g>
</g>
<defs>
<clipPath id="clip0_744_62335">
<rect width="17" height="17" fill="white"/>
</clipPath>
</defs>
</svg>
