<svg width="22" height="22" viewBox="0 0 22 22" fill="none" xmlns="http://www.w3.org/2000/svg">
<g clip-path="url(#clip0_744_62679)">
<path d="M21.0284 3.40962C20.4142 2.88712 19.5984 2.65796 18.7917 2.79546C18.5992 2.82296 18.4067 2.87796 18.2326 2.95129C17.9117 1.78712 16.8484 0.925456 15.5834 0.925456C15.0976 0.925456 14.6301 1.05379 14.2359 1.28296C13.7501 0.522122 12.8884 0.00878906 11.9167 0.00878906C10.6517 0.00878906 9.57924 0.870456 9.25841 2.03462C9.08424 1.96129 8.89174 1.90629 8.69924 1.87879C7.89257 1.75046 7.07674 1.97046 6.46257 2.49296C5.84841 3.01546 5.49091 3.77629 5.49091 4.59212V12.5671L4.61091 11.7513C3.50174 10.7246 1.76007 10.7796 0.733408 11.8888C-0.302425 12.998 -0.247425 14.7396 0.852575 15.7663L3.86841 18.6813C6.10507 20.8355 9.03841 22.018 12.1367 22.018H13.7317C18.2784 22.018 21.9817 18.3146 21.9817 13.768V5.49962C21.9817 4.69296 21.6242 3.93212 21.0101 3.40046L21.0284 3.40962ZM20.1667 13.7588C20.1667 17.2971 17.2884 20.1755 13.7501 20.1755H12.1551C9.53341 20.1755 7.04924 19.1763 5.15174 17.3521L2.12674 14.428C1.76007 14.0796 1.74174 13.5021 2.08091 13.1263C2.42924 12.7596 3.00674 12.7413 3.37341 13.0805L5.79341 15.3355C6.05924 15.583 6.45341 15.6471 6.78341 15.5096C7.12257 15.363 7.33341 15.033 7.33341 14.6663V4.58296C7.33341 4.31712 7.45258 4.06046 7.65424 3.88629C7.86508 3.71212 8.13091 3.63879 8.40591 3.68462C8.82757 3.75796 9.15757 4.19796 9.15757 4.68379V9.16629C9.15757 9.67046 9.57008 10.083 10.0742 10.083C10.5784 10.083 10.9909 9.67046 10.9909 9.16629V2.74962C10.9909 2.24546 11.4034 1.83296 11.9076 1.83296C12.4117 1.83296 12.8242 2.24546 12.8242 2.74962V9.16629C12.8242 9.67046 13.2367 10.083 13.7409 10.083C14.2451 10.083 14.6576 9.67046 14.6576 9.16629V3.66629C14.6576 3.16212 15.0701 2.74962 15.5742 2.74962C16.0784 2.74962 16.4909 3.16212 16.4909 3.66629V9.16629C16.4909 9.67046 16.9034 10.083 17.4076 10.083C17.9117 10.083 18.3242 9.67046 18.3242 9.16629V5.60046C18.3242 5.10546 18.6542 4.66546 19.0851 4.60129C19.3601 4.55546 19.6259 4.62879 19.8367 4.80296C20.0384 4.97712 20.1576 5.23379 20.1576 5.49962V13.7496L20.1667 13.7588Z" fill="#414B61"/>
</g>
<defs>
<clipPath id="clip0_744_62679">
<rect width="22" height="22" fill="white"/>
</clipPath>
</defs>
</svg>
