<svg width="22" height="22" viewBox="0 0 22 22" fill="none" xmlns="http://www.w3.org/2000/svg">
<g clip-path="url(#clip0_744_79665)">
<mask id="mask0_744_79665" style="mask-type:luminance" maskUnits="userSpaceOnUse" x="0" y="0" width="22" height="22">
<path d="M22 0H0V22H22V0Z" fill="white"/>
</mask>
<g mask="url(#mask0_744_79665)">
<path d="M11 11C12.0878 11 13.1511 10.6774 14.0556 10.0731C14.9601 9.46876 15.6651 8.60976 16.0814 7.60476C16.4976 6.59977 16.6065 5.49391 16.3943 4.42701C16.1821 3.36011 15.6583 2.38011 14.889 1.61091C14.1199 0.841726 13.1399 0.317902 12.073 0.105683C11.0061 -0.106535 9.90028 0.00238294 8.89524 0.418664C7.89025 0.834947 7.03126 1.5399 6.42691 2.44437C5.82257 3.34883 5.5 4.4122 5.5 5.5C5.50146 6.95824 6.08139 8.35634 7.11252 9.38745C8.14366 10.4186 9.54177 10.9986 11 11ZM11 1.83333C11.7252 1.83333 12.4341 2.04838 13.0371 2.45128C13.6401 2.85418 14.1101 3.42683 14.3875 4.09683C14.6651 4.76682 14.7377 5.50407 14.5962 6.21533C14.4547 6.9266 14.1055 7.57994 13.5927 8.09273C13.0799 8.60552 12.4266 8.95473 11.7154 9.09621C11.004 9.23767 10.2669 9.16508 9.59686 8.88756C8.92683 8.61004 8.35418 8.14007 7.95128 7.53709C7.54838 6.93412 7.33333 6.2252 7.33333 5.5C7.33333 4.52755 7.71964 3.59491 8.40727 2.90727C9.09491 2.21964 10.0275 1.83333 11 1.83333Z" fill="#6E7894"/>
<path d="M11 12.834C8.81271 12.8365 6.7157 13.7064 5.16905 15.2531C3.6224 16.7997 2.75243 18.8967 2.75 21.084C2.75 21.3271 2.84658 21.5603 3.01848 21.7322C3.19039 21.9041 3.42355 22.0007 3.66667 22.0007C3.90979 22.0007 4.14294 21.9041 4.31485 21.7322C4.48675 21.5603 4.58333 21.3271 4.58333 21.084C4.58333 19.3822 5.25938 17.7501 6.46273 16.5468C7.66609 15.3434 9.29821 14.6673 11 14.6673C12.7018 14.6673 14.3339 15.3434 15.5372 16.5468C16.7406 17.7501 17.4167 19.3822 17.4167 21.084C17.4167 21.3271 17.5133 21.5603 17.6852 21.7322C17.857 21.9041 18.0902 22.0007 18.3333 22.0007C18.5764 22.0007 18.8096 21.9041 18.9815 21.7322C19.1534 21.5603 19.25 21.3271 19.25 21.084C19.2476 18.8967 18.3776 16.7997 16.8309 15.2531C15.2843 13.7064 13.1873 12.8365 11 12.834Z" fill="#6E7894"/>
</g>
</g>
<defs>
<clipPath id="clip0_744_79665">
<rect width="22" height="22" fill="white"/>
</clipPath>
</defs>
</svg>
