<svg width="19" height="19" viewBox="0 0 19 19" fill="none" xmlns="http://www.w3.org/2000/svg">
<g clip-path="url(#clip0_744_62323)">
<path d="M9.5 9.5C10.4395 9.5 11.3578 9.22142 12.139 8.69948C12.9201 8.17755 13.5289 7.4357 13.8884 6.56775C14.2479 5.6998 14.342 4.74473 14.1587 3.82332C13.9755 2.90191 13.5231 2.05554 12.8588 1.39124C12.1945 0.726945 11.3481 0.274552 10.4267 0.091272C9.50527 -0.0920077 8.5502 0.00205811 7.68225 0.361574C6.8143 0.721091 6.07246 1.32991 5.55052 2.11104C5.02858 2.89218 4.75 3.81054 4.75 4.75C4.75126 6.00939 5.25211 7.21685 6.14263 8.10737C7.03316 8.9979 8.24061 9.49874 9.5 9.5ZM9.5 1.58334C10.1263 1.58334 10.7385 1.76906 11.2593 2.11701C11.7801 2.46497 12.1859 2.95954 12.4256 3.53817C12.6653 4.1168 12.728 4.75351 12.6058 5.36779C12.4836 5.98206 12.182 6.54631 11.7392 6.98917C11.2963 7.43204 10.7321 7.73364 10.1178 7.85582C9.50351 7.97801 8.8668 7.9153 8.28817 7.67562C7.70954 7.43594 7.21497 7.03006 6.86701 6.50931C6.51906 5.98855 6.33333 5.37631 6.33333 4.75C6.33333 3.91015 6.66696 3.1047 7.26083 2.51083C7.85469 1.91697 8.66015 1.58334 9.5 1.58334Z" fill="#414B61"/>
<path d="M9.5 11.084C7.61098 11.0861 5.79992 11.8374 4.46418 13.1732C3.12844 14.5089 2.3771 16.32 2.375 18.209C2.375 18.4189 2.45841 18.6203 2.60687 18.7688C2.75534 18.9172 2.9567 19.0007 3.16667 19.0007C3.37663 19.0007 3.57799 18.9172 3.72646 18.7688C3.87493 18.6203 3.95833 18.4189 3.95833 18.209C3.95833 16.7392 4.54219 15.3297 5.58145 14.2904C6.62071 13.2512 8.03026 12.6673 9.5 12.6673C10.9697 12.6673 12.3793 13.2512 13.4186 14.2904C14.4578 15.3297 15.0417 16.7392 15.0417 18.209C15.0417 18.4189 15.1251 18.6203 15.2735 18.7688C15.422 18.9172 15.6234 19.0007 15.8333 19.0007C16.0433 19.0007 16.2447 18.9172 16.3931 18.7688C16.5416 18.6203 16.625 18.4189 16.625 18.209C16.6229 16.32 15.8716 14.5089 14.5358 13.1732C13.2001 11.8374 11.389 11.0861 9.5 11.084Z" fill="#414B61"/>
</g>
<defs>
<clipPath id="clip0_744_62323">
<rect width="19" height="19" fill="white"/>
</clipPath>
</defs>
</svg>
