<svg width="8" height="16" viewBox="0 0 8 16" fill="none" xmlns="http://www.w3.org/2000/svg">
<g clip-path="url(#clip0_744_92163)">
<path d="M8 4C8 1.79406 6.20594 0 4 0C1.79406 0 0 1.79406 0 4C0 5.97875 1.44406 7.62594 3.33344 7.94406V15.3334C3.33344 15.7016 3.63219 16 4 16C4.36781 16 4.66656 15.7013 4.66656 15.3334V7.94406C6.55594 7.62594 8 5.97875 8 4ZM4 6.66656C2.52938 6.66656 1.33344 5.47062 1.33344 4C1.33344 2.52938 2.52938 1.33344 4 1.33344C5.47062 1.33344 6.66656 2.52938 6.66656 4C6.66656 5.47062 5.47062 6.66656 4 6.66656Z" fill="#414B61"/>
</g>
<defs>
<clipPath id="clip0_744_92163">
<rect width="8" height="16" fill="white"/>
</clipPath>
</defs>
</svg>
