<svg width="22" height="22" viewBox="0 0 22 22" fill="none" xmlns="http://www.w3.org/2000/svg">
<g clip-path="url(#clip0_744_79677)">
<path d="M0.916471 22.0006C1.15957 22.0005 1.39269 21.9039 1.56455 21.732L7.63197 15.6646L8.77597 16.8489C9.63822 17.7601 10.8266 18.2921 12.0806 18.3284C12.4986 18.3297 12.9137 18.2593 13.308 18.1203C13.9171 17.9106 14.4523 17.5285 14.8485 17.0205C15.2448 16.5125 15.485 15.9004 15.5401 15.2585C15.6395 14.3288 15.5706 13.3889 15.3366 12.4837L15.1404 11.5286C15.1032 11.3758 15.106 11.2161 15.1483 11.0647C15.1907 10.9133 15.2713 10.7754 15.3824 10.6641L16.8371 9.20847C16.8945 9.15086 16.9722 9.11797 17.0535 9.1168C17.082 9.11149 17.1115 9.11426 17.1385 9.12479C17.1655 9.13531 17.1891 9.15318 17.2066 9.17639C17.667 9.66465 18.2864 9.97275 18.9536 10.0453C19.6208 10.1179 20.292 9.95022 20.8466 9.57239C21.1721 9.34037 21.4431 9.04019 21.6407 8.69276C21.8383 8.34533 21.9578 7.959 21.9909 7.56067C22.0239 7.16234 21.9698 6.76159 21.8322 6.38633C21.6946 6.01107 21.4768 5.67032 21.1941 5.3878L16.6831 0.875052C16.22 0.400311 15.6046 0.103479 14.9448 0.0364539C14.2849 -0.0305715 13.6225 0.136474 13.0733 0.508385C12.7478 0.740332 12.4767 1.04045 12.279 1.38785C12.0813 1.73524 11.9617 2.12156 11.9286 2.51989C11.8954 2.91822 11.9495 3.31899 12.087 3.69429C12.2246 4.06959 12.4423 4.41039 12.725 4.69297L12.7946 4.76264C12.8471 4.81552 12.8766 4.88703 12.8766 4.96155C12.8766 5.03608 12.8471 5.10758 12.7946 5.16047L11.328 6.62714C11.2155 6.73941 11.0757 6.8205 10.9224 6.86244C10.7691 6.90439 10.6075 6.90575 10.4535 6.86639L9.70456 6.6748C8.78335 6.43422 7.82629 6.36186 6.87939 6.46122C6.2078 6.53077 5.5701 6.79088 5.04145 7.21088C4.5128 7.63087 4.11524 8.19325 3.89564 8.83172C3.65599 9.48783 3.60873 10.1987 3.75944 10.8808C3.91014 11.5628 4.25252 12.1877 4.7463 12.6817L6.3578 14.3501L0.268388 20.4358C0.140229 20.564 0.0529568 20.7273 0.0176032 20.9051C-0.0177504 21.0829 0.000402331 21.2672 0.0697665 21.4347C0.139131 21.6021 0.256592 21.7453 0.407301 21.846C0.55801 21.9467 0.7352 22.0005 0.916471 22.0006ZM5.62356 9.44222C5.72685 9.12993 5.91846 8.85427 6.17519 8.64863C6.43191 8.44299 6.74274 8.31618 7.07005 8.28355C7.28109 8.26159 7.49313 8.25057 7.70531 8.25055C8.22534 8.25058 8.74322 8.31743 9.24622 8.44947L10.0006 8.64197C10.4628 8.75891 10.9475 8.75409 11.4072 8.62798C11.867 8.50186 12.2863 8.25877 12.6241 7.92239L14.0908 6.45572C14.4866 6.05879 14.7088 5.52115 14.7088 4.96064C14.7088 4.40012 14.4866 3.86248 14.0908 3.46555L14.0211 3.39589C13.9262 3.3012 13.8532 3.18684 13.8073 3.06088C13.7614 2.93492 13.7437 2.80042 13.7554 2.66686C13.7671 2.5333 13.808 2.40394 13.8751 2.2879C13.9423 2.17185 14.034 2.07194 14.144 1.99522C14.3396 1.87681 14.57 1.82947 14.7965 1.8612C15.0229 1.89293 15.2315 2.00178 15.387 2.16939L19.9006 6.68305C19.9956 6.77774 20.0685 6.8921 20.1145 7.01806C20.1604 7.14402 20.1781 7.27852 20.1664 7.41208C20.1547 7.54563 20.1138 7.67499 20.0467 7.79104C19.9795 7.90709 19.8877 8.00699 19.7778 8.08372C19.5801 8.20375 19.3467 8.25111 19.1178 8.21764C18.8889 8.18418 18.6789 8.072 18.5238 7.90039C18.3352 7.70592 18.1095 7.55122 17.8602 7.44542C17.6108 7.33962 17.3427 7.28486 17.0718 7.28439C16.5003 7.28699 15.9523 7.51185 15.5437 7.91139L14.0899 9.36614C13.7598 9.69649 13.5192 10.1055 13.3909 10.5545C13.2626 11.0036 13.2508 11.4779 13.3566 11.9328L13.5573 12.9026C13.7423 13.6098 13.7985 14.3444 13.7232 15.0715C13.7013 15.368 13.5928 15.6515 13.411 15.8869C13.2293 16.1222 12.9825 16.2989 12.7011 16.3951C12.2322 16.5184 11.738 16.5064 11.2756 16.3604C10.8133 16.2143 10.4017 15.9404 10.0886 15.5701L6.0553 11.3993C5.8038 11.1485 5.62947 10.8308 5.55295 10.484C5.47643 10.1371 5.50093 9.77558 5.62356 9.44222Z" fill="#6E7894"/>
</g>
<defs>
<clipPath id="clip0_744_79677">
<rect width="22" height="22" fill="white"/>
</clipPath>
</defs>
</svg>
