<svg width="17" height="17" viewBox="0 0 17 17" fill="none" xmlns="http://www.w3.org/2000/svg">
<g clip-path="url(#clip0_744_62469)">
<mask id="mask0_744_62469" style="mask-type:luminance" maskUnits="userSpaceOnUse" x="0" y="0" width="17" height="17">
<path d="M17 0H0V17H17V0Z" fill="white"/>
</mask>
<g mask="url(#mask0_744_62469)">
<path d="M8.5 0C6.81886 0 5.17547 0.498517 3.77765 1.43251C2.37984 2.3665 1.29037 3.69402 0.647028 5.24719C0.00368306 6.80036 -0.164646 8.50942 0.163329 10.1583C0.491304 11.8071 1.30085 13.3217 2.48959 14.5104C3.67834 15.6991 5.1929 16.5087 6.84173 16.8367C8.49058 17.1646 10.1996 16.9963 11.7528 16.353C13.306 15.7096 14.6335 14.6201 15.5675 13.2223C16.5015 11.8246 17 10.1812 17 8.5C16.9976 6.24641 16.1013 4.08582 14.5077 2.49229C12.9142 0.898755 10.7536 0.00243743 8.5 0ZM8.5 15.5833C7.09906 15.5833 5.72956 15.1679 4.56471 14.3896C3.39987 13.6113 2.49198 12.505 1.95586 11.2107C1.41973 9.91638 1.27946 8.49214 1.55277 7.11811C1.82608 5.74408 2.50071 4.48195 3.49133 3.49133C4.48195 2.50071 5.74408 1.82608 7.11811 1.55277C8.49214 1.27946 9.91638 1.41973 11.2106 1.95585C12.505 2.49197 13.6113 3.39987 14.3896 4.56471C15.1679 5.72956 15.5833 7.09906 15.5833 8.5C15.5813 10.378 14.8343 12.1784 13.5064 13.5064C12.1784 14.8343 10.378 15.5813 8.5 15.5833ZM12.0417 8.5C12.0417 8.68785 11.967 8.86805 11.8342 9.00086C11.7014 9.13368 11.5212 9.20833 11.3333 9.20833H9.20833V11.3333C9.20833 11.5212 9.13367 11.7014 9.00086 11.8342C8.86805 11.967 8.68785 12.0417 8.5 12.0417C8.31215 12.0417 8.13195 11.967 7.99914 11.8342C7.86632 11.7014 7.79167 11.5212 7.79167 11.3333V9.20833H5.66667C5.47881 9.20833 5.29864 9.13368 5.1658 9.00086C5.03296 8.86805 4.95834 8.68785 4.95834 8.5C4.95834 8.31215 5.03296 8.13195 5.1658 7.99914C5.29864 7.86633 5.47881 7.79167 5.66667 7.79167H7.79167V5.66667C7.79167 5.4788 7.86632 5.29864 7.99914 5.1658C8.13195 5.03296 8.31215 4.95833 8.5 4.95833C8.68785 4.95833 8.86805 5.03296 9.00086 5.1658C9.13367 5.29864 9.20833 5.4788 9.20833 5.66667V7.79167H11.3333C11.5212 7.79167 11.7014 7.86633 11.8342 7.99914C11.967 8.13195 12.0417 8.31215 12.0417 8.5Z" fill="#414B61"/>
</g>
</g>
<defs>
<clipPath id="clip0_744_62469">
<rect width="17" height="17" fill="white"/>
</clipPath>
</defs>
</svg>
