<?xml version="1.0" encoding="utf-8"?>
<!-- Generator: Adobe Illustrator 24.0.2, SVG Export Plug-In . SVG Version: 6.00 Build 0)  -->
<svg version="1.1" id="Layer_1" xmlns="http://www.w3.org/2000/svg" xmlns:xlink="http://www.w3.org/1999/xlink" x="0px" y="0px"
	 viewBox="0 0 12 21" style="enable-background:new 0 0 12 21;" xml:space="preserve">
<style type="text/css">
	.st0{clip-path:url(#SVGID_2_);}
	.st1{fill:#414B61;}
</style>
<g>
	<defs>
		<rect id="SVGID_1_" width="12" height="20.9"/>
	</defs>
	<clipPath id="SVGID_2_">
		<use xlink:href="#SVGID_1_"  style="overflow:visible;"/>
	</clipPath>
	<g class="st0">
		<path class="st1" d="M0.3,7c0-0.1,0-0.3,0.1-0.4c0.2-1.1,1.2-1.9,2.4-1.9c1.3,0,2.6,0,3.9,0c0.1,0,0.2,0,0.3,0c0-0.1,0-0.2,0-0.3
			c0-0.9,0-1.9,0-2.8c0-0.5,0.2-0.9,0.7-1.1c0.4-0.2,0.8-0.2,1.2,0.1c0.3,0.2,0.5,0.6,0.5,1c0,0.9,0,1.8,0,2.8c0,0.1,0,0.2,0,0.3
			c0.2,0,0.3,0,0.5,0.1c1,0.2,1.8,1.1,1.8,2.1c0,1.1,0,2.1,0,3.2c0,0.5-0.1,0.9-0.3,1.4c-0.5,1.3-0.7,2.6-0.7,4c0,1.1,0,2.3,0,3.4
			c0,1-0.2,1.4-1.2,1.8H2.6c-1-0.4-1.2-0.7-1.2-1.8c0-1.2,0-2.5,0-3.7c0-0.6-0.1-1.1-0.1-1.7c-0.1-1.2-0.8-2.2-0.9-3.4
			C0.3,9,0.3,8,0.3,7z M6,5.2c-1.1,0-2.1,0-3.1,0c-1.2,0-2,0.8-2,2c0,0.8,0,1.7,0,2.5c0,0.6,0.1,1.1,0.3,1.7c0.4,1,0.6,2,0.7,3
			c0,1.5,0,3.1,0,4.6c0,0.7,0.3,1,1,1C5,20,7,20,9.1,20c0.7,0,1-0.3,1-1c0-1.2,0-2.4,0-3.6c0-1.4,0.2-2.8,0.7-4.1
			c0.2-0.5,0.3-1,0.3-1.6c0-0.8,0-1.7,0-2.5c0-0.2,0-0.3,0-0.5c-0.2-0.9-0.9-1.5-1.9-1.5C8.1,5.2,7.1,5.2,6,5.2L6,5.2z M8.8,4.7
			c0-1.1,0-2.2,0-3.2c0-0.4-0.3-0.6-0.7-0.6c-0.4,0-0.6,0.3-0.6,0.7c0,1,0,1.9,0,2.9c0,0.1,0,0.1,0,0.2H8.8z"/>
		<path class="st1" d="M9.5,20.9h-7l-0.1,0C1.3,20.5,1,20,1,18.8c0-0.4,0-0.7,0-1.1c0-0.9,0-1.7,0-2.6c0-0.6-0.1-1.1-0.1-1.7
			c-0.1-0.5-0.2-1-0.4-1.6C0.3,11.3,0.1,10.7,0,10l0,0V7l0,0c0,0,0-0.1,0-0.1c0-0.1,0-0.2,0.1-0.3c0.3-1.3,1.4-2.2,2.7-2.2
			c0.9,0,1.8,0,2.7,0c0.4,0,0.8,0,1.1,0c0-0.3,0-0.6,0-1c0-0.6,0-1.2,0-1.8c0-0.6,0.3-1.1,0.9-1.4C8-0.1,8.6,0,9.1,0.3
			C9.5,0.6,9.7,1,9.7,1.6c0,0.7,0,1.3,0,2c0,0.3,0,0.5,0,0.8v0c0.1,0,0.1,0,0.2,0c1.2,0.3,2,1.3,2.1,2.5c0,1,0,2.1,0,3.2
			c0,0.5-0.1,0.9-0.3,1.5c-0.5,1.3-0.7,2.6-0.7,3.8c0,0.8,0,1.6,0,2.4c0,0.3,0,0.7,0,1C11,20,10.7,20.5,9.5,20.9L9.5,20.9L9.5,20.9z
			 M4.1,5.5c-0.4,0-0.8,0-1.2,0c-1,0-1.6,0.6-1.6,1.7c0,0.3,0,0.6,0,0.9c0,0.5,0,1,0,1.6c0,0.5,0.1,1,0.3,1.5
			c0.4,1.2,0.7,2.2,0.7,3.1c0,1.1,0,2.2,0,3.3c0,0.4,0,0.9,0,1.3c0,0.5,0.2,0.7,0.7,0.7c2.1,0,4.2,0,6.2,0c0.5,0,0.7-0.2,0.7-0.7
			c0-0.3,0-0.6,0-1c0-0.9,0-1.7,0-2.6c0-1.5,0.2-2.9,0.7-4.2c0.2-0.5,0.3-0.9,0.3-1.4c0-0.5,0-1,0-1.5c0-0.3,0-0.7,0-1.1
			c0-0.1,0-0.3,0-0.4C10.6,6,10,5.5,9.2,5.5c-0.7,0-1.5,0-2.2,0c-0.6,0-1.3,0-1.9,0C4.7,5.5,4.4,5.5,4.1,5.5L4.1,5.5z M7.9,4.3h0.6
			c0-0.2,0-0.4,0-0.6c0-0.8,0-1.5,0-2.3c0-0.1,0-0.1-0.1-0.2C8.3,1.2,8.2,1.2,8.1,1.2c-0.1,0-0.3,0-0.3,0.4c0,0.8,0,1.5,0,2.3
			L7.9,4.3L7.9,4.3z"/>
		<path class="st1" d="M6,10.7c-0.8,0-1.6,0-2.4,0c-0.9,0-1.5-0.6-1.5-1.5c0-0.4,0-0.8,0-1.2c0-0.9,0.6-1.5,1.6-1.5
			c1.5,0,3.1,0,4.6,0c0.9,0,1.5,0.6,1.6,1.6c0,0.4,0,0.8,0,1.2c0,0.9-0.6,1.5-1.5,1.5C7.6,10.7,6.8,10.7,6,10.7z M6,10.2
			c0.8,0,1.6,0,2.4,0c0.6,0,0.9-0.4,0.9-0.9c0-0.4,0-0.8,0-1.3c0-0.6-0.4-1-1-1C6.8,7,5.2,7,3.7,7c-0.6,0-1,0.4-1,1
			c0,0.4,0,0.8,0,1.2c0,0.6,0.4,1,1,1C4.4,10.2,5.2,10.2,6,10.2L6,10.2z"/>
		<path class="st1" d="M4.5,11c-0.3,0-0.6,0-0.9,0c-1.1,0-1.8-0.7-1.8-1.8c0-0.4,0-0.8,0-1.2c0-1.1,0.8-1.9,1.9-1.9
			c1.5,0,3.1,0,4.6,0c1.1,0,1.9,0.8,1.9,1.9c0,0.4,0,0.7,0,1.2c0,1.1-0.8,1.8-1.8,1.8c-0.6,0-1.1,0-1.7,0c-0.2,0-0.5,0-0.7,0
			c-0.2,0-0.5,0-0.7,0C5,11,4.8,11,4.5,11L4.5,11z M6,9.9c0.2,0,0.5,0,0.7,0c0.6,0,1.1,0,1.7,0C8.8,9.8,9,9.6,9,9.3C9,8.8,9,8.4,9,8
			c0-0.4-0.3-0.7-0.7-0.7c-1.6,0-3.2,0-4.7,0C3.2,7.3,3,7.6,3,8c0,0.4,0,0.8,0,1.2c0,0.4,0.2,0.6,0.7,0.6c0.6,0,1.1,0,1.7,0L6,9.9
			L6,9.9z"/>
		<path class="st1" d="M6,15.4c-0.7,0-1.4,0-2.1,0c-0.2,0-0.3,0-0.3-0.2c0-0.2,0.2-0.3,0.3-0.3c1.4,0,2.8,0,4.1,0
			c0.2,0,0.3,0,0.3,0.3c0,0.2-0.2,0.2-0.3,0.2C7.4,15.4,6.7,15.4,6,15.4L6,15.4z"/>
		<path class="st1" d="M8.1,15.8C8.1,15.8,8.1,15.8,8.1,15.8c-0.5,0-1,0-1.5,0H6H5.4c-0.5,0-1,0-1.5,0c-0.1,0-0.4,0-0.5-0.2
			c-0.1-0.1-0.2-0.2-0.2-0.4c0-0.1,0.1-0.6,0.7-0.6h0c1.4,0,2.8,0,4.1,0h0c0.6,0,0.7,0.5,0.7,0.6c0,0.2-0.1,0.3-0.2,0.4
			C8.4,15.8,8.2,15.8,8.1,15.8L8.1,15.8z"/>
		<path class="st1" d="M6,16.7c0.7,0,1.4,0,2.1,0c0.2,0,0.3,0,0.3,0.2c0,0.2-0.1,0.3-0.3,0.3c-0.6,0-1.3,0-1.9,0c-0.7,0-1.5,0-2.2,0
			c-0.1,0-0.3-0.1-0.3-0.2c-0.1-0.2,0.1-0.3,0.3-0.3C4.6,16.7,5.3,16.7,6,16.7L6,16.7z"/>
		<path class="st1" d="M5.1,17.5c-0.4,0-0.8,0-1.1,0c-0.2,0-0.5-0.2-0.6-0.3c-0.1-0.2-0.1-0.4,0-0.5c0.1-0.2,0.3-0.3,0.6-0.3
			c0.5,0,1,0,1.5,0h1.1c0.5,0,1,0,1.5,0h0c0.6,0,0.7,0.4,0.7,0.5c0,0.2-0.1,0.4-0.1,0.5c-0.1,0.1-0.3,0.2-0.5,0.2H6.2
			c-0.2,0-0.4,0-0.5,0C5.4,17.5,5.3,17.5,5.1,17.5L5.1,17.5z"/>
		<path class="st1" d="M6,13.3c0.5,0,0.9,0,1.4,0c0.2,0,0.3,0,0.3,0.3c0,0.2-0.2,0.2-0.3,0.2c-0.9,0-1.8,0-2.7,0
			c-0.2,0-0.3,0-0.3-0.3c0-0.2,0.2-0.2,0.4-0.2C5.1,13.3,5.6,13.3,6,13.3z"/>
		<path class="st1" d="M4.7,14.2c-0.1,0-0.3,0-0.5-0.2C4.1,13.9,4,13.8,4,13.6C4,13.4,4.1,13,4.7,13h0c0.3,0,0.6,0,0.9,0H6h0.4
			c0.3,0,0.6,0,1,0c0.2,0,0.4,0,0.5,0.2C8,13.2,8,13.4,8,13.6c0,0.3-0.2,0.6-0.7,0.6H6.6C5.9,14.2,5.3,14.2,4.7,14.2L4.7,14.2
			L4.7,14.2z"/>
	</g>
</g>
</svg>
