<svg width="22" height="22" viewBox="0 0 22 22" fill="none" xmlns="http://www.w3.org/2000/svg">
<g clip-path="url(#clip0_744_80418)">
<path d="M21.1684 15.378C21.6994 15.9089 21.9999 16.6302 21.9999 17.3916C21.9999 18.153 21.6994 18.8643 21.1684 19.4053L20.3269 20.367C12.8132 27.5601 -5.49007 9.25683 1.60282 1.71311L2.65474 0.791439C3.19572 0.28051 3.90701 0 4.64836 0C5.38971 0 6.101 0.310565 6.63197 0.831512C6.66202 0.861566 8.36512 3.06557 8.36512 3.06557C8.86603 3.59654 9.14654 4.29781 9.14654 5.02914C9.14654 5.76047 8.86603 6.46175 8.3551 6.99271L7.29317 8.32514C7.88424 9.75774 8.74581 11.0501 9.8378 12.1521C10.9298 13.2441 12.2321 14.1157 13.6547 14.7067L14.9972 13.6348C15.5281 13.1239 16.2294 12.8434 16.9607 12.8434C17.6921 12.8434 18.3934 13.1239 18.9243 13.6248C18.9243 13.6248 21.1383 15.3279 21.1684 15.3579V15.378ZM19.9061 16.7104C19.9061 16.7104 17.7121 15.0173 17.6821 14.9873C17.4917 14.7969 17.2413 14.6967 16.9708 14.6967C16.7003 14.6967 16.4498 14.8069 16.2595 14.9873C16.2394 15.0073 14.3861 16.49 14.3861 16.49C14.2658 16.5902 14.1156 16.6503 13.9553 16.6803C13.795 16.7004 13.6347 16.6803 13.4844 16.6302C11.6311 15.939 9.948 14.867 8.55546 13.4645C7.15291 12.0719 6.07095 10.3889 5.37969 8.53552C5.31958 8.38525 5.29954 8.21494 5.31958 8.05464C5.33962 7.89435 5.40974 7.74408 5.50993 7.61384C5.50993 7.61384 6.9826 5.76047 7.01266 5.74044C7.203 5.55009 7.30319 5.29964 7.30319 5.02914C7.30319 4.75865 7.19299 4.5082 7.01266 4.31785C6.9826 4.2878 5.28953 2.09381 5.28953 2.09381C5.09918 1.9235 4.84872 1.83333 4.58825 1.83333C4.32778 1.83333 4.08734 1.94353 3.90701 2.12386L2.8551 3.04554C-2.32432 9.27687 13.5345 24.2541 18.9944 19.1047L19.836 18.143C20.0363 17.9627 20.1566 17.7122 20.1666 17.4417C20.1866 17.1712 20.0964 16.9107 19.9161 16.7104H19.9061Z" fill="#6E7894"/>
</g>
<defs>
<clipPath id="clip0_744_80418">
<rect width="22" height="22" fill="white"/>
</clipPath>
</defs>
</svg>
