<svg width="15" height="15" viewBox="0 0 15 15" fill="none" xmlns="http://www.w3.org/2000/svg">
<g clip-path="url(#clip0_744_89021)">
<mask id="mask0_744_89021" style="mask-type:luminance" maskUnits="userSpaceOnUse" x="0" y="0" width="15" height="15">
<path d="M15 0H0V15H15V0Z" fill="white"/>
</mask>
<g mask="url(#mask0_744_89021)">
<path d="M11.875 13.75H3.125C2.29651 13.749 1.50223 13.4194 0.916387 12.8336C0.330551 12.2478 0.000992413 11.4535 0 10.625V4.375C0.000992413 3.54651 0.330551 2.75222 0.916387 2.16639C1.50223 1.58055 2.29651 1.25099 3.125 1.25H11.875C12.7035 1.25099 13.4978 1.58055 14.0836 2.16639C14.6694 2.75222 14.999 3.54651 15 4.375V10.625C14.999 11.4535 14.6694 12.2478 14.0836 12.8336C13.4978 13.4194 12.7035 13.749 11.875 13.75ZM3.125 2.5C2.62772 2.5 2.15081 2.69754 1.79918 3.04918C1.44754 3.40081 1.25 3.87772 1.25 4.375V10.625C1.25 11.1223 1.44754 11.5992 1.79918 11.9508C2.15081 12.3024 2.62772 12.5 3.125 12.5H11.875C12.3722 12.5 12.8492 12.3024 13.2008 11.9508C13.5524 11.5992 13.75 11.1223 13.75 10.625V4.375C13.75 3.87772 13.5524 3.40081 13.2008 3.04918C12.8492 2.69754 12.3722 2.5 11.875 2.5H3.125Z" fill="#374957"/>
<path d="M11.8749 8.125H6.87489C6.70914 8.125 6.55014 8.05919 6.43295 7.94194C6.3157 7.82475 6.24988 7.66575 6.24988 7.5C6.24988 7.33425 6.3157 7.17525 6.43295 7.05806C6.55014 6.94088 6.70914 6.875 6.87489 6.875H11.8749C12.0406 6.875 12.1996 6.94088 12.3168 7.05806C12.434 7.17525 12.4999 7.33425 12.4999 7.5C12.4999 7.66575 12.434 7.82475 12.3168 7.94194C12.1996 8.05919 12.0406 8.125 11.8749 8.125Z" fill="#374957"/>
<path d="M4.37512 8.125H3.12512C2.95936 8.125 2.80039 8.05919 2.68318 7.94194C2.56597 7.82475 2.50012 7.66575 2.50012 7.5C2.50012 7.33425 2.56597 7.17525 2.68318 7.05806C2.80039 6.94088 2.95936 6.875 3.12512 6.875H4.37512C4.54088 6.875 4.69985 6.94088 4.81706 7.05806C4.93427 7.17525 5.00012 7.33425 5.00012 7.5C5.00012 7.66575 4.93427 7.82475 4.81706 7.94194C4.69985 8.05919 4.54088 8.125 4.37512 8.125Z" fill="#374957"/>
<path d="M8.12511 11.25H3.12512C2.95937 11.25 2.80039 11.1841 2.68318 11.0669C2.56597 10.9497 2.50012 10.7907 2.50012 10.625C2.50012 10.4592 2.56597 10.3002 2.68318 10.1831C2.80039 10.0658 2.95937 10 3.12512 10H8.12511C8.29086 10 8.44986 10.0658 8.56705 10.1831C8.6843 10.3002 8.75011 10.4592 8.75011 10.625C8.75011 10.7907 8.6843 10.9497 8.56705 11.0669C8.44986 11.1841 8.29086 11.25 8.12511 11.25Z" fill="#374957"/>
<path d="M11.8749 11.25H10.6249C10.4591 11.25 10.3001 11.1841 10.1829 11.0669C10.0657 10.9497 9.99988 10.7907 9.99988 10.625C9.99988 10.4592 10.0657 10.3002 10.1829 10.1831C10.3001 10.0658 10.4591 10 10.6249 10H11.8749C12.0406 10 12.1996 10.0658 12.3168 10.1831C12.434 10.3002 12.4999 10.4592 12.4999 10.625C12.4999 10.7907 12.434 10.9497 12.3168 11.0669C12.1996 11.1841 12.0406 11.25 11.8749 11.25Z" fill="#374957"/>
</g>
</g>
<defs>
<clipPath id="clip0_744_89021">
<rect width="15" height="15" fill="white"/>
</clipPath>
</defs>
</svg>
