<svg width="15" height="15" viewBox="0 0 15 15" fill="none" xmlns="http://www.w3.org/2000/svg">
<g clip-path="url(#clip0_744_72754)">
<mask id="mask0_744_72754" style="mask-type:luminance" maskUnits="userSpaceOnUse" x="0" y="0" width="15" height="15">
<path d="M15 0H0V15H15V0Z" fill="white"/>
</mask>
<g mask="url(#mask0_744_72754)">
<path d="M10 0H5C4.17151 0.000992413 3.37722 0.330551 2.79139 0.916387C2.20555 1.50223 1.87599 2.29651 1.875 3.125V14.375C1.87509 14.4887 1.90618 14.6002 1.96492 14.6975C2.02367 14.7948 2.10785 14.8743 2.2084 14.9273C2.30894 14.9804 2.42206 15.005 2.53555 14.9985C2.64904 14.9921 2.75863 14.9548 2.8525 14.8906L4.16875 13.9913L5.485 14.8906C5.58899 14.9618 5.71209 14.9999 5.83812 14.9999C5.96416 14.9999 6.08726 14.9618 6.19125 14.8906L7.50375 13.9913L8.81625 14.8906C8.92031 14.962 9.0435 15.0002 9.16969 15.0002C9.29588 15.0002 9.41906 14.962 9.52313 14.8906L10.8356 13.9919L12.1481 14.89C12.2419 14.9539 12.3514 14.9911 12.4648 14.9975C12.5781 15.0039 12.6911 14.9793 12.7915 14.9263C12.8919 14.8734 12.976 14.7941 13.0347 14.6969C13.0935 14.5998 13.1248 14.4885 13.125 14.375V3.125C13.124 2.29651 12.7944 1.50223 12.2086 0.916387C11.6228 0.330551 10.8285 0.000992413 10 0ZM11.875 13.1875L11.1875 12.7175C11.0834 12.646 10.9601 12.6077 10.8337 12.6077C10.7074 12.6077 10.5841 12.646 10.48 12.7175L9.1675 13.6169L7.855 12.7175C7.75094 12.6461 7.62775 12.6079 7.50156 12.6079C7.37537 12.6079 7.25219 12.6461 7.14813 12.7175L5.83562 13.6169L4.52312 12.7175C4.41919 12.6464 4.29623 12.6084 4.17031 12.6084C4.04441 12.6084 3.92143 12.6464 3.8175 12.7175L3.125 13.1875V3.125C3.125 2.62772 3.32254 2.15081 3.67418 1.79918C4.02581 1.44754 4.50272 1.25 5 1.25H10C10.4972 1.25 10.9742 1.44754 11.3258 1.79918C11.6774 2.15081 11.875 2.62772 11.875 3.125V13.1875Z" fill="#414B61"/>
<path d="M9.99999 5H5C4.65482 5 4.375 5.27982 4.375 5.625C4.375 5.97018 4.65482 6.24999 5 6.24999H9.99999C10.3452 6.24999 10.625 5.97018 10.625 5.625C10.625 5.27982 10.3452 5 9.99999 5Z" fill="#414B61"/>
<path d="M8.74999 7.5H5C4.65482 7.5 4.375 7.77981 4.375 8.125C4.375 8.47019 4.65482 8.75 5 8.75H8.74999C9.09517 8.75 9.37499 8.47019 9.37499 8.125C9.37499 7.77981 9.09517 7.5 8.74999 7.5Z" fill="#414B61"/>
</g>
</g>
<defs>
<clipPath id="clip0_744_72754">
<rect width="15" height="15" fill="white"/>
</clipPath>
</defs>
</svg>
