<svg width="15" height="15" viewBox="0 0 15 15" fill="none" xmlns="http://www.w3.org/2000/svg">
<g clip-path="url(#clip0_744_79000)">
<mask id="mask0_744_79000" style="mask-type:luminance" maskUnits="userSpaceOnUse" x="0" y="0" width="15" height="15">
<path d="M15 0H0V15H15V0Z" fill="white"/>
</mask>
<g mask="url(#mask0_744_79000)">
<path d="M7.5 6.25C7.00275 6.25 6.52581 6.05246 6.17418 5.70082C5.82254 5.34919 5.625 4.87228 5.625 4.375C5.625 3.87772 5.82254 3.40081 6.17418 3.04918C6.52581 2.69754 7.00275 2.5 7.5 2.5C7.99725 2.5 8.47419 2.69754 8.82581 3.04918C9.17744 3.40081 9.375 3.87772 9.375 4.375C9.375 4.87228 9.17744 5.34919 8.82581 5.70082C8.47419 6.05246 7.99725 6.25 7.5 6.25ZM5.605 9.53062C5.73353 9.12906 5.98629 8.77875 6.32681 8.53019C6.66738 8.28162 7.07806 8.14769 7.49969 8.14769C7.92131 8.14769 8.332 8.28162 8.67256 8.53019C9.01306 8.77875 9.26587 9.12906 9.39437 9.53062C9.43581 9.69125 9.53938 9.82881 9.68225 9.91313C9.82512 9.99738 9.99562 10.0214 10.1562 9.98C10.3169 9.93856 10.4544 9.835 10.5387 9.69212C10.623 9.54925 10.6471 9.37875 10.6056 9.21812C9.78625 6.12625 5.21187 6.1275 4.395 9.21812C4.37244 9.29825 4.3661 9.38206 4.37636 9.46463C4.38662 9.54719 4.41327 9.62694 4.45474 9.69906C4.49622 9.77125 4.55169 9.83437 4.61791 9.88481C4.68411 9.93519 4.75973 9.97194 4.8403 9.99275C4.92088 10.0136 5.00481 10.0181 5.08715 10.006C5.1695 9.99394 5.24861 9.96556 5.31984 9.9225C5.39106 9.87944 5.45298 9.82262 5.50195 9.75531C5.55092 9.68806 5.58595 9.61162 5.605 9.53062ZM7.50562 14.7906C7.19725 14.7908 6.89962 14.6776 6.66937 14.4725L4.32687 12.5H2.5C1.83696 12.5 1.20107 12.2366 0.732231 11.7677C0.263392 11.2989 0 10.6631 0 10V2.5C0 1.83696 0.263392 1.20107 0.732231 0.732231C1.20107 0.263392 1.83696 0 2.5 0H12.5C13.1631 0 13.7989 0.263392 14.2677 0.732231C14.7366 1.20107 15 1.83696 15 2.5V10C15 10.6631 14.7366 11.2989 14.2677 11.7677C13.7989 12.2366 13.1631 12.5 12.5 12.5H10.7169L8.3125 14.4875C8.08975 14.6839 7.80262 14.7918 7.50562 14.7906ZM2.5 1.25C2.16848 1.25 1.85054 1.38169 1.61612 1.61612C1.38169 1.85054 1.25 2.16848 1.25 2.5V10C1.25 10.3315 1.38169 10.6494 1.61612 10.8839C1.85054 11.1183 2.16848 11.25 2.5 11.25H4.55562C4.70291 11.25 4.84546 11.302 4.95813 11.3969L7.48688 13.5281L10.0944 11.3931C10.2064 11.3006 10.3472 11.25 10.4925 11.25H12.5C12.8315 11.25 13.1494 11.1183 13.3839 10.8839C13.6183 10.6494 13.75 10.3315 13.75 10V2.5C13.75 2.16848 13.6183 1.85054 13.3839 1.61612C13.1494 1.38169 12.8315 1.25 12.5 1.25H2.5Z" fill="#414B61"/>
</g>
</g>
<defs>
<clipPath id="clip0_744_79000">
<rect width="15" height="15" fill="white"/>
</clipPath>
</defs>
</svg>
