<svg width="15" height="15" viewBox="0 0 15 15" fill="none" xmlns="http://www.w3.org/2000/svg">
<g clip-path="url(#clip0_744_92176)">
<path d="M12.9249 0.726764L12.9117 0.722368L11.2148 0.159769C10.6286 -0.034796 9.99814 -0.0520842 9.40225 0.110249L5.91738 1.12234C5.49053 1.23545 5.03789 1.1956 4.6374 1.00982L4.3248 0.864776C2.73135 0.201964 0.902344 0.956784 0.239648 2.55052C0.0817383 2.92998 0.000292969 3.33699 0 3.7481V11.2963C0.00263672 12.6846 0.918164 13.9056 2.25 14.2968L4.04326 14.8594C4.3459 14.9535 4.66084 15.001 4.97754 15.0001C5.25996 15.0036 5.54121 14.9655 5.8125 14.887L9.4374 13.8869C9.76875 13.7969 10.1183 13.7999 10.4481 13.8951L11.9124 14.3176C13.2545 14.6423 14.6054 13.8172 14.93 12.4748C14.9766 12.2826 15 12.0857 15 11.8879V3.67044C14.9979 2.3498 14.168 1.17215 12.9249 0.726764ZM2.61006 13.099C1.80674 12.8666 1.25303 12.1323 1.2501 11.296V3.7481C1.24395 3.11898 1.55859 2.52972 2.08506 2.18542C2.39326 1.98089 2.75508 1.87218 3.1251 1.87277C3.36357 1.87277 3.59971 1.91994 3.82002 2.01166C3.82002 2.01166 4.28555 2.2112 4.37432 2.24285V13.651L2.61006 13.099ZM5.625 13.6416V2.42218C5.8374 2.41104 6.04805 2.37852 6.25371 2.32519L9.375 1.41829V12.6246L5.625 13.6416ZM13.7499 11.8876C13.7505 12.578 13.1912 13.1382 12.5007 13.1388C12.4093 13.1388 12.3185 13.1288 12.2291 13.1092L10.6248 12.6574V1.29434L12.5109 1.90646C13.2536 2.17546 13.7484 2.88046 13.7496 3.67044V11.8876H13.7499Z" fill="#414B61"/>
</g>
<defs>
<clipPath id="clip0_744_92176">
<rect width="15" height="15" fill="white"/>
</clipPath>
</defs>
</svg>
