<svg width="15" height="15" viewBox="0 0 15 15" fill="none" xmlns="http://www.w3.org/2000/svg">
<g clip-path="url(#clip0_744_92169)">
<mask id="mask0_744_92169" style="mask-type:luminance" maskUnits="userSpaceOnUse" x="0" y="0" width="15" height="15">
<path d="M15 0H0V15H15V0Z" fill="white"/>
</mask>
<g mask="url(#mask0_744_92169)">
<path d="M7.49999 3.75C7.00555 3.75 6.52217 3.89662 6.11107 4.17132C5.69996 4.44603 5.37952 4.83647 5.19031 5.29329C5.00109 5.75011 4.95157 6.25275 5.04804 6.73775C5.1445 7.22269 5.38261 7.66812 5.73224 8.01775C6.08187 8.36737 6.5273 8.6055 7.0123 8.70194C7.49724 8.79844 7.99992 8.74894 8.45674 8.55969C8.91355 8.3705 9.30399 8.05006 9.57867 7.63894C9.85336 7.22781 9.99999 6.74444 9.99999 6.25C9.99999 5.58696 9.73661 4.95107 9.2678 4.48223C8.79892 4.01339 8.16305 3.75 7.49999 3.75ZM7.49999 7.5C7.2528 7.5 7.01111 7.42669 6.80555 7.28931C6.59999 7.152 6.43974 6.95675 6.34517 6.72837C6.25055 6.49994 6.22579 6.24861 6.27405 6.00614C6.32224 5.76366 6.4413 5.54093 6.61611 5.36612C6.79092 5.1913 7.01367 5.07225 7.25611 5.02402C7.49861 4.97579 7.74992 5.00054 7.97836 5.09515C8.20674 5.18976 8.40199 5.34997 8.53936 5.55554C8.67667 5.7611 8.74999 6.00277 8.74999 6.25C8.74999 6.5815 8.6183 6.89944 8.38386 7.13387C8.14949 7.36831 7.83155 7.5 7.49999 7.5Z" fill="#414B61"/>
<path d="M7.50016 15.0013C6.97391 15.0039 6.45466 14.8805 5.98586 14.6413C5.51708 14.4021 5.11244 14.054 4.80582 13.6263C2.42395 10.3406 1.21582 7.87063 1.21582 6.28438C1.21582 4.61766 1.87792 3.0192 3.05647 1.84065C4.23502 0.662099 5.83347 0 7.50016 0C9.16691 0 10.7654 0.662099 11.9439 1.84065C13.1225 3.0192 13.7845 4.61766 13.7845 6.28438C13.7845 7.87063 12.5764 10.3406 10.1945 13.6263C9.88798 14.054 9.48329 14.4021 9.01454 14.6413C8.54573 14.8805 8.02648 15.0039 7.50016 15.0013ZM7.50016 1.36437C6.19545 1.36586 4.94458 1.88483 4.02199 2.80742C3.0994 3.73001 2.58043 4.98089 2.57895 6.28563C2.57895 7.54188 3.76207 9.86501 5.90957 12.8269C6.09188 13.078 6.33104 13.2824 6.60754 13.4233C6.88398 13.5642 7.18985 13.6377 7.50016 13.6377C7.81048 13.6377 8.11641 13.5642 8.39285 13.4233C8.66935 13.2824 8.90854 13.078 9.09079 12.8269C11.2383 9.86501 12.4214 7.54188 12.4214 6.28563C12.42 4.98089 11.901 3.73001 10.9784 2.80742C10.0558 1.88483 8.80491 1.36586 7.50016 1.36437Z" fill="#414B61"/>
</g>
</g>
<defs>
<clipPath id="clip0_744_92169">
<rect width="15" height="15" fill="white"/>
</clipPath>
</defs>
</svg>
