<svg width="15" height="15" viewBox="0 0 15 15" fill="none" xmlns="http://www.w3.org/2000/svg">
<g clip-path="url(#clip0_744_92335)">
<mask id="mask0_744_92335" style="mask-type:luminance" maskUnits="userSpaceOnUse" x="0" y="0" width="15" height="15">
<path d="M15 0H0V15H15V0Z" fill="white"/>
</mask>
<g mask="url(#mask0_744_92335)">
<path d="M7.50006 7.5C7.99449 7.5 8.47787 7.35337 8.88893 7.07869C9.30006 6.804 9.62049 6.4135 9.80974 5.95671C9.99893 5.49989 10.0484 4.99722 9.95199 4.51227C9.85556 4.02732 9.61743 3.58186 9.26781 3.23223C8.91818 2.8826 8.47274 2.6445 7.98774 2.54804C7.50281 2.45158 7.00012 2.50108 6.54331 2.6903C6.08651 2.87952 5.69606 3.19995 5.42136 3.61107C5.14666 4.0222 5.00004 4.50554 5.00004 5C5.00004 5.66304 5.26342 6.29894 5.73227 6.76775C6.20111 7.23662 6.83699 7.5 7.50006 7.5ZM7.50006 3.75C7.74724 3.75 7.98893 3.82331 8.19449 3.96066C8.40006 4.09801 8.56031 4.29324 8.65487 4.52164C8.74949 4.75006 8.77424 5.00139 8.72599 5.24386C8.67781 5.48634 8.55874 5.70907 8.38393 5.88388C8.20912 6.0587 7.98637 6.17775 7.74387 6.22598C7.50143 6.27419 7.25012 6.24946 7.02168 6.15485C6.79324 6.06024 6.59806 5.90003 6.46068 5.69446C6.32337 5.4889 6.25004 5.24722 6.25004 5C6.25004 4.66848 6.38174 4.35054 6.61618 4.11612C6.85056 3.88169 7.16849 3.75 7.50006 3.75ZM12.9126 5.72312L12.4632 5.57375C12.5441 4.8737 12.476 4.16447 12.2636 3.49256C12.0511 2.82064 11.699 2.20123 11.2304 1.67493C10.7617 1.14864 10.1871 0.72735 9.54424 0.438696C8.90137 0.150042 8.20474 0.000542176 7.50006 0C6.78612 0.000275606 6.08058 0.153559 5.43092 0.449522C4.78126 0.745488 4.20258 1.17725 3.73386 1.71574C3.26515 2.25422 2.91729 2.88691 2.71373 3.57117C2.51017 4.25543 2.45563 4.97538 2.55379 5.6825C1.95568 5.79402 1.40261 6.0762 0.961288 6.495C0.655769 6.78544 0.412891 7.13538 0.247584 7.52312C0.082277 7.91094 -0.00196586 8.32844 3.48168e-05 8.75V11.2969C0.00134831 11.9727 0.221154 12.63 0.626656 13.1707C1.03215 13.7113 1.60161 14.1064 2.25004 14.2969L4.04379 14.8594C4.34508 14.9531 4.65887 15.0006 4.97441 15C5.26066 14.9996 5.54553 14.9605 5.82129 14.8837L9.43381 13.815C9.75562 13.7272 10.0951 13.7272 10.4169 13.815L11.9088 14.315C12.2765 14.4045 12.6597 14.4094 13.0295 14.3292C13.3994 14.2491 13.7462 14.086 14.0438 13.8523C14.3415 13.6186 14.5822 13.3204 14.7478 12.9802C14.9135 12.6399 14.9997 12.2666 15.0001 11.8881V8.67C14.9986 8.02337 14.7972 7.393 14.4235 6.86531C14.0498 6.33763 13.5221 5.93909 12.9126 5.72312ZM4.84879 2.35125C5.19644 2.00218 5.60962 1.7252 6.06459 1.53621C6.51956 1.34721 7.00737 1.24993 7.50006 1.24993C7.99268 1.24993 8.48049 1.34721 8.93549 1.53621C9.39043 1.7252 9.80362 2.00218 10.1513 2.35125C10.8526 3.05696 11.2469 4.01114 11.2481 5.00609C11.2494 6.00104 10.8577 6.95625 10.1582 7.66375L7.93756 9.82312C7.82162 9.93675 7.66581 10.0004 7.50349 10.0004C7.34118 10.0004 7.18531 9.93675 7.06943 9.82312L4.84879 7.67313C4.14596 6.96588 3.75148 6.00927 3.75148 5.01219C3.75148 4.0151 4.14596 3.05851 4.84879 2.35125ZM13.7501 11.8881C13.7504 12.0774 13.7076 12.2643 13.6249 12.4346C13.5421 12.6048 13.4216 12.7539 13.2726 12.8706C13.1317 12.9839 12.9676 13.0647 12.7919 13.1074C12.6163 13.1501 12.4334 13.1535 12.2563 13.1175L10.7907 12.625C10.2363 12.4658 9.64874 12.4622 9.09256 12.615L5.47754 13.6825C5.13021 13.7783 4.76263 13.772 4.41879 13.6644L2.61004 13.1019C2.21857 12.9887 1.87438 12.7516 1.62916 12.4261C1.38393 12.1006 1.2509 11.7044 1.25004 11.2969V8.75C1.24863 8.49737 1.29891 8.24712 1.3978 8.01462C1.49668 7.78212 1.64208 7.57231 1.82504 7.39812C2.11144 7.12519 2.47629 6.949 2.86816 6.89437C3.1201 7.51888 3.49528 8.08619 3.97129 8.5625L6.20066 10.7206C6.54912 11.0618 7.01737 11.2529 7.50506 11.2529C7.99268 11.2529 8.46099 11.0618 8.80943 10.7206L11.0363 8.55625C11.5349 8.05562 11.9212 7.45463 12.1694 6.79313L12.5051 6.90438C12.869 7.03481 13.1839 7.27437 13.4067 7.59031C13.6295 7.90631 13.7494 8.28337 13.7501 8.67V11.8881Z" fill="#414B61"/>
</g>
</g>
<defs>
<clipPath id="clip0_744_92335">
<rect width="15" height="15" fill="white"/>
</clipPath>
</defs>
</svg>
