<svg width="20" height="20" viewBox="0 0 20 20" fill="none" xmlns="http://www.w3.org/2000/svg">
<g clip-path="url(#clip0_744_62455)">
<path d="M19.3923 7.84858C18.0998 5.74358 15.1598 2.21191 9.9998 2.21191C4.8398 2.21191 1.8998 5.74358 0.607299 7.84858C0.207739 8.49484 -0.00390625 9.23962 -0.00390625 9.99941C-0.00390625 10.7592 0.207739 11.504 0.607299 12.1502C1.8998 14.2552 4.8398 17.7869 9.9998 17.7869C15.1598 17.7869 18.0998 14.2552 19.3923 12.1502C19.7919 11.504 20.0035 10.7592 20.0035 9.99941C20.0035 9.23962 19.7919 8.49484 19.3923 7.84858V7.84858ZM17.9715 11.2777C16.8615 13.0827 14.349 16.1202 9.9998 16.1202C5.65063 16.1202 3.13813 13.0827 2.02813 11.2777C1.79074 10.8936 1.66501 10.451 1.66501 9.99941C1.66501 9.54785 1.79074 9.10521 2.02813 8.72108C3.13813 6.91608 5.65063 3.87858 9.9998 3.87858C14.349 3.87858 16.8615 6.91275 17.9715 8.72108C18.2089 9.10521 18.3346 9.54785 18.3346 9.99941C18.3346 10.451 18.2089 10.8936 17.9715 11.2777V11.2777Z" fill="#414B61"/>
<path d="M9.99992 5.83301C9.17583 5.83301 8.37025 6.07738 7.68504 6.53522C6.99984 6.99306 6.46579 7.6438 6.15042 8.40516C5.83506 9.16652 5.75254 10.0043 5.91332 10.8126C6.07409 11.6208 6.47092 12.3632 7.05364 12.946C7.63636 13.5287 8.37879 13.9255 9.18704 14.0863C9.9953 14.2471 10.8331 14.1645 11.5944 13.8492C12.3558 13.5338 13.0065 12.9998 13.4644 12.3146C13.9222 11.6293 14.1666 10.8238 14.1666 9.99967C14.1653 8.89501 13.7259 7.83597 12.9447 7.05486C12.1636 6.27374 11.1046 5.83433 9.99992 5.83301V5.83301ZM9.99992 12.4997C9.50547 12.4997 9.02212 12.3531 8.61099 12.0783C8.19987 11.8036 7.87944 11.4132 7.69022 10.9564C7.501 10.4996 7.45149 9.9969 7.54796 9.51195C7.64442 9.027 7.88252 8.58154 8.23215 8.23191C8.58178 7.88228 9.02724 7.64417 9.51219 7.54771C9.99715 7.45125 10.4998 7.50076 10.9566 7.68998C11.4134 7.87919 11.8039 8.19963 12.0786 8.61075C12.3533 9.02187 12.4999 9.50522 12.4999 9.99967C12.4999 10.6627 12.2365 11.2986 11.7677 11.7674C11.2988 12.2363 10.663 12.4997 9.99992 12.4997Z" fill="#414B61"/>
</g>
<defs>
<clipPath id="clip0_744_62455">
<rect width="20" height="20" fill="white"/>
</clipPath>
</defs>
</svg>
