<svg width="16" height="16" viewBox="0 0 16 16" fill="none" xmlns="http://www.w3.org/2000/svg">
<g clip-path="url(#clip0_744_81623)">
<path d="M8 0C3.58656 0 0 3.58656 0 8C0 12.4134 3.58656 16 8 16C12.4134 16 16 12.4134 16 8C16 3.58656 12.4134 0 8 0ZM13.7666 4.65344C10.86 3.1 7.99312 2.19344 5.87313 1.68C6.53969 1.45344 7.25969 1.33344 8.00656 1.33344C10.4666 1.33344 12.6131 2.66688 13.7731 4.65344H13.7666ZM4.02656 2.64656C6.32656 3.08656 10.5066 4.16 14.52 6.62656C14.6134 7.06656 14.66 7.52656 14.66 8C14.66 8.1 14.66 8.2 14.6534 8.3C10 5.17344 4.83344 4.11344 2.82656 3.8C3.18 3.36656 3.58 2.98 4.02656 2.65344V2.64687V2.64656ZM1.34656 7.58C1.40656 6.66656 1.64656 5.80656 2.03312 5.03344C2.44656 5.08688 3.53969 5.24687 5.00656 5.60687C3.31313 6.31344 2.10656 7.04688 1.35312 7.58031H1.34656V7.58ZM8 14.6666C4.72656 14.6666 2 12.3 1.44 9.18656C1.82656 8.86656 2.93344 8.02 4.81344 7.15312C4.72 7.30656 4.66687 7.47969 4.66687 7.67312C4.66687 8.22656 5.11344 8.67313 5.66687 8.67313C6.22031 8.67313 6.66687 8.22656 6.66687 7.67312C6.66687 7.19312 6.32687 6.79312 5.88031 6.69312C6.28031 6.53312 6.70688 6.37313 7.16031 6.21969C7.90688 6.45969 8.70687 6.74625 9.52031 7.08625C9.40031 7.25281 9.33375 7.45281 9.33375 7.67281C9.33375 8.22625 9.78031 8.67281 10.3337 8.67281C10.8072 8.67281 11.2072 8.34625 11.3072 7.89937C12.3537 8.42594 13.4137 9.03938 14.4338 9.76594C13.6603 12.5925 11.0672 14.6725 8.00031 14.6725V14.6659L8 14.6666ZM8 10C10.0734 10 11.7066 11.44 11.78 11.5L10.8934 12.4934C10.8934 12.4934 9.56 11.3269 8 11.3269C6.44 11.3269 5.12 12.4803 5.10656 12.4934L4.22 11.5C4.28656 11.44 5.92656 10 8 10Z" fill="#414B61"/>
</g>
<defs>
<clipPath id="clip0_744_81623">
<rect width="16" height="16" fill="white"/>
</clipPath>
</defs>
</svg>
