<svg width="86" height="86" viewBox="0 0 86 86" fill="none" xmlns="http://www.w3.org/2000/svg">
<g filter="url(#filter0_d_774_22442)">
<circle cx="43" cy="39" r="28" fill="white"/>
<circle cx="43" cy="39" r="27.5" stroke="#D9D9D9"/>
</g>
<g clip-path="url(#clip0_774_22442)">
<path d="M46.5843 27C46.9289 27.3361 47.3532 27.7492 47.857 28.2409C47.1536 28.9048 46.4461 29.57 45.74 30.2366C45.7665 30.2903 45.793 30.3426 45.8195 30.3963C46.8717 30.3963 47.9239 30.3853 48.9776 30.3991C51.1727 30.4253 52.9464 31.6014 53.679 33.5021C54.861 36.5692 52.6575 39.8678 49.3376 39.9959C48.9915 40.0096 48.6454 39.9972 48.1821 39.9972V38.1848C48.6301 38.1503 49.039 38.1379 49.4409 38.0842C50.9871 37.8763 52.0798 36.6808 52.0784 35.2181C52.0784 33.7817 51.0164 32.4939 49.5232 32.3521C48.2965 32.235 47.049 32.3286 45.7093 32.4609C46.4475 33.0972 47.1871 33.7334 47.9477 34.389C47.3476 34.9468 46.8996 35.3641 46.4963 35.7374C45.0255 34.305 43.5155 32.8355 42 31.3618C43.5085 29.9267 45.0492 28.4599 46.5843 27Z" fill="#414B61"/>
</g>
<g clip-path="url(#clip1_774_22442)">
<path d="M52.1299 46.35C52.6599 46.88 52.9599 47.6 52.9599 48.36C52.9599 49.12 52.6599 49.83 52.1299 50.37L51.2899 51.33C43.7899 58.51 25.5199 40.24 32.5999 32.71L33.6499 31.79C34.1899 31.28 34.8999 31 35.6399 31C36.3799 31 37.0899 31.31 37.6199 31.83C37.6499 31.86 39.3499 34.06 39.3499 34.06C39.8499 34.59 40.1299 35.29 40.1299 36.02C40.1299 36.75 39.8499 37.45 39.3399 37.98L38.2799 39.31C38.8699 40.74 39.7299 42.03 40.8199 43.13C41.9099 44.22 43.2099 45.09 44.6299 45.68L45.9699 44.61C46.4999 44.1 47.1999 43.82 47.9299 43.82C48.6599 43.82 49.3599 44.1 49.8899 44.6C49.8899 44.6 52.0999 46.3 52.1299 46.33V46.35ZM50.8699 47.68C50.8699 47.68 48.6799 45.99 48.6499 45.96C48.4599 45.77 48.2099 45.67 47.9399 45.67C47.6699 45.67 47.4199 45.78 47.2299 45.96C47.2099 45.98 45.3599 47.46 45.3599 47.46C45.2399 47.56 45.0899 47.62 44.9299 47.65C44.7699 47.67 44.6099 47.65 44.4599 47.6C42.6099 46.91 40.9299 45.84 39.5399 44.44C38.1399 43.05 37.0599 41.37 36.3699 39.52C36.3099 39.37 36.2899 39.2 36.3099 39.04C36.3299 38.88 36.3999 38.73 36.4999 38.6C36.4999 38.6 37.9699 36.75 37.9999 36.73C38.1899 36.54 38.2899 36.29 38.2899 36.02C38.2899 35.75 38.1799 35.5 37.9999 35.31C37.9699 35.28 36.2799 33.09 36.2799 33.09C36.0899 32.92 35.8399 32.83 35.5799 32.83C35.3199 32.83 35.0799 32.94 34.8999 33.12L33.8499 34.04C28.6799 40.26 44.5099 55.21 49.9599 50.07L50.7999 49.11C50.9999 48.93 51.1199 48.68 51.1299 48.41C51.1499 48.14 51.0599 47.88 50.8799 47.68H50.8699Z" fill="#414B61"/>
</g>
<defs>
<filter id="filter0_d_774_22442" x="0" y="0" width="86" height="86" filterUnits="userSpaceOnUse" color-interpolation-filters="sRGB">
<feFlood flood-opacity="0" result="BackgroundImageFix"/>
<feColorMatrix in="SourceAlpha" type="matrix" values="0 0 0 0 0 0 0 0 0 0 0 0 0 0 0 0 0 0 127 0" result="hardAlpha"/>
<feOffset dy="4"/>
<feGaussianBlur stdDeviation="7.5"/>
<feComposite in2="hardAlpha" operator="out"/>
<feColorMatrix type="matrix" values="0 0 0 0 0.882353 0 0 0 0 0.882353 0 0 0 0 0.882353 0 0 0 0.2 0"/>
<feBlend mode="normal" in2="BackgroundImageFix" result="effect1_dropShadow_774_22442"/>
<feBlend mode="normal" in="SourceGraphic" in2="effect1_dropShadow_774_22442" result="shape"/>
</filter>
<clipPath id="clip0_774_22442">
<rect width="12" height="13" fill="white" transform="translate(42 27)"/>
</clipPath>
<clipPath id="clip1_774_22442">
<rect width="21.96" height="21.96" fill="white" transform="translate(31 31)"/>
</clipPath>
</defs>
</svg>
