<svg width="86" height="86" viewBox="0 0 86 86" fill="none" xmlns="http://www.w3.org/2000/svg">
<g filter="url(#filter0_d_774_22441)">
<circle cx="43" cy="39" r="28" fill="white"/>
<circle cx="43" cy="39" r="27.5" stroke="#D9D9D9"/>
</g>
<g clip-path="url(#clip0_774_22441)">
<mask id="mask0_774_22441" style="mask-type:luminance" maskUnits="userSpaceOnUse" x="31" y="27" width="23" height="23">
<path d="M54 27H31V50H54V27Z" fill="white"/>
</mask>
<g mask="url(#mask0_774_22441)">
<path d="M54 42.333V47.1246C54 47.8871 53.6971 48.6184 53.1579 49.1575C52.6188 49.6967 51.8874 49.9996 51.125 49.9996H46.3333C44.9889 49.9983 43.6684 49.6433 42.5045 48.9705C41.3405 48.2977 40.3739 47.3306 39.7017 46.1663C40.4241 46.1611 41.1441 46.0815 41.8502 45.9286C42.3881 46.601 43.0702 47.1438 43.8463 47.5168C44.6223 47.8897 45.4724 48.0832 46.3333 48.083H51.125C51.3792 48.083 51.6229 47.982 51.8026 47.8023C51.9823 47.6226 52.0833 47.3788 52.0833 47.1246V42.333C52.0831 41.4716 51.889 40.6214 51.5154 39.8453C51.1418 39.0693 50.5983 38.3872 49.9252 37.8499C50.0793 37.1439 50.1602 36.4239 50.1667 35.7013C51.331 36.3735 52.2981 37.3401 52.9709 38.504C53.6437 39.668 53.9987 40.9885 54 42.333ZM48.228 36.2485C48.3176 35.0138 48.1404 33.7743 47.7083 32.6142C47.2764 31.4541 46.5997 30.4006 45.7244 29.5252C44.8491 28.6499 43.7955 27.9732 42.6354 27.5412C41.4754 27.1092 40.2358 26.932 39.0011 27.0217C36.8132 27.2715 34.7921 28.3127 33.3184 29.9491C31.8447 31.5855 31.0202 33.7043 31 35.9064V40.7364C31 43.1629 32.4442 44.2496 33.875 44.2496H39.3375C41.5405 44.2307 43.6605 43.4067 45.2981 41.9329C46.9357 40.4591 47.9777 38.4373 48.228 36.2485ZM44.3687 30.8818C45.0491 31.5637 45.5751 32.3837 45.911 33.2865C46.247 34.1892 46.3851 35.1536 46.3161 36.1143C46.1116 37.8237 45.2892 39.3993 44.0039 40.5446C42.7187 41.6899 41.059 42.326 39.3375 42.333H33.875C32.9857 42.333 32.9167 41.1111 32.9167 40.7364V35.9064C32.9247 34.1856 33.5613 32.527 34.7068 31.2428C35.8522 29.9586 37.4275 29.1373 39.1362 28.9335C39.2953 28.922 39.4544 28.9163 39.6135 28.9163C40.4964 28.9155 41.3708 29.0886 42.1867 29.4259C43.0026 29.7631 43.7441 30.2579 44.3687 30.8818Z" fill="#414B61"/>
</g>
</g>
<defs>
<filter id="filter0_d_774_22441" x="0" y="0" width="86" height="86" filterUnits="userSpaceOnUse" color-interpolation-filters="sRGB">
<feFlood flood-opacity="0" result="BackgroundImageFix"/>
<feColorMatrix in="SourceAlpha" type="matrix" values="0 0 0 0 0 0 0 0 0 0 0 0 0 0 0 0 0 0 127 0" result="hardAlpha"/>
<feOffset dy="4"/>
<feGaussianBlur stdDeviation="7.5"/>
<feComposite in2="hardAlpha" operator="out"/>
<feColorMatrix type="matrix" values="0 0 0 0 0.882353 0 0 0 0 0.882353 0 0 0 0 0.882353 0 0 0 0.2 0"/>
<feBlend mode="normal" in2="BackgroundImageFix" result="effect1_dropShadow_774_22441"/>
<feBlend mode="normal" in="SourceGraphic" in2="effect1_dropShadow_774_22441" result="shape"/>
</filter>
<clipPath id="clip0_774_22441">
<rect width="23" height="23" fill="white" transform="translate(31 27)"/>
</clipPath>
</defs>
</svg>
