<svg width="86" height="86" viewBox="0 0 86 86" fill="none" xmlns="http://www.w3.org/2000/svg">
<g filter="url(#filter0_d_774_22443)">
<circle cx="43" cy="39" r="28" fill="white"/>
<circle cx="43" cy="39" r="27.5" stroke="#D9D9D9"/>
</g>
<g clip-path="url(#clip0_774_22443)">
<path d="M53.1299 44.35C53.6599 44.88 53.9599 45.6 53.9599 46.36C53.9599 47.12 53.6599 47.83 53.1299 48.37L52.2899 49.33C44.7899 56.51 26.5199 38.24 33.5999 30.71L34.6499 29.79C35.1899 29.28 35.8999 29 36.6399 29C37.3799 29 38.0899 29.31 38.6199 29.83C38.6499 29.86 40.3499 32.06 40.3499 32.06C40.8499 32.59 41.1299 33.29 41.1299 34.02C41.1299 34.75 40.8499 35.45 40.3399 35.98L39.2799 37.31C39.8699 38.74 40.7299 40.03 41.8199 41.13C42.9099 42.22 44.2099 43.09 45.6299 43.68L46.9699 42.61C47.4999 42.1 48.1999 41.82 48.9299 41.82C49.6599 41.82 50.3599 42.1 50.8899 42.6C50.8899 42.6 53.0999 44.3 53.1299 44.33V44.35ZM51.8699 45.68C51.8699 45.68 49.6799 43.99 49.6499 43.96C49.4599 43.77 49.2099 43.67 48.9399 43.67C48.6699 43.67 48.4199 43.78 48.2299 43.96C48.2099 43.98 46.3599 45.46 46.3599 45.46C46.2399 45.56 46.0899 45.62 45.9299 45.65C45.7699 45.67 45.6099 45.65 45.4599 45.6C43.6099 44.91 41.9299 43.84 40.5399 42.44C39.1399 41.05 38.0599 39.37 37.3699 37.52C37.3099 37.37 37.2899 37.2 37.3099 37.04C37.3299 36.88 37.3999 36.73 37.4999 36.6C37.4999 36.6 38.9699 34.75 38.9999 34.73C39.1899 34.54 39.2899 34.29 39.2899 34.02C39.2899 33.75 39.1799 33.5 38.9999 33.31C38.9699 33.28 37.2799 31.09 37.2799 31.09C37.0899 30.92 36.8399 30.83 36.5799 30.83C36.3199 30.83 36.0799 30.94 35.8999 31.12L34.8499 32.04C29.6799 38.26 45.5099 53.21 50.9599 48.07L51.7999 47.11C51.9999 46.93 52.1199 46.68 52.1299 46.41C52.1499 46.14 52.0599 45.88 51.8799 45.68H51.8699Z" fill="#414B61"/>
</g>
<defs>
<filter id="filter0_d_774_22443" x="0" y="0" width="86" height="86" filterUnits="userSpaceOnUse" color-interpolation-filters="sRGB">
<feFlood flood-opacity="0" result="BackgroundImageFix"/>
<feColorMatrix in="SourceAlpha" type="matrix" values="0 0 0 0 0 0 0 0 0 0 0 0 0 0 0 0 0 0 127 0" result="hardAlpha"/>
<feOffset dy="4"/>
<feGaussianBlur stdDeviation="7.5"/>
<feComposite in2="hardAlpha" operator="out"/>
<feColorMatrix type="matrix" values="0 0 0 0 0.882353 0 0 0 0 0.882353 0 0 0 0 0.882353 0 0 0 0.2 0"/>
<feBlend mode="normal" in2="BackgroundImageFix" result="effect1_dropShadow_774_22443"/>
<feBlend mode="normal" in="SourceGraphic" in2="effect1_dropShadow_774_22443" result="shape"/>
</filter>
<clipPath id="clip0_774_22443">
<rect width="21.96" height="21.96" fill="white" transform="translate(32 29)"/>
</clipPath>
</defs>
</svg>
