<svg width="25" height="25" viewBox="0 0 25 25" fill="none" xmlns="http://www.w3.org/2000/svg">
<circle cx="12.5" cy="12.5" r="12.5" fill="#34A853"/>
<g clip-path="url(#clip0_774_22546)">
<path d="M18.25 14.5737V11.5837C18.25 8.68861 15.8952 6.33382 13.0001 6.33382C10.105 6.33382 7.75025 8.68861 7.75025 11.5837V14.5737C6.74457 14.8332 6.00001 15.7478 6.00001 16.8336C6.00001 17.477 6.52336 18.0003 7.16675 18.0003H18.8333C19.4767 18.0003 20 17.477 20 16.8336C20 15.7481 19.2557 14.8335 18.25 14.5737ZM13.0001 7.50028C15.2513 7.50028 17.0833 9.33255 17.0833 11.5834V14.5001H8.91671V11.5834C8.91671 9.33227 10.749 7.50028 12.9999 7.50028H13.0001ZM7.16675 16.8336C7.16675 16.1902 7.69009 15.6669 8.33348 15.6669H17.6665C18.3099 15.6669 18.8333 16.1902 18.8333 16.8336H7.16675ZM18.1316 7.62332C17.9025 7.39637 17.9006 7.02779 18.127 6.79838L19.002 5.91355C19.2284 5.68441 19.5975 5.6825 19.8269 5.9089C20.0561 6.13585 20.058 6.50444 19.8316 6.73385L18.9566 7.61867C18.8428 7.73406 18.6925 7.79203 18.5418 7.79203C18.3911 7.79203 18.2454 7.73543 18.1316 7.62332ZM15.6904 5.19032L16.1438 4.31534C16.292 4.02824 16.645 3.9175 16.9302 4.0657C17.2159 4.2139 17.328 4.56553 17.1798 4.85209L16.7265 5.72707C16.6226 5.92777 16.4191 6.04206 16.2078 6.04206C16.1173 6.04206 16.0257 6.02101 15.9401 5.97671C15.6544 5.82851 15.5422 5.47688 15.6904 5.19032ZM6.16872 6.73439C5.94177 6.50526 5.94423 6.1364 6.17337 5.90945C6.40196 5.6825 6.77246 5.68496 6.99831 5.9141L7.87329 6.79892C8.10024 7.02806 8.09778 7.39692 7.86865 7.62387C7.75544 7.73598 7.6067 7.79258 7.4585 7.79258C7.3103 7.79258 7.15745 7.73488 7.0437 7.61922L6.16872 6.73439ZM8.82046 4.85209C8.67226 4.56635 8.78437 4.2139 9.07011 4.0657C9.3542 3.9175 9.70775 4.02824 9.8565 4.31534L10.3098 5.19032C10.458 5.47606 10.3459 5.82851 10.0602 5.97671C9.97517 6.02101 9.88275 6.04206 9.79251 6.04206C9.58197 6.04206 9.37772 5.92777 9.27381 5.72707L8.82046 4.85209ZM10.6667 11.5837C10.6667 10.2969 11.7131 9.25052 12.9999 9.25052C13.3225 9.25052 13.5831 9.51137 13.5831 9.83375C13.5831 10.1561 13.3222 10.417 12.9999 10.417C12.3565 10.417 11.8331 10.9403 11.8331 11.5837C11.8331 11.9064 11.5723 12.1669 11.2499 12.1669C10.9275 12.1669 10.6667 11.9061 10.6667 11.5837Z" fill="white"/>
</g>
<defs>
<clipPath id="clip0_774_22546">
<rect width="14" height="14" fill="white" transform="translate(6 4)"/>
</clipPath>
</defs>
</svg>
