<svg width="25" height="25" viewBox="0 0 25 25" fill="none" xmlns="http://www.w3.org/2000/svg">
<circle cx="12.5" cy="12.5" r="12.5" fill="#26C0E2"/>
<g clip-path="url(#clip0_774_22447)">
<path d="M20.4076 12.2834L19.2706 9.72662C18.6686 8.37249 17.3256 7.49972 15.8438 7.49972H15L14.5875 5.84851C14.4366 5.24792 13.8275 4.88316 13.227 5.03405C12.8262 5.13483 12.513 5.44773 12.4125 5.84851L12 7.49972H9.1251C7.4001 7.50148 6.00205 8.89955 6 10.6246V15.6248C6.00264 16.4337 6.525 17.1491 7.29434 17.3984C7.26592 17.5347 7.25127 17.6733 7.2501 17.8121C7.2501 19.0204 8.22949 19.9998 9.4377 19.9998C10.6459 19.9998 11.6253 19.0204 11.6253 17.8121C11.6244 17.7075 11.6156 17.6029 11.5998 17.4995H15.4011C15.385 17.6029 15.3765 17.7072 15.3756 17.8121C15.3756 19.0204 16.355 19.9998 17.5632 19.9998C18.7714 19.9998 19.7508 19.0204 19.7508 17.8121C19.7496 17.673 19.7347 17.5344 19.7065 17.3984C20.4759 17.1491 20.9982 16.4337 21.0009 15.6248V15.076C21.0023 14.1139 20.8002 13.1623 20.4085 12.2834H20.4076ZM18.1286 10.2346L18.8581 11.8747H16.6251C16.28 11.8747 16.0002 11.5949 16.0002 11.2498V8.76097C16.9286 8.81781 17.7489 9.3856 18.1289 10.2346H18.1286ZM10.3749 17.8121C10.3749 18.3298 9.95508 18.7496 9.4374 18.7496C8.91973 18.7496 8.4999 18.3298 8.4999 17.8121C8.5002 17.7052 8.52012 17.5994 8.55791 17.4995H10.3166C10.3547 17.5994 10.3743 17.7052 10.3746 17.8121H10.3749ZM17.5626 18.7496C17.0449 18.7496 16.6251 18.3298 16.6251 17.8121C16.6254 17.7052 16.6453 17.5994 16.6831 17.4995H18.4418C18.4799 17.5994 18.4995 17.7052 18.4998 17.8121C18.4998 18.3298 18.08 18.7496 17.5623 18.7496H17.5626ZM19.7499 15.6248C19.7499 15.9699 19.4701 16.2497 19.125 16.2497H7.875C7.52988 16.2497 7.2501 15.9699 7.2501 15.6248V10.6246C7.2501 9.58892 8.08945 8.74955 9.1251 8.74955H14.7501V11.2495C14.7501 12.2852 15.5895 13.1245 16.6251 13.1245H19.3934C19.628 13.7483 19.749 14.4092 19.7502 15.0757V15.6245L19.7499 15.6248ZM12.8751 12.4996C12.8751 12.8447 12.5953 13.1245 12.2502 13.1245H11.6253V13.7494C11.6253 14.0946 11.3455 14.3744 11.0004 14.3744C10.6553 14.3744 10.3755 14.0946 10.3755 13.7494V13.1245H9.75059C9.40547 13.1245 9.12568 12.8447 9.12568 12.4996C9.12568 12.1545 9.40547 11.8747 9.75059 11.8747H10.3755V11.2498C10.3755 10.9047 10.6553 10.6249 11.0004 10.6249C11.3455 10.6249 11.6253 10.9047 11.6253 11.2498V11.8747H12.2502C12.5953 11.8747 12.8751 12.1545 12.8751 12.4996Z" fill="white"/>
</g>
<defs>
<clipPath id="clip0_774_22447">
<rect width="15" height="15" fill="white" transform="translate(6 5)"/>
</clipPath>
</defs>
</svg>
