<svg width="25" height="25" viewBox="0 0 25 25" fill="none" xmlns="http://www.w3.org/2000/svg">
<circle cx="12.5" cy="12.5" r="12.5" fill="#FF6A77"/>
<g clip-path="url(#clip0_774_22448)">
<path d="M13.5 6.86467H10.375V6.23915C10.375 5.89511 10.0937 5.61363 9.75 5.61363C9.40625 5.61363 9.125 5.89511 9.125 6.23915V6.89595C8.13125 6.98352 7.175 7.29002 6.3125 7.79044C6.0125 7.96559 5.9125 8.34716 6.08125 8.64741C6.2 8.84757 6.40625 8.96017 6.625 8.96017C6.73125 8.96017 6.8375 8.93515 6.9375 8.87885C7.60625 8.49103 8.35625 8.24707 9.125 8.1595V9.42931C7.35625 9.71705 6 11.2621 6 13.1199V17.1858C6 18.7371 7.2625 20.0006 8.8125 20.0006H10.6875C12.2375 20.0006 13.5 18.7371 13.5 17.1858V13.1199C13.5 11.2621 12.1437 9.71705 10.375 9.4168V8.11571H13.5C13.8437 8.11571 14.125 7.83423 14.125 7.49019C14.125 7.14615 13.8437 6.86467 13.5 6.86467ZM12.25 13.1199V17.1858C12.25 18.049 11.55 18.7496 10.6875 18.7496H8.8125C8.05625 18.7496 7.425 18.2116 7.28125 17.4985H10.375C10.7187 17.4985 11 17.217 11 16.873C11 16.529 10.7187 16.2475 10.375 16.2475H7.25V13.1199C7.25 11.7375 8.36875 10.6178 9.75 10.6178C11.1312 10.6178 12.25 11.7375 12.25 13.1199ZM20.4937 5.27585C20.175 5.02564 19.7625 4.93806 19.3375 5.0444L16.5812 5.85133C15.8562 6.07651 15.375 6.73331 15.375 7.49019C15.375 8.24707 15.8625 8.90387 16.5937 9.12906L19.3625 9.95475C19.4687 9.97977 19.575 9.99228 19.6875 9.99228C19.975 9.99228 20.2625 9.89845 20.4937 9.71079C20.8125 9.46058 21 9.07902 21 8.67243V6.31421C21 5.90762 20.8125 5.52605 20.4937 5.27585ZM19.75 8.67243L19.6937 8.74749L16.95 7.93431C16.7562 7.87801 16.625 7.69661 16.625 7.49645C16.625 7.29628 16.7562 7.11488 16.9437 7.05858L19.725 6.27042C19.725 6.27042 19.75 6.31421 19.75 6.32672V8.68494V8.67243Z" fill="white"/>
</g>
<defs>
<clipPath id="clip0_774_22448">
<rect width="15" height="15" fill="white" transform="translate(6 5)"/>
</clipPath>
</defs>
</svg>
