<svg width="25" height="25" viewBox="0 0 25 25" fill="none" xmlns="http://www.w3.org/2000/svg">
<circle cx="12.5" cy="12.5" r="12.5" fill="#1F64E7"/>
<g clip-path="url(#clip0_774_22544)">
<path d="M20.3145 8.74422C19.892 8.51185 19.3939 8.56052 19.0163 8.87346C18.992 8.89344 18.9688 8.916 18.9475 8.93953L17.8494 10.1584C17.7176 8.39518 16.3863 7 14.7501 7H9.1251C7.40186 6.99936 6 8.5415 6 10.4372V14.5625C6 16.4582 7.40186 18.0003 9.1251 18.0003H14.7501C16.3934 18.0003 17.7302 16.5929 17.8515 14.819L18.9489 16.025C18.9703 16.0476 18.992 16.0682 19.0157 16.0882C19.2357 16.2696 19.4956 16.3618 19.7581 16.3618C19.9474 16.3618 20.1369 16.3144 20.3145 16.2168C20.7375 15.9844 21 15.5161 21 14.9969V9.96537C21 9.44487 20.7375 8.97724 20.3145 8.74487V8.74422ZM14.7501 16.6251H9.1251C8.09121 16.6251 7.2501 15.6998 7.2501 14.5625V10.4372C7.2501 9.29985 8.09121 8.37456 9.1251 8.37456H14.7501C15.784 8.37456 16.6251 9.29985 16.6251 10.4372V14.5625C16.6251 15.6998 15.784 16.6251 14.7501 16.6251ZM17.8749 12.9004V12.0828L19.7499 10.0008L19.7654 14.9773L17.8749 12.8995V12.9001V12.9004Z" fill="white"/>
</g>
<defs>
<clipPath id="clip0_774_22544">
<rect width="15" height="11" fill="white" transform="translate(6 7)"/>
</clipPath>
</defs>
</svg>
