<svg width="25" height="25" viewBox="0 0 25 25" fill="none" xmlns="http://www.w3.org/2000/svg">
<circle cx="12.5" cy="12.5" r="12.5" fill="#C58DE7"/>
<path d="M5.21596 12.9808C5.2768 12.6728 5.50639 12.4086 5.80542 12.3381C6.00372 12.2889 6.21064 12.3017 6.41267 12.2975C6.9522 12.2949 7.49144 12.2907 8.03096 12.2967C8.43073 12.2847 8.79749 12.4992 8.90224 12.9146C8.93955 13.0549 8.94385 13.2035 8.94586 13.3486C8.94959 13.8007 8.94931 14.2528 8.95045 14.7043C8.94787 14.8937 8.93467 15.1141 9.18033 15.1176C9.43172 15.1132 9.69173 15.1492 9.93796 15.0855C10.1222 15.0304 10.274 14.8847 10.4258 14.7576C10.5828 14.6235 10.7406 14.4916 10.8971 14.3561C10.9562 14.2915 11.3037 14.0613 11.077 14.0368C10.8408 14.0243 10.6017 14.0407 10.3636 14.0377C10.1541 14.0347 9.88688 14.0443 9.75773 13.8421C9.65098 13.6675 9.66762 13.4025 9.66446 13.1979C9.66332 13.0278 9.65959 12.858 9.64007 12.6895C9.55828 11.8943 9.01761 11.0756 8.20229 11.0127C7.84873 10.9728 7.64411 10.7495 7.79105 10.3775C8.25022 9.43368 8.80782 8.54141 9.28163 7.60565C9.36715 7.42279 9.25006 7.25541 9.12121 7.13568C8.86292 6.873 8.6078 6.60913 8.35296 6.34318C8.27059 6.258 8.18249 6.17193 8.07344 6.12755C7.97242 6.08467 7.85877 6.0799 7.75001 6.0802C7.393 6.08258 7.03743 6.08318 6.68014 6.08229C6.5002 6.07931 6.29989 6.0799 6.15296 5.95809C5.88405 5.70822 6.0528 5.29812 6.41296 5.26506C6.93527 5.22456 7.46102 5.25851 7.98476 5.24332C8.31421 5.22783 8.52228 5.3145 8.74612 5.56467C9.11059 5.93963 9.47104 6.31667 9.8378 6.68925C9.99048 6.85454 10.2054 6.89266 10.4181 6.88194C11.8099 6.87092 13.2018 6.87032 14.5934 6.85365C14.7983 6.85543 14.9748 6.74851 15.1111 6.59633C15.4695 6.22852 15.8231 5.85564 16.1784 5.48396C16.3503 5.28889 16.5618 5.19209 16.8204 5.20252C17.3039 5.19894 17.7869 5.19477 18.2705 5.19537C18.4429 5.19626 18.6427 5.21562 18.7586 5.36096C18.8502 5.47294 18.8726 5.64657 18.8114 5.78089C18.7193 5.99115 18.4794 6.02719 18.2799 6.02808C17.902 6.03255 17.5235 6.02957 17.1458 6.03583C17.0382 6.03791 16.9265 6.04476 16.8255 6.08437C16.7113 6.12755 16.6169 6.21243 16.5294 6.2985C16.2444 6.58203 15.9614 6.86913 15.6796 7.15653C15.4601 7.36501 15.5809 7.55144 15.7069 7.76826C16.1718 8.62867 16.6832 9.46495 17.1217 10.34C17.2218 10.5693 17.1576 10.8218 16.913 10.9142C16.7937 10.9636 16.6545 10.9758 16.5276 11.0047C15.6842 11.1923 15.2709 12.1329 15.2666 12.9528C15.2414 13.267 15.3562 13.739 15.054 13.932C14.9182 14.0097 14.7532 14.0115 14.6011 14.0142C14.3951 14.0157 14.1861 14.0148 13.9741 14.0145C13.5846 14.0044 13.8125 14.1625 13.9746 14.2968C14.1741 14.4597 14.3735 14.6229 14.5741 14.7844C14.7693 14.9532 14.9822 15.0995 15.2422 15.0917C15.3522 15.0956 15.4618 15.0944 15.572 15.0947C15.704 15.0893 15.8354 15.1144 15.9284 15.0259C16.0234 14.9211 15.9775 14.7031 15.987 14.5452C15.9847 14.1509 15.9818 13.7596 15.9809 13.3649C15.9534 12.529 16.3454 12.2231 17.1154 12.2535C17.6288 12.2502 18.1396 12.2457 18.6539 12.2442C18.9386 12.238 19.2824 12.2743 19.483 12.4947C19.6557 12.6651 19.7209 12.9513 19.7246 13.2023C19.7392 14.6822 19.7384 16.1594 19.745 17.6396C19.7593 18.0262 19.6793 18.458 19.3151 18.6406C19.136 18.7371 18.9182 18.7526 18.7173 18.7546C18.1936 18.7606 17.673 18.7636 17.1504 18.7651C16.9085 18.7669 16.6327 18.7657 16.4174 18.6453C16.0837 18.4774 15.9844 18.0568 15.9947 17.6899C15.9918 17.2188 15.9921 16.7479 15.9907 16.2771C15.997 16.0918 15.9534 15.9539 15.7473 15.9533C13.5714 15.9489 11.4047 15.9527 9.22624 15.9521C9.11461 15.9551 9.00584 15.9739 8.96939 16.0906C8.94156 16.1823 8.95246 16.2958 8.95103 16.3935C8.95304 16.7956 8.95533 17.1979 8.95734 17.6006C8.95792 17.8344 8.95906 18.0869 8.86924 18.304C8.74957 18.6135 8.45082 18.7713 8.13887 18.7919C7.52502 18.8193 6.91202 18.799 6.29788 18.8071C6.01492 18.8127 5.68718 18.7874 5.47683 18.5756C5.29258 18.4056 5.21969 18.1221 5.21194 17.8647C5.20046 17.5738 5.19386 17.2879 5.19243 16.9984C5.21108 15.6623 5.15426 14.3195 5.21481 12.9861L5.21596 12.9805V12.9808ZM14.4327 13.116C14.4846 13.0585 14.4901 12.962 14.4952 12.8828C14.5609 11.7924 14.9584 10.9002 15.9347 10.3537C16.0139 10.309 16.1244 10.2518 16.1325 10.1547C16.1385 10.0978 16.1026 10.0261 16.0713 9.97185C15.6911 9.30294 15.3105 8.63463 14.932 7.96333C14.8086 7.72984 14.6637 7.67742 14.414 7.68695C13.0474 7.70125 11.6814 7.6947 10.3151 7.71048C10.1434 7.71525 10.0263 7.83348 9.95145 7.98269C9.56804 8.68317 9.16885 9.37412 8.79118 10.0773C8.71943 10.2268 8.84025 10.3155 8.96165 10.3778C9.9767 10.9314 10.3716 11.8651 10.4336 12.9822C10.4445 13.054 10.4694 13.1091 10.5168 13.1395C10.5656 13.1731 10.6468 13.1773 10.7117 13.1767C11.8797 13.1767 13.042 13.1767 14.2134 13.1767C14.2875 13.1779 14.3827 13.1714 14.4298 13.1192L14.4327 13.116ZM6.07231 13.1952C6.03874 13.2309 6.02381 13.286 6.01951 13.353C6.0132 14.7924 6.01951 16.2231 6.01721 17.6494C6.00889 17.8779 6.08609 17.9603 6.30793 17.952C6.86639 17.9466 7.41453 17.9627 7.95979 17.9458C8.11046 17.9324 8.14088 17.7918 8.13543 17.6527C8.13543 16.241 8.13543 14.8418 8.13543 13.4379C8.136 13.3646 8.13198 13.2702 8.09525 13.2175C8.04417 13.1374 7.92995 13.1341 7.84156 13.1344C7.31437 13.1344 6.79178 13.1338 6.26918 13.1347C6.20117 13.135 6.12053 13.1446 6.07518 13.1922L6.07231 13.1952ZM16.8591 13.1562C16.8086 13.2071 16.8034 13.3146 16.8043 13.3953C16.8043 14.8091 16.8043 16.2083 16.8043 17.6077C16.796 17.8362 16.8732 17.9184 17.0953 17.91C17.6526 17.9047 18.1999 17.9207 18.7423 17.9038C18.8926 17.8904 18.9225 17.7498 18.9173 17.6107C18.9173 16.199 18.9173 14.7972 18.9173 13.398C18.9179 13.325 18.9136 13.2309 18.8769 13.1785C18.8266 13.1002 18.7141 13.0954 18.6269 13.0957C18.0963 13.0957 17.5748 13.0951 17.0551 13.096C16.9874 13.0963 16.9073 13.1058 16.862 13.1535L16.8591 13.1565V13.1562ZM13.6076 15.0774C13.6254 15.0381 13.5689 14.9872 13.5361 14.9565C13.2526 14.7209 12.9636 14.4922 12.6749 14.2563C12.5283 14.1268 12.4054 14.122 12.2588 14.2545C11.9744 14.4886 11.6883 14.7236 11.3981 14.9634C11.3648 14.9917 11.3129 15.036 11.3083 15.0709C11.3126 15.1298 11.4449 15.1132 11.4948 15.1176C12.1606 15.1176 12.8078 15.1179 13.4515 15.1173C13.5003 15.1164 13.5843 15.1132 13.6064 15.0795L13.6076 15.0774Z" fill="white"/>
<path d="M6.23026 19.0007C5.93983 19.0007 5.59402 18.9596 5.35037 18.7172C5.08233 18.4676 5.03211 18.0798 5.02608 17.8702C5.01432 17.5732 5.00772 17.2876 5.00628 16.9987V16.9949C5.01346 16.4743 5.00915 15.943 5.00514 15.4292C4.99853 14.6251 4.99193 13.7936 5.02895 12.9764L5.02953 12.9618L5.03355 12.9409C5.11017 12.552 5.40404 12.2333 5.7642 12.1484C5.93926 12.1049 6.11375 12.1046 6.28249 12.104C6.32496 12.104 6.36744 12.104 6.40934 12.1028L6.58468 12.1019C7.05792 12.0993 7.54751 12.0969 8.02964 12.1019C8.5485 12.0877 8.96261 12.3873 9.08286 12.8647C9.12476 13.0231 9.1305 13.189 9.13251 13.3448C9.13538 13.6861 9.13595 14.0315 9.13652 14.3654L9.1371 14.704V14.7281C9.13595 14.7841 9.13423 14.8866 9.14944 14.9185C9.15403 14.9199 9.1635 14.922 9.18043 14.9223C9.25591 14.9211 9.33167 14.9232 9.40485 14.9253C9.57704 14.9304 9.73976 14.9348 9.88928 14.897C10.0107 14.8595 10.1252 14.7618 10.2463 14.6582C10.2669 14.6403 10.2876 14.6227 10.3086 14.6054C10.3625 14.5596 10.4176 14.5128 10.4727 14.4661C10.5654 14.3874 10.6613 14.3064 10.7548 14.2254C10.7218 14.226 10.6885 14.2266 10.6547 14.2272C10.5588 14.229 10.4601 14.2311 10.3611 14.2299H10.3255C10.1077 14.2272 9.7785 14.2239 9.60201 13.9479L9.6 13.9443C9.47947 13.7468 9.47889 13.4916 9.47832 13.2864C9.47832 13.2566 9.47832 13.2277 9.47775 13.1997C9.4766 13.0151 9.47229 12.8626 9.45479 12.711C9.38362 12.0209 8.91584 11.2603 8.18862 11.204L8.18231 11.2034C7.92632 11.1745 7.73003 11.0625 7.62987 10.8874C7.56444 10.7731 7.50934 10.5789 7.61897 10.3022L7.62499 10.2885C7.87581 9.77268 8.15935 9.26608 8.43342 8.77646C8.663 8.36606 8.90034 7.94166 9.11558 7.51697C9.12705 7.49165 9.15202 7.42196 8.99734 7.27841L8.99131 7.27246C8.75427 7.03122 8.50258 6.77152 8.22134 6.47816C8.15074 6.4052 8.08072 6.3367 8.00582 6.30602C7.93235 6.27505 7.83908 6.27207 7.75643 6.27207H7.75098C7.40832 6.27445 7.05792 6.27505 6.68053 6.27416H6.66245C6.46989 6.27088 6.23026 6.26731 6.03741 6.10797L6.02937 6.10082C5.85718 5.94089 5.79347 5.7068 5.86292 5.48999C5.93725 5.25828 6.14704 5.09359 6.39757 5.07065C6.72301 5.04534 7.04845 5.04802 7.36326 5.0507C7.56559 5.05249 7.7748 5.05427 7.97884 5.04832C8.36139 5.03075 8.62311 5.14094 8.88111 5.42864C9.01054 5.56206 9.13968 5.69549 9.26882 5.82921C9.49755 6.06598 9.73431 6.31079 9.96906 6.54934L9.97336 6.55381C10.0655 6.65388 10.2084 6.69736 10.4099 6.68694H10.4176C10.9629 6.68247 11.5173 6.67949 12.0534 6.67711C12.8857 6.67294 13.7463 6.66877 14.592 6.65835H14.5941H14.5961C14.5972 6.65835 14.5984 6.65835 14.5995 6.65835C14.7651 6.65835 14.8954 6.55232 14.9755 6.46298L14.9809 6.45732C15.2619 6.16873 15.5451 5.8721 15.8189 5.58499L16.0445 5.34882C16.2554 5.11146 16.518 4.9965 16.8242 5.00722L16.9723 5.00603C17.3979 5.00275 17.8378 4.99947 18.2717 5.00007C18.4795 5.00096 18.7384 5.02866 18.9034 5.23595C19.042 5.40541 19.0738 5.65707 18.9814 5.86048C18.877 6.09725 18.6416 6.21817 18.2818 6.21995C18.1119 6.22204 17.9383 6.22263 17.7704 6.22293C17.5666 6.22353 17.356 6.22412 17.1496 6.2277C17.0457 6.22978 16.9619 6.23663 16.8928 6.26373C16.8144 6.29351 16.743 6.35457 16.6592 6.43706C16.3556 6.73906 16.0602 7.03926 15.8114 7.29301L15.8066 7.29777C15.7196 7.38027 15.7164 7.40767 15.8548 7.64503L15.8706 7.67214C16.0499 8.00391 16.2396 8.33836 16.423 8.6618C16.7151 9.17674 17.017 9.70894 17.288 10.2495L17.2923 10.259C17.3686 10.4335 17.3749 10.6173 17.3106 10.776C17.2512 10.9223 17.1341 11.0351 16.9803 11.0941C16.8816 11.1346 16.7806 11.1528 16.683 11.1704C16.6425 11.1778 16.6044 11.1847 16.5682 11.1927C16.1412 11.2877 15.8838 11.5974 15.7431 11.8405C15.5615 12.1541 15.4562 12.5594 15.4539 12.9528L15.4533 12.9677C15.4478 13.035 15.4501 13.1169 15.4524 13.2033C15.4605 13.494 15.4711 13.8922 15.1522 14.0956L15.1445 14.1003C14.9706 14.1998 14.7806 14.2034 14.613 14.2064H14.6052C14.46 14.2076 14.3125 14.2076 14.1685 14.2073C14.3318 14.3407 14.5111 14.4869 14.689 14.6302L14.6942 14.6346C14.8558 14.7746 15.0329 14.9033 15.2378 14.897H15.2435H15.2492C15.3327 14.9 15.4154 14.9 15.5026 14.9H15.5695C15.6002 14.8991 15.6295 14.8991 15.6576 14.8994C15.7124 14.8997 15.7687 14.9003 15.7945 14.8881C15.8077 14.8517 15.8043 14.7502 15.8023 14.6939C15.8005 14.643 15.7988 14.5906 15.8014 14.5393L15.7994 14.2138C15.7977 13.9318 15.7959 13.6503 15.7954 13.3674C15.781 12.9186 15.878 12.5931 16.0921 12.3721C16.3134 12.1433 16.6497 12.0412 17.1192 12.0591L17.5597 12.0561C17.9173 12.0537 18.2869 12.051 18.6523 12.0498C19.1005 12.04 19.4159 12.1407 19.616 12.3569C19.799 12.5397 19.907 12.8462 19.9121 13.1985C19.9219 14.1933 19.9247 15.2026 19.9276 16.1788C19.929 16.664 19.9302 17.1491 19.9325 17.6349C19.9589 18.372 19.6581 18.6823 19.3999 18.8131C19.1858 18.9274 18.9364 18.9453 18.7206 18.9477C18.2465 18.9531 17.7334 18.9563 17.1522 18.9581C16.9177 18.9599 16.596 18.9623 16.3337 18.817C15.9862 18.6398 15.7951 18.2282 15.8094 17.687C15.8077 17.3862 15.8071 17.0807 15.8066 16.7852C15.8063 16.6157 15.806 16.4463 15.8054 16.2768V16.2691C15.8083 16.1887 15.7979 16.1595 15.7942 16.1517C15.7885 16.1494 15.7738 16.1458 15.748 16.1458C14.3137 16.1428 12.8578 16.1434 11.4502 16.1443C10.7109 16.1443 9.97107 16.1449 9.22979 16.1449C9.17986 16.1464 9.15661 16.1517 9.14657 16.155C9.13652 16.1952 9.13739 16.2575 9.13825 16.3176C9.13853 16.3435 9.13882 16.3689 9.13853 16.3933L9.14485 17.6063C9.14542 17.8502 9.146 18.1263 9.04268 18.3774C8.9055 18.73 8.57261 18.9566 8.1516 18.984H8.14787C7.75729 19.0016 7.36269 19.0001 6.981 18.9983C6.75802 18.9974 6.52729 18.9965 6.30114 18.9995C6.27819 19.0001 6.25465 19.0001 6.23083 19.0001L6.23026 19.0007ZM5.37936 16.9987C5.38079 17.2823 5.38711 17.5628 5.39887 17.8562C5.40634 18.1102 5.48009 18.3184 5.6012 18.4304L5.60722 18.436C5.77224 18.6016 6.06123 18.6177 6.29483 18.6129C6.52556 18.61 6.75745 18.6109 6.98215 18.6118C7.35896 18.6132 7.74839 18.6147 8.12979 18.5981C8.40329 18.5796 8.61537 18.4429 8.69687 18.2314L8.69859 18.227C8.77235 18.0489 8.77177 17.8243 8.77148 17.6072V17.6004L8.76517 16.3921V16.39C8.76546 16.3686 8.76517 16.3465 8.76488 16.3239C8.76345 16.2339 8.76201 16.1318 8.79215 16.032C8.87508 15.7676 9.13624 15.7604 9.22204 15.758H9.22692C9.96906 15.758 10.7095 15.758 11.4496 15.7574C12.8575 15.7568 14.3134 15.7562 15.7486 15.7589C15.8812 15.7592 15.9868 15.8009 16.0625 15.8828C16.173 16.0019 16.1819 16.1654 16.1782 16.2795C16.1788 16.4481 16.1791 16.6163 16.1793 16.7846C16.1799 17.0807 16.1805 17.3868 16.1822 17.6882V17.6918V17.6954C16.1782 17.8377 16.1894 18.3145 16.4999 18.4709L16.5071 18.4748C16.6859 18.5748 16.943 18.573 17.1499 18.5713C17.7311 18.5695 18.243 18.5662 18.7163 18.5608C18.889 18.559 19.085 18.5465 19.23 18.4685L19.2348 18.4661C19.4661 18.3503 19.5752 18.0745 19.5594 17.6468V17.6403C19.5571 17.1533 19.5557 16.667 19.5542 16.1806C19.5514 15.2053 19.5488 14.1965 19.5388 13.2042C19.5353 12.9576 19.4667 12.7444 19.3554 12.6348L19.3482 12.6273C19.2265 12.4939 18.9943 12.4299 18.6586 12.4376H18.6551C18.2898 12.4388 17.9199 12.4415 17.562 12.4439L17.1132 12.4468H17.1092C16.7461 12.4322 16.4996 12.4978 16.3553 12.647C16.2184 12.7884 16.1572 13.021 16.1682 13.3579V13.3641C16.169 13.6476 16.1707 13.9297 16.1725 14.212L16.1745 14.5503V14.5569C16.1719 14.5914 16.1736 14.6349 16.175 14.6808C16.1802 14.8336 16.1868 15.0236 16.0651 15.1582L16.0554 15.1683C15.9279 15.2895 15.7701 15.2884 15.6547 15.2872C15.6286 15.2872 15.6037 15.2869 15.5801 15.2878H15.5724H15.5026C15.4177 15.2878 15.3302 15.2878 15.2423 15.2848C14.9186 15.2922 14.6638 15.1126 14.458 14.9348C14.2514 14.7687 14.0433 14.5986 13.86 14.4485C13.8465 14.4372 13.8333 14.4268 13.8204 14.416C13.6815 14.3032 13.5242 14.1751 13.5865 13.9952C13.6496 13.8129 13.8694 13.8177 13.9773 13.8204H14.1223C14.2873 13.821 14.4434 13.8213 14.6007 13.8201H14.6067C14.7353 13.8177 14.8678 13.815 14.9608 13.7641C15.0831 13.6825 15.0874 13.4931 15.0796 13.2149C15.077 13.1244 15.0745 13.0306 15.0811 12.9439C15.0848 12.4787 15.2062 12.0162 15.4237 11.6415C15.6803 11.199 16.0488 10.913 16.4896 10.8151C16.5326 10.8052 16.5768 10.7972 16.6193 10.7894C16.7025 10.7743 16.7814 10.76 16.8451 10.7338L16.8503 10.7317C16.9083 10.7096 16.9476 10.6745 16.9671 10.6262C16.9901 10.5699 16.9855 10.4961 16.9548 10.4234C16.689 9.89389 16.3906 9.36764 16.1019 8.85866C15.9179 8.53433 15.7276 8.19898 15.5468 7.86483L15.5359 7.84606C15.4145 7.63789 15.2312 7.32339 15.5523 7.01544C15.8014 6.76139 16.097 6.46089 16.4018 6.15801C16.5039 6.05704 16.6179 5.95668 16.7628 5.90188C16.8873 5.85303 17.0196 5.8438 17.1436 5.84142C17.3528 5.83785 17.5646 5.83725 17.7695 5.83665C17.9365 5.83606 18.1093 5.83546 18.2789 5.83368C18.5848 5.83219 18.6284 5.73242 18.6428 5.69995L18.6439 5.69698C18.6735 5.63235 18.6617 5.53943 18.6175 5.48522C18.5495 5.40005 18.3969 5.38873 18.2712 5.38813C17.8395 5.38754 17.4005 5.39111 16.9754 5.39409L16.819 5.39528H16.8147C16.6138 5.38754 16.456 5.45663 16.3174 5.61388L16.3122 5.61954L16.0844 5.8581C15.8106 6.1449 15.5279 6.44153 15.2461 6.73042C15.0595 6.93711 14.8363 7.04641 14.6001 7.04641C14.5984 7.04641 14.5966 7.04641 14.5949 7.04641C13.7483 7.05654 12.8877 7.061 12.0554 7.06487C11.5208 7.06756 10.968 7.07024 10.4245 7.0747C10.1163 7.08959 9.87464 7.00561 9.70647 6.82483C9.47115 6.58568 9.23467 6.34087 9.00566 6.1041C8.87595 5.96978 8.74623 5.83546 8.61594 5.70144L8.61049 5.69549C8.42567 5.4885 8.27013 5.42298 7.99462 5.43579H7.99147C7.78025 5.44204 7.56702 5.44025 7.36097 5.43847C7.05361 5.43608 6.73592 5.4334 6.42856 5.45723C6.30688 5.46825 6.23944 5.54509 6.21763 5.61299C6.19525 5.68268 6.21562 5.75207 6.27474 5.80925C6.36801 5.88282 6.52097 5.8852 6.66848 5.88758H6.68427C7.05792 5.88848 7.40746 5.88788 7.75012 5.8855H7.75499C7.88299 5.8855 8.01787 5.89324 8.14529 5.94744C8.28419 6.00403 8.39009 6.10589 8.48622 6.20536C8.76574 6.49693 9.01542 6.75484 9.25046 6.99399C9.56843 7.29182 9.51276 7.55747 9.45077 7.68971L9.44819 7.69537C9.22893 8.1281 8.98902 8.55726 8.75685 8.97213C8.4868 9.4549 8.20757 9.95405 7.96248 10.4574C7.93551 10.528 7.91283 10.6236 7.95158 10.6912C7.98975 10.7576 8.08761 10.8043 8.22077 10.8198C8.65267 10.8541 9.0401 11.073 9.34143 11.4533C9.60832 11.7898 9.78051 12.2217 9.82672 12.6687C9.84738 12.8456 9.85111 13.0273 9.85226 13.1964C9.85283 13.2241 9.85283 13.2548 9.85283 13.2864C9.85312 13.449 9.85369 13.6331 9.91539 13.7361C9.97853 13.832 10.1341 13.8412 10.3307 13.8433H10.3671C10.4598 13.8448 10.5559 13.843 10.6486 13.8409C10.7918 13.838 10.9396 13.835 11.0874 13.8427L11.0972 13.8436C11.2628 13.8615 11.315 13.9616 11.3316 14.0199C11.3822 14.1989 11.2166 14.3362 11.0834 14.4464C11.0648 14.4619 11.0395 14.483 11.032 14.4902L11.0174 14.5042C10.915 14.5926 10.8108 14.6811 10.7098 14.7666C10.6549 14.813 10.5998 14.8595 10.545 14.9062C10.5241 14.9238 10.5043 14.9408 10.4845 14.9578C10.3453 15.0766 10.1875 15.2115 9.99058 15.2705L9.98398 15.2723C9.78424 15.3241 9.58651 15.3184 9.39567 15.3131C9.3222 15.311 9.25304 15.3089 9.18445 15.3101H9.18158H9.17871C9.05531 15.3083 8.95573 15.2681 8.88312 15.1907C8.75914 15.0581 8.76201 14.872 8.76431 14.7225V14.7022V14.3666C8.76374 14.0333 8.76345 13.6885 8.76058 13.3495C8.75886 13.2143 8.75455 13.0821 8.72384 12.9653C8.66358 12.7262 8.45121 12.4769 8.03767 12.4897H8.03394H8.03021C7.5498 12.4847 7.0605 12.4873 6.58755 12.4897L6.41479 12.4906C6.37318 12.4915 6.3287 12.4915 6.28421 12.4918C6.1301 12.4921 5.9846 12.4927 5.84972 12.526C5.63047 12.5779 5.45225 12.7718 5.40174 13.0103C5.36587 13.8117 5.37247 14.6325 5.37907 15.4265C5.38338 15.9421 5.38768 16.4749 5.38022 16.999L5.37936 16.9987ZM7.35064 18.1466C7.21977 18.1466 7.08977 18.146 6.9612 18.1451C6.74912 18.1439 6.52987 18.1427 6.31234 18.1448C6.20644 18.1486 6.05434 18.1397 5.94471 18.0259C5.83566 17.9125 5.82734 17.7549 5.83107 17.645C5.83193 17.0774 5.83136 16.499 5.83107 15.9394C5.83021 15.0927 5.82963 14.2171 5.83336 13.3513V13.3394C5.84169 13.2179 5.87612 13.1262 5.93926 13.0592L5.94299 13.0553C6.05176 12.9418 6.21505 12.9409 6.26872 12.9406C6.59846 12.94 6.92734 12.9403 7.25737 12.9403C7.45165 12.9403 7.64652 12.9403 7.84195 12.9403C7.93809 12.9397 8.13984 12.9391 8.24946 13.1071C8.31576 13.2054 8.32351 13.3358 8.32264 13.4389V17.6483C8.33728 18.0724 8.06149 18.1302 7.97654 18.1379L7.96621 18.1385C7.76217 18.1448 7.55583 18.1466 7.35092 18.1466H7.35064ZM6.56603 17.7564C6.69976 17.7564 6.83264 17.757 6.96292 17.7579C7.28521 17.7597 7.6181 17.7615 7.94211 17.7516C7.94584 17.7388 7.95129 17.7111 7.94928 17.6596V17.6519V13.4371C7.94986 13.379 7.94584 13.3486 7.94297 13.3337C7.9246 13.3293 7.89102 13.3275 7.84252 13.3272C7.64652 13.3272 7.45165 13.3272 7.25708 13.3272C6.92734 13.3272 6.59846 13.3272 6.26958 13.3275C6.23944 13.3275 6.2205 13.3302 6.2096 13.3326C6.20845 13.3388 6.20701 13.3474 6.20615 13.3594C6.20242 14.2219 6.203 15.0945 6.20386 15.9385C6.20443 16.4993 6.20472 17.0792 6.20386 17.6486V17.6557C6.20156 17.7126 6.20701 17.7397 6.21017 17.7505C6.22079 17.7537 6.24691 17.7594 6.30143 17.7573H6.3066C6.39327 17.7564 6.47993 17.7561 6.56603 17.7561V17.7564ZM18.1363 18.1046C18.0057 18.1046 17.876 18.104 17.7477 18.1031C17.5359 18.1019 17.3169 18.1007 17.1 18.1028C16.9938 18.1066 16.8417 18.0977 16.7321 17.9836C16.623 17.8702 16.6147 17.7132 16.6184 17.6033V13.3945C16.617 13.2742 16.6282 13.1202 16.7281 13.0181L16.7298 13.0163C16.838 12.9028 17.0007 12.9019 17.0544 12.9016C17.3864 12.901 17.7181 12.9013 18.0528 12.9013C18.2433 12.9013 18.4347 12.9013 18.6276 12.9013C18.7151 12.9007 18.9209 12.9001 19.0308 13.0672C19.0979 13.1655 19.1057 13.2959 19.1048 13.399V17.6063C19.1192 18.0301 18.8443 18.0882 18.7593 18.0959L18.7487 18.0965C18.5461 18.1028 18.3406 18.1046 18.1366 18.1046H18.1363ZM17.3531 17.7147C17.4868 17.7147 17.6194 17.7153 17.7497 17.7162C18.0855 17.718 18.4029 17.7198 18.7243 17.7102C18.728 17.6974 18.7335 17.6694 18.7315 17.6179V17.6102V13.3975C18.732 13.3403 18.7283 13.3102 18.7252 13.2956C18.7111 13.292 18.6835 13.2891 18.6284 13.2888C18.435 13.2888 18.2436 13.2888 18.0528 13.2888C17.7187 13.2888 17.387 13.2888 17.0561 13.2891C17.0271 13.2891 17.0084 13.2918 16.9975 13.2941C16.9944 13.3099 16.9909 13.3397 16.9918 13.3927V17.6146C16.9895 17.6712 16.9947 17.6983 16.9978 17.7094C17.0084 17.7126 17.0343 17.7183 17.0894 17.7162H17.0942C17.1806 17.7153 17.267 17.715 17.3534 17.715L17.3531 17.7147ZM12.6698 15.3107C12.3941 15.3107 12.1165 15.3107 11.8362 15.3107C11.7228 15.3107 11.6092 15.3107 11.4949 15.3107L11.4794 15.3101C11.4728 15.3098 11.4639 15.3101 11.4539 15.3101H11.4516C11.2444 15.3101 11.1336 15.2344 11.1227 15.0855L11.1213 15.0653L11.1239 15.045C11.1379 14.9351 11.2229 14.8625 11.2791 14.8145L11.2823 14.8118C11.4705 14.6564 11.6568 14.503 11.8422 14.3505L12.1401 14.1054C12.3513 13.9166 12.5769 13.9169 12.7932 14.1063C12.9043 14.1968 13.0154 14.2865 13.1261 14.3758C13.2995 14.5158 13.4788 14.6602 13.6533 14.8053L13.6648 14.8157C13.7113 14.8592 13.8528 14.9917 13.7773 15.1594L13.7609 15.1892C13.6835 15.3065 13.5351 15.3095 13.4556 15.311H13.4522C13.1924 15.3113 12.9321 15.3113 12.6701 15.3113L12.6698 15.3107ZM11.8364 14.9235C12.1168 14.9235 12.3943 14.9235 12.6698 14.9235C12.8461 14.9235 13.0214 14.9235 13.1965 14.9235C13.0963 14.8419 12.9956 14.7606 12.8968 14.6811C12.7846 14.5906 12.6721 14.4997 12.5596 14.408L12.5539 14.4032C12.4713 14.3303 12.4523 14.3359 12.3811 14.4002L12.3745 14.4059L12.0732 14.654C11.9644 14.7436 11.8551 14.8333 11.7455 14.9238H11.8359L11.8364 14.9235ZM14.2284 13.3698C14.2227 13.3698 14.217 13.3698 14.2115 13.3698H10.7123C10.624 13.3707 10.5083 13.3635 10.417 13.3019C10.3266 13.2426 10.2704 13.1452 10.2503 13.0115L10.2483 12.9924C10.1831 11.8169 9.73459 11.0179 8.87767 10.5494C8.78095 10.4997 8.64837 10.4169 8.60102 10.2706C8.58064 10.2081 8.5683 10.1083 8.62512 9.99039L8.62914 9.98235C8.8461 9.5785 9.07368 9.17257 9.2935 8.77974C9.4568 8.48817 9.62554 8.18677 9.78855 7.88895C9.90736 7.65456 10.0927 7.52203 10.3109 7.51608H10.3137C11.0186 7.50804 11.7349 7.50565 12.4276 7.50357C13.0776 7.50148 13.7495 7.4994 14.4104 7.49255C14.6578 7.48361 14.912 7.52322 15.0948 7.86691C15.4283 8.45868 15.7692 9.0579 16.0987 9.63747L16.2324 9.87275C16.2781 9.95197 16.3297 10.0589 16.3185 10.1727C16.3013 10.3671 16.1354 10.4604 16.0361 10.5163L16.0244 10.5229C15.189 10.9908 14.7499 11.7663 14.6819 12.8942C14.6756 12.9939 14.6664 13.1405 14.5694 13.248L14.5645 13.253C14.4709 13.3549 14.3315 13.3698 14.2284 13.3698ZM14.2138 12.9823C14.2589 12.9829 14.2841 12.9796 14.2973 12.977C14.3045 12.951 14.3076 12.9007 14.3094 12.8718C14.3863 11.5977 14.8891 10.7186 15.8464 10.1825L15.8585 10.1756C15.8809 10.1631 15.9179 10.1423 15.94 10.1253C15.9348 10.1131 15.9262 10.0955 15.9116 10.0702L15.7773 9.83403C15.4473 9.25328 15.1057 8.65287 14.7714 8.0599L14.7688 8.05543C14.689 7.90444 14.6242 7.87168 14.421 7.87912H14.4161C13.7532 7.88627 13.0797 7.88835 12.4282 7.89044C11.7369 7.89252 11.022 7.89491 10.3189 7.90295C10.2876 7.90384 10.1984 7.9089 10.1169 8.07122L10.1137 8.07717C9.94926 8.37768 9.77936 8.68086 9.61521 8.97392C9.3994 9.3593 9.17613 9.75749 8.96347 10.1527C8.9761 10.1634 8.99992 10.1801 9.04412 10.2027L9.04842 10.2051C10.0296 10.7406 10.5436 11.6412 10.6194 12.9588C10.6208 12.9662 10.6222 12.9719 10.6234 12.9761C10.6357 12.9787 10.6613 12.9826 10.7103 12.982H14.2135L14.2138 12.9823Z" fill="white"/>
<path d="M14.115 10.4606C14.0998 11.4163 13.3413 12.1862 12.4301 12.171C11.5276 12.1561 10.7754 11.3669 10.786 10.4457C10.7969 9.46946 11.5537 8.69751 12.4801 8.71716C13.3964 8.73652 14.1299 9.5189 14.115 10.4603V10.4606ZM13.3054 10.4362C13.3031 9.9433 12.9246 9.55226 12.4502 9.55345C11.9761 9.55464 11.5939 9.94807 11.5921 10.4365C11.5901 10.9273 11.9885 11.3386 12.4582 11.3312C12.9318 11.3237 13.3077 10.9264 13.3054 10.4362Z" fill="white"/>
<path d="M12.4576 12.3646C12.4478 12.3646 12.4378 12.3646 12.428 12.3646C11.4256 12.3479 10.5887 11.4681 10.6002 10.4436C10.6062 9.91438 10.8086 9.42297 11.1699 9.05993C11.5243 8.70373 11.9904 8.51342 12.4848 8.52384C13.5036 8.54559 14.3189 9.41582 14.3023 10.4639C14.2856 11.5185 13.4608 12.3649 12.4576 12.3649V12.3646ZM12.4464 8.91042C12.0644 8.91042 11.7045 9.06141 11.4293 9.33779C11.14 9.62847 10.9782 10.0228 10.9733 10.4478C10.9641 11.2635 11.6331 11.9637 12.434 11.9771C12.4418 11.9771 12.4498 11.9771 12.4576 11.9771C13.258 11.9771 13.916 11.3001 13.9292 10.4567C13.9424 9.62132 13.291 8.92769 12.4771 8.91042C12.4667 8.91042 12.4564 8.91012 12.4464 8.91012V8.91042ZM12.4458 11.5247C12.1749 11.5247 11.9177 11.4133 11.7197 11.2102C11.5194 11.0044 11.4049 10.7221 11.4061 10.4356C11.4084 9.84379 11.877 9.36132 12.4504 9.35983H12.4533C13.0335 9.35983 13.4898 9.83158 13.4927 10.435C13.4953 11.0267 13.033 11.5155 12.4616 11.5244C12.4564 11.5244 12.451 11.5244 12.4458 11.5244V11.5247ZM12.4533 9.747H12.4515C12.0825 9.7479 11.7809 10.0576 11.7794 10.4374C11.7786 10.6235 11.8506 10.8001 11.9823 10.935C12.1097 11.0658 12.2742 11.1375 12.4464 11.1375C12.4498 11.1375 12.453 11.1375 12.4564 11.1375C12.8303 11.1316 13.1216 10.8236 13.1199 10.4368C13.1182 10.0496 12.8255 9.7467 12.4535 9.7467L12.4533 9.747Z" fill="white"/>
</svg>
