<svg width="23" height="23" viewBox="0 0 23 23" fill="none" xmlns="http://www.w3.org/2000/svg">
<circle cx="11.5" cy="11.5" r="11.5" fill="#C83F3E"/>
<g clip-path="url(#clip0_774_22451)">
<mask id="mask0_774_22451" style="mask-type:luminance" maskUnits="userSpaceOnUse" x="5" y="5" width="14" height="14">
<path d="M19 5H5V19H19V5Z" fill="white"/>
</mask>
<g mask="url(#mask0_774_22451)">
<path d="M12.0001 8.5C11.5386 8.5 11.0874 8.63685 10.7038 8.89324C10.32 9.14963 10.021 9.51404 9.84437 9.94041C9.66776 10.3668 9.62155 10.8359 9.71158 11.2886C9.80161 11.7412 10.0238 12.1569 10.3502 12.4832C10.6765 12.8095 11.0922 13.0318 11.5449 13.1218C11.9975 13.2119 12.4667 13.1657 12.893 12.989C13.3194 12.8125 13.6838 12.5134 13.9402 12.1297C14.1966 11.746 14.3334 11.2948 14.3334 10.8333C14.3334 10.2145 14.0876 9.621 13.65 9.18342C13.2124 8.74583 12.6189 8.5 12.0001 8.5ZM12.0001 12C11.7694 12 11.5438 11.9316 11.3519 11.8034C11.1601 11.6752 11.0105 11.493 10.9222 11.2798C10.8339 11.0666 10.8108 10.832 10.8559 10.6057C10.9008 10.3794 11.012 10.1715 11.1751 10.0084C11.3383 9.84521 11.5462 9.7341 11.7725 9.68908C11.9988 9.64407 12.2333 9.66717 12.4466 9.75547C12.6597 9.84378 12.8419 9.99331 12.9702 10.1852C13.0983 10.377 13.1667 10.6026 13.1667 10.8333C13.1667 11.1427 13.0438 11.4395 12.825 11.6583C12.6063 11.8771 12.3095 12 12.0001 12Z" fill="white"/>
<path d="M11.9999 18.9992C11.5087 19.0017 11.0241 18.8865 10.5866 18.6632C10.149 18.44 9.77137 18.1151 9.48519 17.7159C7.2621 14.6493 6.13452 12.344 6.13452 10.8635C6.13452 9.30786 6.75248 7.81597 7.85246 6.71599C8.95244 5.61601 10.4443 4.99805 11.9999 4.99805C13.5555 4.99805 15.0474 5.61601 16.1474 6.71599C17.2474 7.81597 17.8653 9.30786 17.8653 10.8635C17.8653 12.344 16.7377 14.6493 14.5147 17.7159C14.2285 18.1151 13.8508 18.44 13.4133 18.6632C12.9758 18.8865 12.4911 19.0017 11.9999 18.9992ZM11.9999 6.27146C10.7822 6.27285 9.61469 6.75722 8.75361 7.6183C7.89252 8.47939 7.40816 9.64687 7.40677 10.8646C7.40677 12.0371 8.51102 14.2054 10.5154 16.9698C10.6855 17.2042 10.9087 17.3949 11.1668 17.5265C11.4248 17.658 11.7103 17.7266 11.9999 17.7266C12.2895 17.7266 12.5751 17.658 12.8331 17.5265C13.0912 17.3949 13.3144 17.2042 13.4845 16.9698C15.4888 14.2054 16.5931 12.0371 16.5931 10.8646C16.5917 9.64687 16.1073 8.47939 15.2463 7.6183C14.3852 6.75722 13.2177 6.27285 11.9999 6.27146Z" fill="white"/>
</g>
</g>
<defs>
<clipPath id="clip0_774_22451">
<rect width="14" height="14" fill="white" transform="translate(5 5)"/>
</clipPath>
</defs>
</svg>
