<svg width="25" height="25" viewBox="0 0 25 25" fill="none" xmlns="http://www.w3.org/2000/svg">
<circle cx="12.5" cy="12.5" r="12.5" fill="#FF8F6B"/>
<g clip-path="url(#clip0_774_22449)">
<path d="M17.4829 11.3334C17.3406 11.3334 17.1985 11.3416 17.0571 11.3575L16.6264 10.1441C16.9776 10.0859 17.3489 10.0428 17.6858 10.0194C18.0271 10.7022 19.5473 11.0288 19.6119 10V8.66656C19.541 7.61719 17.9846 7.97781 17.6626 8.68375C17.1816 8.71438 16.7029 8.77188 16.2292 8.85656L16.173 8.86719L15.8024 7.82313C15.4175 6.73375 14.3321 5.99906 13.1103 6H11.806C11.4138 6 11.0961 6.29844 11.0961 6.66656C11.0961 7.03469 11.4138 7.33313 11.8056 7.33313H13.1099C13.7217 7.3325 14.2649 7.7 14.4582 8.245L14.8507 9.35094C14.5313 9.53031 14.2383 9.74844 13.9791 9.99969H10.2621C9.96175 9.20125 9.15873 8.66719 8.25726 8.66625H6.12831C5.73645 8.66625 5.41877 8.96469 5.41877 9.33281C5.41877 9.70094 5.73645 9.99938 6.12831 9.99938H8.25726C8.52704 9.99656 8.77453 10.14 8.89228 10.3681C8.93586 10.4503 8.96114 10.54 8.9668 10.6316C8.95382 10.7844 8.90526 10.9328 8.82476 11.0663L8.5124 11.4569C6.61364 10.9653 4.65035 12.0128 4.12709 13.7966C4.04393 14.08 4.00102 14.3725 3.99902 14.6663C4.07986 18.775 10.3616 19.175 11.0578 15.1503C11.5518 14.97 11.9826 14.6641 12.3019 14.2663L14.7509 11.1997C14.9272 11.0116 15.1151 10.8334 15.3144 10.6663L15.7083 11.7797C14.0171 12.7203 13.4576 14.7709 14.4592 16.36C15.0929 17.3653 16.2388 17.9869 17.4823 17.9997C22.1716 17.8597 22.1703 11.4725 17.4823 11.3331L17.4829 11.3334ZM7.54805 16.6666C6.37214 16.6666 5.4191 15.7713 5.4191 14.6666C5.4191 13.5619 6.37214 12.6666 7.54805 12.6666L7.12226 13.2C6.6519 13.7891 6.77897 14.6247 7.40601 15.0666C7.65184 15.2397 7.95056 15.3331 8.25759 15.3331H9.55492C9.25421 16.1322 8.45019 16.6663 7.54805 16.6666ZM11.1673 13.4666C10.8985 13.8016 10.4784 13.9988 10.0319 14H8.25792L9.96108 11.8666C10.0911 11.7044 10.1943 11.5244 10.2668 11.3331H12.8704L11.1673 13.4666ZM17.4829 16.6666C16.302 16.6516 15.358 15.74 15.3739 14.6309C15.3826 14.0306 15.6767 13.4653 16.1756 13.09L16.81 14.8772C16.9337 15.2269 17.3362 15.4163 17.7085 15.3C18.0807 15.1838 18.2823 14.8056 18.1585 14.4559L17.5212 12.6666C18.6971 12.6766 19.6415 13.58 19.6308 14.6847C19.6202 15.7894 18.6585 16.6766 17.4826 16.6666H17.4829Z" fill="white"/>
</g>
<defs>
<clipPath id="clip0_774_22449">
<rect width="17" height="12" fill="white" transform="translate(4 6)"/>
</clipPath>
</defs>
</svg>
