<svg width="25" height="25" viewBox="0 0 25 25" fill="none" xmlns="http://www.w3.org/2000/svg">
<circle cx="12.5" cy="12.5" r="12.5" fill="#75A4FE"/>
<g clip-path="url(#clip0_774_22545)">
<mask id="mask0_774_22545" style="mask-type:luminance" maskUnits="userSpaceOnUse" x="5" y="5" width="15" height="15">
<path d="M20 5H5V20H20V5Z" fill="white"/>
</mask>
<g mask="url(#mask0_774_22545)">
<path d="M16.6131 6.33765L12.6975 5.03203C12.5693 4.98932 12.4307 4.98932 12.3025 5.03203L8.38688 6.33765C7.76432 6.54445 7.22276 6.94219 6.83916 7.47435C6.45555 8.0065 6.2494 8.64602 6.25 9.30203V12.5002C6.25 17.227 12 19.8377 12.2462 19.9464C12.3261 19.9819 12.4126 20.0002 12.5 20.0002C12.5874 20.0002 12.6739 19.9819 12.7537 19.9464C13 19.8377 18.75 17.227 18.75 12.5002V9.30203C18.7506 8.64602 18.5445 8.0065 18.1609 7.47435C17.7772 6.94219 17.2357 6.54445 16.6131 6.33765ZM17.5 12.5002C17.5 15.9095 13.5506 18.1458 12.5 18.6808C11.4481 18.1477 7.5 15.9183 7.5 12.5002V9.30203C7.50004 8.90845 7.62393 8.52486 7.85411 8.20561C8.08429 7.88636 8.4091 7.64765 8.7825 7.52328L12.5 6.2839L16.2175 7.52328C16.5909 7.64765 16.9157 7.88636 17.1459 8.20561C17.3761 8.52486 17.5 8.90845 17.5 9.30203V12.5002Z" fill="white"/>
<path d="M14.5622 10.1872L11.9447 12.8122L10.5423 11.3497C10.486 11.2882 10.4179 11.2385 10.3422 11.2037C10.2664 11.1688 10.1844 11.1495 10.1011 11.1468C10.0177 11.1441 9.93466 11.1582 9.85681 11.1881C9.77897 11.218 9.7079 11.2632 9.64779 11.321C9.58769 11.3789 9.53976 11.4481 9.50683 11.5247C9.4739 11.6014 9.45664 11.6838 9.45607 11.7672C9.45549 11.8506 9.47161 11.9332 9.50348 12.0103C9.53535 12.0874 9.58232 12.1573 9.64163 12.2159L11.0829 13.7159C11.1904 13.832 11.3203 13.9251 11.4647 13.9896C11.6092 14.054 11.7653 14.0885 11.9235 14.0909H11.9441C12.0992 14.0915 12.2527 14.0612 12.396 14.0019C12.5392 13.9425 12.6692 13.8553 12.7785 13.7453L15.4485 11.0753C15.5068 11.0171 15.5531 10.948 15.5847 10.8719C15.6163 10.7959 15.6326 10.7143 15.6327 10.6319C15.6328 10.5495 15.6167 10.4679 15.5852 10.3918C15.5537 10.3156 15.5076 10.2464 15.4494 10.1881C15.3912 10.1298 15.3221 10.0835 15.246 10.0519C15.17 10.0203 15.0884 10.004 15.0061 10.0039C14.9237 10.0038 14.8421 10.02 14.7659 10.0514C14.6897 10.0829 14.6206 10.129 14.5622 10.1872Z" fill="white"/>
</g>
</g>
<defs>
<clipPath id="clip0_774_22545">
<rect width="15" height="15" fill="white" transform="translate(5 5)"/>
</clipPath>
</defs>
</svg>
