<svg width="20" height="36" viewBox="0 0 20 36" fill="none" xmlns="http://www.w3.org/2000/svg">
<path d="M10 0C15.5228 2.35683e-07 20 4.37091 20 9.76271L20 26.2373C20 31.6291 15.5228 36 10 36C4.47715 36 -2.41411e-07 31.6291 0 26.2373L7.3763e-07 9.76271C9.79041e-07 4.37091 4.47715 -2.35683e-07 10 0Z" fill="white"/>
<path d="M13.1375 10.7024V12.4841H11.025V14.4976H9.1V12.4841H6.975V10.7024H9.1V8.68881H11.025V10.7024H13.1375Z" fill="#414B61"/>
<path d="M8.1 26.0908V24.3092H11.75V26.0908H8.1Z" fill="#414B61"/>
<path d="M4 19H16" stroke="#ECECEC"/>
</svg>
