<svg width="43" height="43" viewBox="0 0 43 43" fill="none" xmlns="http://www.w3.org/2000/svg">
<rect x="0.5" y="0.5" width="42" height="42" rx="21" fill="#DAF1D6" stroke="#4AB289"/>
<g clip-path="url(#clip0_774_22540)">
<mask id="mask0_774_22540" style="mask-type:luminance" maskUnits="userSpaceOnUse" x="10" y="10" width="21" height="21">
<path d="M31 10H10V31H31V10Z" fill="white"/>
</mask>
<g mask="url(#mask0_774_22540)">
<path d="M30.7435 24.2835C30.5794 24.1195 30.3569 24.0273 30.1249 24.0273C29.8929 24.0273 29.6704 24.1195 29.5062 24.2835L24.5826 29.208L22.2306 26.8867C22.0682 26.7202 21.8462 26.625 21.6136 26.6222C21.3811 26.6193 21.1568 26.7089 20.9903 26.8714C20.8238 27.0338 20.7287 27.2557 20.7258 27.4883C20.7229 27.721 20.8126 27.9452 20.975 28.1117L23.376 30.4742C23.5267 30.6366 23.7085 30.7668 23.9108 30.857C24.113 30.9472 24.3315 30.9956 24.5529 30.9992H24.5817C24.7988 30.9999 25.0138 30.9575 25.2144 30.8744C25.4149 30.7914 25.5969 30.6693 25.7499 30.5153L30.7435 25.5208C30.9075 25.3567 30.9997 25.1342 30.9997 24.9022C30.9997 24.6701 30.9075 24.4476 30.7435 24.2835Z" fill="#4AB289"/>
<path d="M19.7038 29.2136C18.0142 29.0592 16.4059 28.417 15.0748 27.3649C13.7436 26.313 12.747 24.8967 12.2063 23.2886C11.6656 21.6804 11.604 19.9498 12.0292 18.3073C12.4543 16.6648 13.3478 15.1813 14.6009 14.0375C15.854 12.8936 17.4125 12.1388 19.0869 11.8648C20.7613 11.5908 22.4792 11.8095 24.0315 12.4942C25.5837 13.179 26.9035 14.3002 27.83 15.7215C28.7566 17.1428 29.2499 18.8029 29.25 20.4995C29.25 20.7681 29.2369 21.0341 29.2141 21.2966C29.2034 21.4114 29.2154 21.527 29.2496 21.6371C29.2837 21.7472 29.3393 21.8494 29.413 21.9379C29.4868 22.0265 29.5773 22.0995 29.6793 22.153C29.7814 22.2065 29.893 22.2393 30.0077 22.2495C30.1225 22.261 30.2383 22.2495 30.3485 22.2157C30.4586 22.1819 30.5609 22.1263 30.6494 22.0524C30.7379 21.9784 30.8106 21.8876 30.8635 21.7852C30.9163 21.6827 30.9481 21.5708 30.9571 21.4559C30.9851 21.1383 31 20.8206 31 20.4995C30.9999 18.4634 30.4079 16.4714 29.2959 14.7658C28.184 13.0602 26.6002 11.7146 24.7374 10.893C22.8745 10.0713 20.8129 9.809 18.8036 10.1379C16.7943 10.4669 14.924 11.3729 13.4204 12.7457C11.9168 14.1185 10.8447 15.8988 10.3347 17.8699C9.82474 19.8411 9.89883 21.9179 10.548 23.8477C11.1971 25.7775 12.3933 27.4769 13.9909 28.739C15.5885 30.0012 17.5186 30.7717 19.5462 30.9566H19.6259C19.8579 30.967 20.0846 30.8846 20.256 30.7278C20.4274 30.571 20.5295 30.3526 20.5398 30.1206C20.5501 29.8884 20.4679 29.6618 20.3111 29.4904C20.1543 29.319 19.9358 29.217 19.7038 29.2066V29.2136Z" fill="#4AB289"/>
<path d="M19.6252 16.125V20.1378L17.2566 22.5064C17.173 22.587 17.1063 22.6837 17.0605 22.7904C17.0146 22.8972 16.9905 23.0119 16.9895 23.1281C16.9885 23.2443 17.0106 23.3595 17.0546 23.467C17.0986 23.5746 17.1636 23.6723 17.2457 23.7545C17.3279 23.8366 17.4256 23.9016 17.5331 23.9456C17.6406 23.9896 17.7559 24.0117 17.872 24.0107C17.9882 24.0097 18.103 23.9856 18.2098 23.9397C18.3166 23.8939 18.4131 23.8272 18.4938 23.7436L21.1188 21.1186C21.2829 20.9546 21.3751 20.732 21.3752 20.5V16.125C21.3752 15.8929 21.283 15.6704 21.1189 15.5063C20.9548 15.3422 20.7322 15.25 20.5002 15.25C20.2681 15.25 20.0455 15.3422 19.8815 15.5063C19.7174 15.6704 19.6252 15.8929 19.6252 16.125Z" fill="#4AB289"/>
</g>
</g>
<defs>
<clipPath id="clip0_774_22540">
<rect width="21" height="21" fill="white" transform="translate(10 10)"/>
</clipPath>
</defs>
</svg>
