<svg width="43" height="43" viewBox="0 0 43 43" fill="none" xmlns="http://www.w3.org/2000/svg">
<rect x="0.5" y="0.5" width="42" height="42" rx="21" fill="#FEF0C8" stroke="#BC892E"/>
<g clip-path="url(#clip0_774_22541)">
<path d="M18.875 31H11.875C11.6429 31 11.4204 30.9078 11.2563 30.7437C11.0922 30.5796 11 30.3571 11 30.125C11 29.8929 11.0922 29.6704 11.2563 29.5063C11.4204 29.3422 11.6429 29.25 11.875 29.25H18.875C19.1071 29.25 19.3296 29.3422 19.4937 29.5063C19.6578 29.6704 19.75 29.8929 19.75 30.125C19.75 30.3571 19.6578 30.5796 19.4937 30.7437C19.3296 30.9078 19.1071 31 18.875 31Z" fill="#BC892E"/>
<path d="M17.125 27.5H11.875C11.6429 27.5 11.4204 27.4078 11.2563 27.2437C11.0922 27.0796 11 26.8571 11 26.625C11 26.3929 11.0922 26.1704 11.2563 26.0063C11.4204 25.8422 11.6429 25.75 11.875 25.75H17.125C17.3571 25.75 17.5796 25.8422 17.7437 26.0063C17.9078 26.1704 18 26.3929 18 26.625C18 26.8571 17.9078 27.0796 17.7437 27.2437C17.5796 27.4078 17.3571 27.5 17.125 27.5Z" fill="#BC892E"/>
<path d="M15.375 24H11.875C11.6429 24 11.4204 23.9078 11.2563 23.7437C11.0922 23.5796 11 23.3571 11 23.125C11 22.8929 11.0922 22.6704 11.2563 22.5063C11.4204 22.3422 11.6429 22.25 11.875 22.25H15.375C15.6071 22.25 15.8296 22.3422 15.9937 22.5063C16.1578 22.6704 16.25 22.8929 16.25 23.125C16.25 23.3571 16.1578 23.5796 15.9937 23.7437C15.8296 23.9078 15.6071 24 15.375 24Z" fill="#BC892E"/>
<path d="M22.3751 30.9606C22.143 30.971 21.9164 30.8887 21.745 30.7319C21.5736 30.5751 21.4715 30.3566 21.4612 30.1246C21.4508 29.8925 21.5331 29.6658 21.6899 29.4944C21.8467 29.3231 22.0652 29.221 22.2972 29.2106C23.9531 29.0591 25.5316 28.4389 26.8477 27.4226C28.1638 26.4064 29.1631 25.0361 29.7285 23.4724C30.2939 21.9087 30.4021 20.2162 30.0403 18.5932C29.6785 16.9702 28.8617 15.4839 27.6857 14.3084C26.5096 13.1329 25.023 12.3168 23.3998 11.9558C21.7767 11.5947 20.0843 11.7037 18.5208 12.2698C16.9573 12.836 15.5875 13.8359 14.5719 15.1525C13.5562 16.4691 12.9367 18.0478 12.786 19.7038C12.7651 19.9349 12.6532 20.1483 12.475 20.2969C12.2968 20.4456 12.0669 20.5174 11.8357 20.4965C11.6046 20.4756 11.3912 20.3638 11.2426 20.1856C11.0939 20.0074 11.0221 19.7774 11.043 19.5463C11.287 16.8542 12.5599 14.3599 14.5966 12.5826C16.6334 10.8054 19.2771 9.88212 21.9775 10.005C24.6778 10.1279 27.2267 11.2875 29.0936 13.2424C30.9605 15.1973 32.0016 17.7969 32.0001 20.5C32.0135 23.1236 31.0388 25.656 29.27 27.5936C27.5012 29.5313 25.0678 30.7321 22.4538 30.9571C22.4276 30.9598 22.4005 30.9606 22.3751 30.9606V30.9606Z" fill="#BC892E"/>
<path d="M21.5001 15.25C21.2681 15.25 21.0455 15.3422 20.8814 15.5063C20.7173 15.6704 20.6251 15.8929 20.6251 16.125V20.5C20.6252 20.732 20.7174 20.9546 20.8815 21.1186L23.5065 23.7436C23.6715 23.903 23.8926 23.9912 24.122 23.9892C24.3514 23.9872 24.5709 23.8952 24.7331 23.733C24.8953 23.5707 24.9873 23.3513 24.9893 23.1219C24.9913 22.8924 24.9031 22.6714 24.7437 22.5064L22.3751 20.1378V16.125C22.3751 15.8929 22.2829 15.6704 22.1188 15.5063C21.9547 15.3422 21.7322 15.25 21.5001 15.25V15.25Z" fill="#BC892E"/>
</g>
<defs>
<clipPath id="clip0_774_22541">
<rect width="21" height="21" fill="white" transform="translate(11 10)"/>
</clipPath>
</defs>
</svg>
