<svg width="43" height="43" viewBox="0 0 43 43" fill="none" xmlns="http://www.w3.org/2000/svg">
<rect x="0.5" y="0.5" width="42" height="42" rx="21" fill="#FDE4E1" stroke="#C83F3E"/>
<g clip-path="url(#clip0_774_22542)">
<path d="M31.7436 23.3812C31.5795 23.2172 31.357 23.125 31.125 23.125C30.893 23.125 30.6705 23.2172 30.5064 23.3812L28.0625 25.8251L25.6186 23.3812C25.4536 23.2218 25.2326 23.1336 25.0032 23.1356C24.7737 23.1376 24.5543 23.2296 24.392 23.3918C24.2298 23.5541 24.1378 23.7735 24.1358 24.003C24.1338 24.2324 24.222 24.4534 24.3814 24.6184L26.8253 27.0623L24.3814 29.5062C24.2978 29.5869 24.2312 29.6834 24.1853 29.7902C24.1394 29.897 24.1153 30.0118 24.1143 30.128C24.1133 30.2441 24.1354 30.3594 24.1794 30.4669C24.2234 30.5744 24.2884 30.6721 24.3705 30.7543C24.4527 30.8364 24.5504 30.9014 24.6579 30.9454C24.7655 30.9894 24.8807 31.0115 24.9969 31.0105C25.113 31.0095 25.2279 30.9854 25.3346 30.9395C25.4414 30.8937 25.5379 30.827 25.6186 30.7434L28.0625 28.2996L30.5064 30.7434C30.6714 30.9028 30.8924 30.991 31.1219 30.989C31.3513 30.987 31.5707 30.895 31.733 30.7328C31.8952 30.5705 31.9872 30.3511 31.9892 30.1217C31.9912 29.8922 31.903 29.6712 31.7436 29.5062L29.2998 27.0623L31.7436 24.6184C31.9077 24.4544 31.9998 24.2318 31.9998 23.9998C31.9998 23.7678 31.9077 23.5453 31.7436 23.3812V23.3812Z" fill="#C83F3E"/>
<path d="M21.5 29.25C19.7694 29.25 18.0777 28.7368 16.6388 27.7754C15.1998 26.8139 14.0783 25.4473 13.4161 23.8485C12.7538 22.2496 12.5805 20.4903 12.9181 18.793C13.2558 17.0956 14.0891 15.5365 15.3128 14.3128C16.5365 13.0891 18.0956 12.2558 19.793 11.9181C21.4903 11.5805 23.2496 11.7538 24.8485 12.4161C26.4473 13.0783 27.8139 14.1998 28.7754 15.6388C29.7368 17.0777 30.25 18.7694 30.25 20.5C30.25 20.7321 30.3422 20.9546 30.5063 21.1187C30.6704 21.2828 30.8929 21.375 31.125 21.375C31.3571 21.375 31.5796 21.2828 31.7437 21.1187C31.9078 20.9546 32 20.7321 32 20.5C32 18.4233 31.3842 16.3932 30.2304 14.6665C29.0767 12.9398 27.4368 11.594 25.5182 10.7993C23.5996 10.0045 21.4884 9.79661 19.4516 10.2018C17.4148 10.6069 15.5438 11.6069 14.0754 13.0754C12.6069 14.5438 11.6069 16.4148 11.2018 18.4516C10.7966 20.4884 11.0045 22.5996 11.7993 24.5182C12.594 26.4368 13.9398 28.0767 15.6665 29.2304C17.3932 30.3842 19.4233 31 21.5 31C21.7321 31 21.9546 30.9078 22.1187 30.7437C22.2828 30.5796 22.375 30.3571 22.375 30.125C22.375 29.8929 22.2828 29.6704 22.1187 29.5063C21.9546 29.3422 21.7321 29.25 21.5 29.25Z" fill="#C83F3E"/>
<path d="M21.5001 15.25C21.2681 15.25 21.0455 15.3422 20.8814 15.5063C20.7173 15.6704 20.6251 15.8929 20.6251 16.125V20.1377L18.2565 22.5064C18.1729 22.5871 18.1063 22.6836 18.0604 22.7904C18.0146 22.8971 17.9904 23.012 17.9894 23.1281C17.9884 23.2443 18.0105 23.3595 18.0545 23.4671C18.0985 23.5746 18.1635 23.6723 18.2457 23.7545C18.3278 23.8366 18.4255 23.9016 18.533 23.9456C18.6406 23.9896 18.7558 24.0117 18.872 24.0107C18.9882 24.0097 19.103 23.9856 19.2097 23.9397C19.3165 23.8938 19.413 23.8272 19.4938 23.7436L22.1187 21.1186C22.2828 20.9546 22.3751 20.732 22.3751 20.5V16.125C22.3751 15.8929 22.2829 15.6704 22.1188 15.5063C21.9547 15.3422 21.7322 15.25 21.5001 15.25V15.25Z" fill="#C83F3E"/>
</g>
<defs>
<clipPath id="clip0_774_22542">
<rect width="21" height="21" fill="white" transform="translate(11 10)"/>
</clipPath>
</defs>
</svg>
